<?xml version="1.0" encoding="utf-8"?>
<!-- Generator: Adobe Illustrator 27.0.0, SVG Export Plug-In . SVG Version: 6.00 Build 0)  -->
<svg version="1.1" id="Livello_1" xmlns="http://www.w3.org/2000/svg" xmlns:xlink="http://www.w3.org/1999/xlink" x="0px" y="0px"
	 viewBox="0 0 14.17 14.17" style="enable-background:new 0 0 14.17 14.17;" xml:space="preserve">
<style type="text/css">
	.st0{fill:#8B0D1B;}
</style>
<path class="st0" d="M13.91,13.09c-0.05-0.05-0.11-0.1-0.16-0.16c-0.05-0.05-0.11-0.1-0.16-0.15c-0.05-0.05-0.09-0.12-0.14-0.18
	c-0.05-0.05-0.14-0.08-0.19-0.13c-0.05-0.06-0.11-0.1-0.16-0.16c-0.05-0.06-0.05-0.15-0.1-0.21c-0.05-0.06-0.12-0.09-0.17-0.15
	c-0.07-0.09-0.06-0.09-0.13-0.18c-0.07-0.09-0.07-0.09-0.14-0.18c-0.07-0.09-0.07-0.08-0.14-0.17s-0.12-0.06-0.13-0.17
	c-0.02-0.12,0.06-0.1,0.1-0.21c0.04-0.11-0.01-0.13,0.03-0.24c0.04-0.11,0.06-0.1,0.1-0.21c0.04-0.11,0.03-0.12,0.07-0.23
	c0.04-0.11,0.07-0.1,0.11-0.21c0.04-0.11,0.02-0.12,0.06-0.23c0.04-0.11,0.05-0.11,0.09-0.22c0.04-0.11,0.02-0.12,0.06-0.23
	c0.04-0.11,0.08-0.1,0.1-0.22c0.01-0.1-0.03-0.09-0.09-0.18c-0.03-0.05-0.11-0.09-0.15-0.15c-0.05-0.07-0.08-0.13-0.12-0.15
	c-0.04-0.03-0.13-0.05-0.23-0.06c-0.12-0.02-0.14-0.1-0.24-0.04c-0.11,0.06-0.1,0.08-0.19,0.17c-0.09,0.09-0.09,0.09-0.19,0.18
	c-0.09,0.09-0.06,0.12-0.15,0.22c-0.09,0.09-0.08,0.12-0.2,0.17c-0.11,0.05-0.07-0.07-0.17-0.17c-0.05-0.05-0.12-0.09-0.18-0.15
	c-0.05-0.05-0.1-0.12-0.16-0.18c-0.05-0.05-0.12-0.1-0.18-0.16c-0.05-0.05-0.11-0.11-0.17-0.16c-0.05-0.05-0.1-0.13-0.15-0.18
	c-0.06-0.05-0.12-0.1-0.18-0.15c-0.06-0.05-0.1-0.12-0.16-0.18C10.03,8.02,9.98,7.96,9.93,7.9C9.87,7.84,9.79,7.81,9.74,7.75
	C9.68,7.7,9.64,7.63,9.58,7.57c-0.06-0.06-0.13-0.1-0.18-0.15C9.34,7.36,9.3,7.29,9.25,7.23C9.19,7.18,9.12,7.12,9.06,7.06
	C9.11,7,9.2,6.97,9.26,6.91C9.31,6.85,9.32,6.75,9.37,6.7c0.06-0.06,0.11-0.12,0.16-0.17c0.04-0.05,0.14-0.06,0.21-0.13
	C9.78,6.34,9.82,6.27,9.88,6.2c0.05-0.05,0.1-0.12,0.15-0.18c0.05-0.06,0.11-0.1,0.17-0.16c0.05-0.06,0.09-0.13,0.14-0.19
	c0.05-0.06,0.1-0.12,0.15-0.18c0.05-0.06,0.1-0.12,0.15-0.18c0.05-0.06,0.1-0.12,0.15-0.18c0.05-0.06,0.09-0.13,0.15-0.18
	c0.05-0.06,0.13-0.09,0.19-0.15c0.05-0.06,0.11-0.11,0.16-0.17c0.05-0.06,0.08-0.14,0.13-0.19c0.05-0.06,0.13-0.1,0.18-0.16
	c0.05-0.06,0.11-0.11,0.16-0.17c0.05-0.06,0.07-0.15,0.12-0.21c0.05-0.06,0.13-0.1,0.18-0.16c0.05-0.06,0.11-0.12,0.16-0.18
	c0.05-0.06,0.09-0.13,0.14-0.19c0.05-0.06,0.11-0.11,0.16-0.17c0.05-0.06,0.09-0.13,0.14-0.19c0.05-0.06,0.08-0.14,0.13-0.2
	c0.05-0.06,0.11-0.11,0.16-0.17c0.05-0.06,0.08-0.14,0.12-0.2c0.05-0.07,0.12-0.11,0.16-0.17c0.05-0.07,0.11-0.13,0.15-0.19
	C13.43,2,13.47,1.92,13.5,1.87c0.06-0.11,0.04-0.12,0.1-0.22c0.06-0.11,0.06-0.11,0.11-0.21c0.06-0.11,0.03-0.12,0.09-0.23
	c0.06-0.11,0.07-0.1,0.13-0.21c0.06-0.11,0.06-0.11,0.11-0.22s0.09-0.1,0.12-0.21c0.03-0.1,0-0.11-0.03-0.21
	c-0.03-0.08-0.07-0.15-0.1-0.18c-0.03-0.03-0.12-0.03-0.2-0.06c-0.1-0.03-0.09-0.08-0.18-0.06c-0.12,0.03-0.11,0.05-0.21,0.11
	c-0.11,0.06-0.13,0.02-0.23,0.08c-0.11,0.06-0.11,0.06-0.22,0.12c-0.11,0.06-0.09,0.1-0.2,0.15c-0.11,0.06-0.11,0.05-0.22,0.11
	s-0.11,0.05-0.22,0.1c-0.06,0.03-0.12,0.08-0.2,0.13c-0.06,0.04-0.12,0.09-0.19,0.14c-0.06,0.04-0.13,0.07-0.2,0.12
	c-0.06,0.04-0.13,0.08-0.19,0.13c-0.06,0.05-0.1,0.12-0.17,0.17c-0.06,0.05-0.15,0.06-0.21,0.11c-0.06,0.05-0.13,0.08-0.19,0.13
	c-0.06,0.05-0.12,0.1-0.18,0.15c-0.06,0.05-0.1,0.13-0.16,0.18c-0.06,0.05-0.14,0.08-0.2,0.13c-0.06,0.05-0.1,0.12-0.16,0.18
	c-0.06,0.05-0.12,0.1-0.18,0.15C10.06,2.5,9.97,2.52,9.91,2.57c-0.06,0.05-0.08,0.15-0.14,0.2c-0.06,0.05-0.13,0.1-0.18,0.15
	c-0.06,0.05-0.12,0.1-0.18,0.15C9.35,3.12,9.29,3.18,9.24,3.23C9.18,3.29,9.1,3.32,9.04,3.37C8.98,3.42,8.95,3.51,8.89,3.56
	C8.83,3.61,8.75,3.64,8.7,3.7c-0.06,0.05-0.13,0.1-0.18,0.15C8.45,3.9,8.41,3.97,8.36,4.02C8.3,4.08,8.24,4.13,8.19,4.19
	c-0.06,0.06-0.13,0.1-0.18,0.15C7.94,4.39,7.86,4.42,7.81,4.47C7.74,4.53,7.69,4.59,7.65,4.64C7.59,4.69,7.52,4.74,7.45,4.8
	c-0.06,0.05-0.13,0.1-0.19,0.17C7.2,5.02,7.15,5.07,7.09,5.13c-0.06-0.06-0.12-0.1-0.18-0.15C6.84,4.92,6.77,4.86,6.71,4.81
	c-0.07-0.06-0.15-0.1-0.21-0.15C6.46,4.61,6.44,4.52,6.37,4.46c-0.05-0.05-0.11-0.1-0.18-0.16c-0.05-0.05-0.14-0.07-0.2-0.12
	c-0.06-0.05-0.1-0.12-0.16-0.17C5.77,3.96,5.74,3.88,5.68,3.83C5.62,3.77,5.54,3.75,5.48,3.7c-0.06-0.05-0.1-0.12-0.16-0.18
	C5.26,3.47,5.2,3.42,5.14,3.37C5.08,3.32,4.99,3.3,4.93,3.25C4.88,3.2,4.84,3.12,4.78,3.07c-0.06-0.05-0.1-0.12-0.16-0.18
	C4.56,2.84,4.49,2.8,4.43,2.75C4.37,2.7,4.31,2.66,4.25,2.6C4.19,2.55,4.13,2.5,4.07,2.45c-0.06-0.05-0.1-0.12-0.16-0.18
	C3.85,2.22,3.76,2.2,3.7,2.14C3.64,2.09,3.57,2.05,3.51,2C3.45,1.95,3.39,1.9,3.33,1.85C3.27,1.8,3.24,1.71,3.18,1.66
	c-0.06-0.05-0.14-0.08-0.2-0.13C2.92,1.48,2.86,1.43,2.8,1.39c-0.06-0.05-0.13-0.1-0.19-0.14c-0.06-0.05-0.1-0.13-0.16-0.18
	c-0.07-0.05-0.14-0.08-0.2-0.13c-0.07-0.05-0.14-0.09-0.2-0.12c-0.08-0.05-0.15-0.07-0.21-0.1C1.73,0.66,1.73,0.65,1.62,0.6
	c-0.11-0.06-0.1-0.07-0.21-0.13C1.31,0.41,1.3,0.43,1.19,0.38C1.08,0.32,1.07,0.34,0.96,0.28c-0.11-0.06-0.1-0.08-0.21-0.13
	S0.67,0.04,0.55,0c-0.1-0.03-0.1,0.08-0.19,0.12C0.28,0.15,0.19,0.15,0.16,0.18C0.13,0.21,0.12,0.29,0.1,0.37
	c-0.03,0.1-0.08,0.08-0.05,0.18c0.03,0.12,0.04,0.11,0.1,0.22c0.06,0.11,0.07,0.1,0.13,0.21C0.32,1.08,0.3,1.1,0.35,1.2
	c0.06,0.11,0.08,0.1,0.14,0.2c0.06,0.11,0.03,0.12,0.09,0.23s0.05,0.11,0.1,0.22c0.03,0.06,0.11,0.1,0.15,0.18
	c0.04,0.06,0.08,0.13,0.13,0.2C1,2.3,1.06,2.36,1.1,2.42c0.04,0.06,0.05,0.16,0.1,0.22C1.25,2.7,1.3,2.76,1.35,2.83
	C1.4,2.89,1.48,2.92,1.53,2.98C1.58,3.04,1.59,3.13,1.64,3.2c0.05,0.06,0.14,0.09,0.19,0.15c0.05,0.06,0.1,0.12,0.15,0.18
	c0.05,0.06,0.08,0.13,0.14,0.19c0.05,0.06,0.12,0.11,0.17,0.17c0.05,0.06,0.09,0.13,0.14,0.19c0.05,0.06,0.08,0.14,0.13,0.2
	C2.61,4.33,2.7,4.36,2.75,4.42C2.8,4.48,2.86,4.54,2.91,4.6c0.05,0.06,0.1,0.12,0.16,0.18c0.05,0.06,0.11,0.11,0.17,0.17
	C3.28,5,3.32,5.08,3.37,5.13c0.05,0.06,0.11,0.12,0.16,0.17c0.05,0.06,0.08,0.14,0.13,0.2C3.72,5.57,3.8,5.6,3.85,5.66
	C3.9,5.72,3.96,5.77,4.01,5.83c0.05,0.06,0.08,0.14,0.13,0.2c0.06,0.06,0.13,0.1,0.18,0.16c0.06,0.06,0.11,0.13,0.15,0.18
	c0.06,0.07,0.09,0.15,0.13,0.19c0.05,0.05,0.12,0.1,0.18,0.16c0.05,0.06,0.1,0.12,0.16,0.18C4.99,6.95,5.01,7,5.07,7.06
	C5.01,7.12,4.99,7.18,4.94,7.23c-0.06,0.06-0.14,0.08-0.2,0.14c-0.06,0.06-0.08,0.14-0.14,0.2c-0.06,0.06-0.13,0.1-0.19,0.15
	C4.35,7.78,4.29,7.83,4.24,7.89c-0.06,0.06-0.1,0.13-0.15,0.18C4.03,8.13,3.97,8.19,3.92,8.24C3.86,8.3,3.79,8.35,3.74,8.4
	C3.68,8.46,3.64,8.54,3.59,8.59c-0.06,0.06-0.15,0.08-0.2,0.14C3.33,8.79,3.27,8.83,3.21,8.89C3.15,8.95,3.1,9.01,3.05,9.06
	c-0.07,0.06-0.1,0.15-0.14,0.19C2.8,9.36,2.83,9.46,2.72,9.41c-0.11-0.06-0.09-0.1-0.18-0.19c-0.09-0.09-0.1-0.08-0.19-0.17
	c-0.09-0.09-0.08-0.1-0.17-0.2C2.09,8.76,2.09,8.77,1.97,8.7c-0.11-0.06-0.1,0.01-0.22,0.03c-0.1,0.01-0.2-0.01-0.25,0.02
	C1.47,8.77,1.41,8.83,1.37,8.9C1.33,8.95,1.27,9,1.24,9.05C1.18,9.15,1.18,9.14,1.19,9.24C1.2,9.36,1.19,9.36,1.23,9.47
	C1.27,9.58,1.25,9.59,1.29,9.7c0.04,0.11,0.06,0.1,0.1,0.21c0.04,0.11,0.02,0.12,0.07,0.23c0.04,0.11,0.05,0.11,0.09,0.22
	c0.04,0.11,0.07,0.1,0.12,0.21c0.04,0.11,0.04,0.11,0.08,0.22c0.04,0.11,0.01,0.12,0.05,0.23c0.04,0.11,0.1,0.1,0.09,0.21
	c-0.02,0.11-0.04,0.1-0.11,0.19c-0.07,0.09-0.06,0.1-0.12,0.19c-0.07,0.09-0.11,0.06-0.18,0.15s-0.06,0.1-0.13,0.19
	c-0.05,0.06-0.1,0.11-0.15,0.17c-0.05,0.06-0.1,0.11-0.15,0.17c-0.05,0.06-0.09,0.12-0.14,0.17c-0.05,0.06-0.11,0.1-0.16,0.15
	c-0.05,0.05-0.09,0.12-0.14,0.18c-0.05,0.05-0.09,0.12-0.15,0.17s-0.14,0.07-0.19,0.12c-0.03,0.03-0.05,0.08-0.07,0.1
	c-0.06,0.06-0.08,0.13-0.11,0.2C0.04,13.45,0,13.52,0,13.6c0,0.08,0.01,0.16,0.04,0.23c0.03,0.07,0.08,0.14,0.13,0.19
	c0.06,0.06,0.14,0.06,0.21,0.09c0.07,0.03,0.13,0.07,0.21,0.07c0.08,0,0.14-0.04,0.21-0.07C0.87,14.07,0.95,14.06,1,14
	c0.02-0.02,0.05-0.06,0.08-0.09c0.05-0.05,0.11-0.1,0.16-0.15c0.05-0.05,0.11-0.1,0.16-0.15c0.05-0.05,0.1-0.11,0.16-0.16
	c0.05-0.05,0.13-0.08,0.18-0.13c0.06-0.05,0.08-0.13,0.14-0.18c0.06-0.05,0.1-0.11,0.16-0.16c0.06-0.05,0.13-0.08,0.19-0.12
	c0.09-0.07,0.11-0.04,0.2-0.11c0.09-0.07,0.08-0.08,0.17-0.15c0.09-0.07,0.06-0.1,0.15-0.17s0.08-0.12,0.19-0.14
	c0.12-0.02,0.1,0.09,0.21,0.13c0.11,0.04,0.11,0.04,0.22,0.08c0.11,0.04,0.13-0.02,0.24,0.02c0.11,0.04,0.1,0.07,0.21,0.11
	c0.11,0.04,0.11,0.03,0.22,0.07c0.11,0.04,0.1,0.06,0.21,0.1c0.11,0.04,0.13-0.01,0.24,0.03c0.11,0.04,0.1,0.08,0.21,0.12
	c0.11,0.04,0.11,0.06,0.23,0.07c0.1,0.01,0.07-0.07,0.16-0.13c0.05-0.03,0.14-0.04,0.19-0.08c0.07-0.05,0.11-0.11,0.13-0.15
	c0.03-0.04,0.06-0.14,0.08-0.23c0.02-0.12,0.07-0.14,0.01-0.25c-0.06-0.11-0.09-0.09-0.18-0.18c-0.09-0.09-0.07-0.11-0.17-0.2
	c-0.09-0.09-0.13-0.05-0.22-0.14c-0.09-0.09-0.08-0.1-0.14-0.21c-0.05-0.1,0.06-0.03,0.17-0.14c0.05-0.05,0.1-0.11,0.16-0.17
	c0.05-0.05,0.11-0.1,0.17-0.16c0.05-0.05,0.07-0.14,0.13-0.2c0.05-0.05,0.13-0.09,0.18-0.15c0.05-0.05,0.12-0.1,0.17-0.16
	c0.05-0.05,0.1-0.12,0.16-0.17c0.05-0.05,0.09-0.13,0.14-0.19c0.05-0.05,0.13-0.09,0.18-0.15c0.05-0.06,0.1-0.12,0.15-0.18
	c0.05-0.06,0.14-0.08,0.19-0.14C6.67,9.6,6.68,9.51,6.74,9.45C6.79,9.39,6.87,9.36,6.93,9.3c0.05-0.06,0.11-0.14,0.16-0.2
	C7.14,9.17,7.19,9.25,7.25,9.3C7.3,9.36,7.38,9.39,7.43,9.45c0.06,0.06,0.09,0.13,0.14,0.19C7.63,9.7,7.71,9.73,7.76,9.78
	c0.06,0.06,0.1,0.12,0.16,0.17c0.06,0.06,0.08,0.14,0.13,0.2c0.06,0.06,0.13,0.1,0.18,0.15c0.06,0.06,0.12,0.11,0.17,0.16
	c0.06,0.06,0.12,0.11,0.17,0.16c0.06,0.06,0.09,0.13,0.14,0.19c0.06,0.06,0.1,0.13,0.15,0.18c0.06,0.06,0.13,0.1,0.18,0.15
	c0.06,0.06,0.12,0.12,0.17,0.17c0.1,0.11,0.24,0.07,0.19,0.18c-0.06,0.11-0.12,0.07-0.21,0.16c-0.09,0.09-0.07,0.11-0.16,0.2
	c-0.09,0.09-0.09,0.09-0.18,0.18c-0.09,0.09-0.12,0.06-0.19,0.17c-0.06,0.11,0.04,0.11,0.06,0.23c0.01,0.1,0.02,0.19,0.04,0.23
	c0.02,0.04,0.05,0.11,0.12,0.16c0.05,0.04,0.13,0.05,0.19,0.08c0.09,0.06,0.06,0.1,0.16,0.09c0.12-0.01,0.13,0.02,0.24-0.02
	c0.11-0.04,0.1-0.08,0.21-0.12c0.11-0.04,0.12-0.02,0.23-0.06c0.11-0.04,0.1-0.06,0.21-0.1c0.11-0.04,0.1-0.06,0.22-0.1
	c0.11-0.04,0.12-0.02,0.23-0.06c0.11-0.04,0.11-0.05,0.22-0.09c0.11-0.04,0.12-0.02,0.23-0.06c0.11-0.04,0.1-0.09,0.22-0.07
	c0.11,0.02,0.11,0.03,0.2,0.1c0.09,0.07,0.05,0.11,0.14,0.18c0.09,0.07,0.09,0.07,0.17,0.14s0.09,0.06,0.18,0.13
	c0.06,0.05,0.14,0.06,0.2,0.11c0.06,0.05,0.11,0.11,0.16,0.16c0.06,0.05,0.11,0.1,0.16,0.15c0.06,0.05,0.12,0.09,0.18,0.14
	c0.05,0.05,0.11,0.1,0.16,0.16c0.05,0.05,0.11,0.1,0.16,0.16c0.05,0.05,0.06,0.14,0.12,0.2c0.03,0.03,0.07,0.06,0.09,0.08
	c0.06,0.06,0.15,0.06,0.22,0.09c0.07,0.03,0.14,0.03,0.21,0.03c0.08,0,0.16,0.05,0.24,0.02c0.07-0.03,0.12-0.1,0.17-0.16
	c0.06-0.06,0.07-0.13,0.1-0.2c0.03-0.07,0.08-0.13,0.08-0.21c0-0.08-0.03-0.15-0.06-0.22c-0.03-0.07-0.05-0.15-0.11-0.2
	C13.97,13.15,13.95,13.12,13.91,13.09z"/>
</svg>
