<?xml version="1.0" encoding="utf-8"?>
<!-- Generator: Adobe Illustrator 27.0.0, SVG Export Plug-In . SVG Version: 6.00 Build 0)  -->
<svg version="1.1" id="Livello_1" xmlns="http://www.w3.org/2000/svg" xmlns:xlink="http://www.w3.org/1999/xlink" x="0px" y="0px"
	 viewBox="0 0 14.17 14.17" style="enable-background:new 0 0 14.17 14.17;" xml:space="preserve">
<style type="text/css">
	.st0{fill:#8B0D1B;}
</style>
<path class="st0" d="M12.71,11.03c0.07-0.1,0.06-0.11,0.13-0.22c0.07-0.1,0.1-0.08,0.17-0.19c0.07-0.1,0.08-0.1,0.15-0.2
	c0.07-0.1,0.08-0.09,0.16-0.2c0.07-0.1,0.04-0.13,0.12-0.23c0.07-0.1,0.06-0.11,0.14-0.21c0.07-0.1,0.13-0.06,0.2-0.16
	c0.08-0.1,0.03-0.14,0.1-0.24c0.08-0.1,0.11-0.07,0.19-0.17c0.07-0.07,0.1-0.18,0.1-0.28c0-0.1-0.02-0.21-0.09-0.29
	c-0.09-0.09-0.11-0.07-0.19-0.16c-0.09-0.09-0.1-0.07-0.19-0.16c-0.09-0.09-0.06-0.12-0.15-0.21c-0.09-0.09-0.1-0.08-0.19-0.17
	c-0.09-0.09-0.12-0.06-0.21-0.15c-0.09-0.09-0.05-0.13-0.14-0.22c-0.09-0.09-0.11-0.07-0.2-0.16c-0.06-0.06-0.15-0.09-0.21-0.14
	c-0.06-0.06-0.11-0.13-0.17-0.18c0.07-0.05,0.13-0.11,0.19-0.16c0.06-0.05,0.15-0.09,0.21-0.15c0.09-0.09,0.07-0.11,0.16-0.2
	c0.09-0.09,0.11-0.07,0.2-0.16c0.09-0.09,0.05-0.13,0.14-0.22c0.09-0.09,0.1-0.08,0.19-0.17c0.09-0.09,0.1-0.08,0.19-0.17
	c0.09-0.09,0.11-0.07,0.2-0.16c0.09-0.09,0.05-0.13,0.14-0.22c0.07-0.07,0.11-0.15,0.11-0.25c0-0.09-0.02-0.19-0.1-0.27
	c-0.08-0.1-0.06-0.11-0.14-0.21c-0.07-0.1-0.09-0.09-0.16-0.19c-0.07-0.1-0.08-0.09-0.16-0.2c-0.07-0.1-0.06-0.12-0.13-0.22
	c-0.07-0.1-0.11-0.08-0.18-0.18c-0.07-0.1-0.07-0.11-0.14-0.21c-0.07-0.1-0.05-0.12-0.13-0.22c-0.08-0.1-0.1-0.08-0.18-0.18
	s-0.06-0.11-0.14-0.21c-0.05-0.06-0.07-0.14-0.12-0.2c-0.05-0.06-0.12-0.11-0.17-0.17c-0.05-0.06-0.11-0.11-0.16-0.17
	c-0.05-0.06-0.1-0.12-0.16-0.17c-0.05-0.06-0.12-0.11-0.17-0.16c-0.06-0.06-0.1-0.12-0.15-0.18c-0.06-0.05-0.09-0.13-0.15-0.19
	c-0.06-0.05-0.14-0.08-0.2-0.13c-0.06-0.05-0.12-0.1-0.18-0.15c-0.06-0.05-0.11-0.12-0.17-0.17c-0.1-0.07-0.1-0.08-0.2-0.15
	c-0.1-0.07-0.1-0.07-0.2-0.15c-0.1-0.07-0.12-0.05-0.22-0.12c-0.1-0.07-0.1-0.08-0.2-0.16c-0.1-0.07-0.11-0.07-0.21-0.14
	c-0.1-0.07-0.08-0.11-0.18-0.18C9.74,0.5,9.73,0.52,9.63,0.44c-0.1-0.08-0.1-0.08-0.2-0.15S9.3,0.24,9.21,0.16
	C9.13,0.09,9.05,0.07,8.95,0.07c-0.1,0-0.19-0.01-0.27,0.07C8.6,0.22,8.61,0.24,8.52,0.33C8.43,0.42,8.41,0.4,8.32,0.49
	c-0.09,0.09-0.1,0.08-0.19,0.17c-0.09,0.09-0.07,0.11-0.16,0.2c-0.09,0.09-0.11,0.07-0.2,0.16C7.68,1.1,7.69,1.11,7.6,1.2
	C7.51,1.29,7.52,1.3,7.43,1.39c-0.06,0.06-0.14,0.1-0.19,0.17C7.18,1.62,7.15,1.74,7.1,1.81C7.05,1.74,6.99,1.65,6.93,1.59
	C6.88,1.52,6.82,1.46,6.76,1.4C6.67,1.31,6.7,1.28,6.61,1.19C6.52,1.1,6.5,1.13,6.41,1.04c-0.09-0.09-0.07-0.11-0.16-0.2
	C6.16,0.75,6.14,0.77,6.05,0.68c-0.09-0.09-0.08-0.1-0.17-0.19C5.79,0.4,5.77,0.42,5.68,0.33S5.59,0.23,5.5,0.14
	C5.43,0.07,5.34,0,5.25,0C5.15,0,5.04,0.05,4.97,0.12C4.87,0.2,4.9,0.25,4.8,0.32C4.7,0.4,4.67,0.36,4.57,0.43
	c-0.1,0.07-0.11,0.06-0.21,0.14c-0.1,0.07-0.09,0.08-0.2,0.16c-0.1,0.07-0.1,0.08-0.2,0.15c-0.1,0.07-0.09,0.09-0.19,0.17
	c-0.1,0.07-0.1,0.08-0.2,0.15c-0.1,0.08-0.12,0.05-0.22,0.13c-0.1,0.08-0.08,0.1-0.18,0.18C3.11,1.55,3.01,1.56,2.95,1.61
	C2.89,1.66,2.86,1.74,2.8,1.79c-0.06,0.05-0.12,0.1-0.18,0.15C2.56,2,2.49,2.04,2.44,2.1C2.38,2.15,2.33,2.21,2.27,2.27
	C2.22,2.32,2.14,2.36,2.08,2.41C2.03,2.47,1.99,2.54,1.94,2.6C1.89,2.66,1.83,2.71,1.78,2.77C1.73,2.83,1.67,2.89,1.62,2.95
	C1.57,3.01,1.56,3.1,1.51,3.17c-0.07,0.1-0.11,0.08-0.18,0.18c-0.07,0.1-0.08,0.09-0.16,0.2C1.1,3.64,1.14,3.67,1.06,3.77
	c-0.07,0.1-0.11,0.08-0.18,0.18c-0.07,0.1-0.04,0.13-0.11,0.23c-0.07,0.1-0.1,0.08-0.17,0.19c-0.07,0.1-0.07,0.1-0.15,0.2
	c-0.08,0.1-0.09,0.09-0.17,0.19C0.2,4.86,0.22,4.87,0.14,4.97C0.07,5.04,0,5.14,0,5.24c0,0.1,0.06,0.2,0.13,0.27
	c0.09,0.09,0.11,0.07,0.2,0.15c0.09,0.09,0.05,0.13,0.14,0.22c0.09,0.09,0.11,0.07,0.2,0.16c0.09,0.09,0.11,0.07,0.2,0.16
	c0.09,0.09,0.05,0.13,0.14,0.22c0.09,0.09,0.12,0.06,0.21,0.15c0.09,0.09,0.07,0.11,0.16,0.2c0.06,0.06,0.14,0.1,0.2,0.16
	c0.06,0.06,0.13,0.12,0.2,0.17C1.72,7.14,1.67,7.21,1.6,7.27C1.54,7.32,1.44,7.34,1.38,7.4C1.29,7.49,1.3,7.5,1.21,7.59
	c-0.09,0.09-0.1,0.08-0.19,0.17c-0.09,0.09-0.08,0.1-0.17,0.19c-0.09,0.09-0.07,0.11-0.16,0.2C0.6,8.23,0.59,8.23,0.5,8.32
	C0.41,8.41,0.39,8.38,0.3,8.47s-0.08,0.1-0.17,0.19c-0.07,0.07-0.1,0.18-0.1,0.28c0,0.09,0.03,0.21,0.1,0.28
	c0.08,0.1,0.12,0.06,0.2,0.16c0.07,0.1,0.04,0.12,0.12,0.23c0.07,0.1,0.08,0.1,0.15,0.2c0.07,0.1,0.07,0.1,0.15,0.2
	c0.07,0.1,0.07,0.1,0.14,0.21c0.07,0.1,0.11,0.08,0.18,0.18c0.07,0.1,0.06,0.11,0.13,0.21c0.08,0.1,0.08,0.1,0.16,0.2
	c0.08,0.1,0.08,0.1,0.15,0.2c0.05,0.06,0.09,0.13,0.14,0.19c0.05,0.06,0.07,0.14,0.12,0.2c0.05,0.06,0.13,0.1,0.18,0.15
	c0.05,0.06,0.1,0.12,0.15,0.18c0.05,0.06,0.1,0.12,0.15,0.18c0.06,0.06,0.12,0.1,0.18,0.15c0.06,0.05,0.13,0.1,0.18,0.15
	c0.06,0.05,0.1,0.13,0.16,0.18c0.06,0.05,0.15,0.07,0.21,0.12c0.06,0.05,0.09,0.14,0.16,0.18c0.1,0.07,0.12,0.05,0.22,0.12
	c0.1,0.07,0.08,0.11,0.18,0.18c0.1,0.07,0.12,0.04,0.23,0.12c0.1,0.07,0.11,0.06,0.21,0.14c0.1,0.07,0.08,0.1,0.18,0.18
	c0.1,0.07,0.09,0.09,0.19,0.17c0.1,0.07,0.1,0.07,0.2,0.15c0.1,0.08,0.11,0.07,0.21,0.14s0.13,0.04,0.22,0.12
	c0.07,0.07,0.16,0.15,0.25,0.15c0.1,0,0.22-0.04,0.29-0.11c0.09-0.09,0.08-0.1,0.16-0.19c0.09-0.09,0.08-0.1,0.17-0.19
	c0.09-0.09,0.07-0.11,0.15-0.2c0.09-0.09,0.14-0.04,0.22-0.13c0.09-0.09,0.09-0.09,0.18-0.18c0.09-0.09,0.09-0.09,0.18-0.18
	c0.09-0.09,0.08-0.1,0.17-0.19c0.06-0.06,0.11-0.13,0.17-0.19C7,12.53,7.05,12.49,7.1,12.42c0.05,0.07,0.13,0.09,0.18,0.16
	c0.05,0.06,0.06,0.17,0.12,0.23c0.09,0.09,0.12,0.06,0.21,0.15c0.09,0.09,0.09,0.08,0.18,0.17c0.09,0.09,0.1,0.08,0.19,0.17
	c0.09,0.09,0.06,0.12,0.15,0.21c0.09,0.09,0.1,0.08,0.19,0.17c0.09,0.09,0.09,0.09,0.18,0.18c0.09,0.09,0.11,0.07,0.2,0.16
	c0.07,0.07,0.15,0.1,0.25,0.09c0.09,0,0.17-0.04,0.24-0.11c0.1-0.08,0.13-0.04,0.23-0.12c0.1-0.07,0.11-0.07,0.21-0.14
	c0.1-0.07,0.07-0.11,0.17-0.19c0.1-0.07,0.12-0.06,0.22-0.13c0.1-0.07,0.09-0.08,0.19-0.16c0.1-0.07,0.12-0.05,0.22-0.12
	c0.1-0.07,0.09-0.09,0.19-0.17c0.1-0.08,0.1-0.08,0.2-0.15s0.1-0.07,0.21-0.15c0.06-0.05,0.13-0.08,0.2-0.13
	c0.06-0.05,0.1-0.13,0.16-0.18c0.06-0.05,0.12-0.1,0.18-0.16c0.06-0.05,0.11-0.11,0.17-0.16c0.06-0.05,0.12-0.1,0.18-0.16
	c0.06-0.06,0.1-0.12,0.16-0.18c0.05-0.06,0.15-0.08,0.2-0.13c0.05-0.06,0.1-0.12,0.15-0.18c0.05-0.06,0.08-0.13,0.13-0.2
	C12.61,11.15,12.66,11.09,12.71,11.03z"/>
</svg>
