<?xml version="1.0" encoding="utf-8"?>
<!-- Generator: Adobe Illustrator 27.0.0, SVG Export Plug-In . SVG Version: 6.00 Build 0)  -->
<svg version="1.1" id="Livello_1" xmlns="http://www.w3.org/2000/svg" xmlns:xlink="http://www.w3.org/1999/xlink" x="0px" y="0px"
	 viewBox="0 0 14.17 14.17" style="enable-background:new 0 0 14.17 14.17;" xml:space="preserve">
<path d="M12.73,0.01c-0.12,0-0.12,0.03-0.24,0.03c-0.12,0-0.12,0-0.24,0c-0.12,0-0.12-0.03-0.24-0.03c-0.12,0-0.12,0-0.24,0
	c-0.12,0-0.12,0-0.24,0c-0.12,0-0.12,0.03-0.24,0.03c-0.12,0-0.12-0.01-0.24-0.01c-0.12,0-0.12,0.01-0.24,0.01
	C10.69,0.05,10.69,0,10.57,0c-0.12,0-0.12,0.03-0.24,0.03c-0.12,0-0.12,0-0.24,0c-0.12,0-0.12,0.02-0.24,0.02
	c-0.12,0-0.12,0.02-0.24,0.02c-0.12,0-0.12-0.04-0.24-0.04c-0.12,0-0.12,0.03-0.24,0.03c-0.12,0-0.12-0.03-0.24-0.03
	c-0.12,0-0.12-0.01-0.24-0.01c-0.12,0-0.12,0.03-0.24,0.03c-0.12,0-0.12-0.03-0.24-0.03c-0.12,0-0.12,0.01-0.24,0.01
	c-0.12,0-0.12,0.02-0.24,0.02C7.58,0.03,7.58,0,7.46,0C7.34,0,7.34,0.07,7.22,0.07c-0.12,0-0.12-0.02-0.24-0.02
	c-0.12,0-0.12,0-0.24,0C6.62,0.04,6.62,0,6.5,0C6.38,0,6.38,0.04,6.26,0.04c-0.12,0-0.12-0.03-0.24-0.03
	c-0.12,0-0.12,0.04-0.24,0.04c-0.12,0-0.12-0.02-0.24-0.02c-0.12,0-0.12,0.03-0.24,0.03c-0.12,0-0.12-0.01-0.24-0.01
	C4.93,0.04,4.93,0,4.81,0C4.69,0,4.69,0,4.57,0C4.45,0,4.45,0.07,4.33,0.07c-0.12,0-0.12-0.05-0.24-0.05C3.97,0.02,3.97,0,3.85,0
	C3.73,0,3.73,0.02,3.61,0.02c-0.12,0-0.12,0-0.24,0c-0.12,0-0.12,0.02-0.24,0.02c-0.12,0-0.12,0-0.24,0c-0.12,0-0.12-0.03-0.24-0.03
	c-0.12,0-0.12,0.03-0.24,0.03C2.29,0.05,2.29,0,2.17,0C2.05,0,2.05,0.05,1.93,0.05c-0.12,0-0.12,0-0.24,0S1.57,0.04,1.44,0.04
	c-0.08,0-0.16,0.02-0.24,0.03c-0.08,0.01-0.17,0-0.25,0.03C0.88,0.13,0.81,0.18,0.74,0.22C0.67,0.26,0.59,0.3,0.53,0.35
	C0.47,0.41,0.4,0.46,0.34,0.52c-0.05,0.06-0.06,0.16-0.1,0.23C0.2,0.82,0.13,0.88,0.1,0.96C0.08,1.03,0.04,1.11,0.03,1.19
	C0.01,1.27,0.06,1.36,0.06,1.44c0,0.12-0.04,0.12-0.04,0.24c0,0.12,0.04,0.12,0.04,0.24c0,0.12-0.03,0.12-0.03,0.24
	c0,0.12,0,0.12,0,0.24c0,0.12-0.02,0.12-0.02,0.24c0,0.12,0.01,0.12,0.01,0.24C0.02,3,0,3,0,3.12c0,0.12,0.03,0.12,0.03,0.24
	c0,0.12,0.03,0.12,0.03,0.24c0,0.12-0.05,0.12-0.05,0.24c0,0.12,0.03,0.12,0.03,0.24c0,0.12,0.02,0.12,0.02,0.24
	c0,0.12-0.06,0.12-0.06,0.24c0,0.12,0.04,0.12,0.04,0.24c0,0.12-0.03,0.12-0.03,0.24c0,0.12,0.02,0.12,0.02,0.24
	c0,0.12,0,0.12,0,0.24c0,0.12,0.03,0.12,0.03,0.24c0,0.12-0.05,0.12-0.05,0.24c0,0.12,0.01,0.12,0.01,0.24C0.02,6.36,0,6.36,0,6.48
	C0,6.6,0.02,6.6,0.02,6.72c0,0.12,0.03,0.12,0.03,0.24c0,0.12,0,0.12,0,0.24c0,0.12-0.03,0.12-0.03,0.24c0,0.12,0.01,0.12,0.01,0.24
	c0,0.12,0.01,0.12,0.01,0.24c0,0.12-0.02,0.12-0.02,0.24c0,0.12,0.06,0.12,0.06,0.24c0,0.12-0.04,0.12-0.04,0.24
	c0,0.12,0,0.12,0,0.24c0,0.12,0,0.12,0,0.24c0,0.12-0.01,0.12-0.01,0.24c0,0.12,0.04,0.12,0.04,0.24c0,0.12-0.02,0.12-0.02,0.24
	c0,0.12,0.01,0.12,0.01,0.24c0,0.12,0,0.12,0,0.24c0,0.12-0.01,0.12-0.01,0.24c0,0.12-0.03,0.12-0.03,0.24
	c0,0.12,0.04,0.12,0.04,0.24c0,0.12-0.01,0.12-0.01,0.24c0,0.12-0.02,0.12-0.02,0.24c0,0.12,0.01,0.12,0.01,0.24
	c0,0.12,0.02,0.12,0.02,0.24c0,0.12-0.03,0.12-0.03,0.24c0,0.12,0.04,0.12,0.04,0.24s-0.05,0.12-0.05,0.24
	c0,0.08,0.04,0.16,0.05,0.24c0.01,0.08,0,0.17,0.03,0.25c0.03,0.08,0.1,0.14,0.14,0.21c0.04,0.07,0.1,0.13,0.15,0.19
	c0.05,0.06,0.09,0.14,0.15,0.2c0.06,0.05,0.12,0.12,0.19,0.16c0.07,0.04,0.15,0.08,0.23,0.1c0.08,0.03,0.16,0.04,0.24,0.06
	c0.08,0.01,0.17-0.01,0.25-0.01c0.12,0,0.12,0.04,0.24,0.04c0.12,0,0.12,0,0.24,0c0.12,0,0.12-0.02,0.24-0.02
	c0.12,0,0.12-0.01,0.24-0.01c0.12,0,0.12-0.03,0.24-0.03c0.12,0,0.12,0.06,0.24,0.06c0.12,0,0.12,0,0.24,0
	c0.12,0,0.12-0.01,0.24-0.01c0.12,0,0.12-0.01,0.24-0.01c0.12,0,0.12-0.01,0.24-0.01c0.12,0,0.12,0.02,0.24,0.02
	c0.12,0,0.12-0.05,0.24-0.05c0.12,0,0.12,0.07,0.24,0.07c0.12,0,0.12-0.04,0.24-0.04c0.12,0,0.12-0.01,0.24-0.01
	c0.12,0,0.12-0.01,0.24-0.01c0.12,0,0.12,0.05,0.24,0.05c0.12,0,0.12-0.02,0.24-0.02c0.12,0,0.12,0,0.24,0
	c0.12,0,0.12-0.03,0.24-0.03c0.12,0,0.12,0,0.24,0c0.12,0,0.12-0.01,0.24-0.01c0.12,0,0.12,0.04,0.24,0.04
	c0.12,0,0.12,0.01,0.24,0.01c0.12,0,0.12-0.05,0.24-0.05c0.12,0,0.12,0.02,0.24,0.02c0.12,0,0.12-0.01,0.24-0.01
	c0.12,0,0.12,0.03,0.24,0.03c0.12,0,0.12-0.02,0.24-0.02c0.12,0,0.12,0,0.24,0c0.12,0,0.12,0,0.24,0c0.12,0,0.12,0.01,0.24,0.01
	c0.12,0,0.12-0.04,0.24-0.04c0.12,0,0.12,0,0.24,0c0.12,0,0.12,0,0.24,0c0.12,0,0.12,0.01,0.24,0.01c0.12,0,0.12-0.01,0.24-0.01
	c0.12,0,0.12,0.06,0.24,0.06c0.12,0,0.12-0.01,0.24-0.01c0.12,0,0.12-0.02,0.24-0.02c0.12,0,0.12,0.01,0.24,0.01
	c0.12,0,0.12-0.02,0.24-0.02c0.12,0,0.12,0.04,0.24,0.04c0.12,0,0.12-0.02,0.24-0.02c0.12,0,0.12,0,0.24,0
	c0.12,0,0.12-0.03,0.24-0.03s0.12-0.01,0.24-0.01c0.08,0,0.17,0.02,0.25,0.01c0.08-0.01,0.17-0.03,0.24-0.05
	c0.08-0.03,0.14-0.1,0.21-0.14c0.07-0.04,0.16-0.05,0.23-0.11c0.06-0.05,0.13-0.11,0.18-0.17c0.05-0.06,0.06-0.16,0.1-0.23
	c0.04-0.07,0.09-0.14,0.12-0.21c0.03-0.08,0.03-0.16,0.04-0.24c0.01-0.08,0.04-0.16,0.04-0.24c0-0.12,0.02-0.12,0.02-0.24
	c0-0.12-0.03-0.12-0.03-0.24c0-0.12,0.01-0.12,0.01-0.24c0-0.12,0.02-0.12,0.02-0.24c0-0.12-0.03-0.12-0.03-0.24
	c0-0.12-0.01-0.12-0.01-0.24c0-0.12,0.03-0.12,0.03-0.24c0-0.12-0.02-0.12-0.02-0.24c0-0.12-0.01-0.12-0.01-0.24
	c0-0.12,0-0.12,0-0.24c0-0.12-0.01-0.12-0.01-0.24c0-0.12,0.01-0.12,0.01-0.24c0-0.12,0.05-0.12,0.05-0.24
	c0-0.12-0.06-0.12-0.06-0.24c0-0.12,0.03-0.12,0.03-0.24c0-0.12,0-0.12,0-0.24c0-0.12,0.04-0.12,0.04-0.24
	c0-0.12-0.04-0.12-0.04-0.24c0-0.12-0.02-0.12-0.02-0.24c0-0.12,0.05-0.12,0.05-0.24c0-0.12-0.01-0.12-0.01-0.24
	c0-0.12,0.01-0.12,0.01-0.24c0-0.12-0.03-0.12-0.03-0.24c0-0.12-0.01-0.12-0.01-0.24c0-0.12,0-0.12,0-0.24
	c0-0.12-0.01-0.12-0.01-0.24c0-0.12-0.01-0.12-0.01-0.24c0-0.12,0.02-0.12,0.02-0.24c0-0.12,0.03-0.12,0.03-0.24
	c0-0.12-0.03-0.12-0.03-0.24c0-0.12-0.02-0.12-0.02-0.24c0-0.12,0.01-0.12,0.01-0.24c0-0.12,0.04-0.12,0.04-0.24
	c0-0.12-0.01-0.12-0.01-0.24c0-0.12-0.05-0.12-0.05-0.24c0-0.12,0.01-0.12,0.01-0.24c0-0.12,0.03-0.12,0.03-0.24
	c0-0.12-0.02-0.12-0.02-0.24c0-0.12,0.01-0.12,0.01-0.24c0-0.12,0.01-0.12,0.01-0.24c0-0.12-0.02-0.12-0.02-0.24
	c0-0.12,0.01-0.12,0.01-0.24c0-0.12,0-0.12,0-0.24c0-0.12-0.04-0.12-0.04-0.24c0-0.12,0.04-0.12,0.04-0.24
	c0-0.12,0.02-0.12,0.02-0.24s-0.05-0.12-0.05-0.24c0-0.08,0.05-0.17,0.04-0.25c-0.01-0.08-0.05-0.16-0.08-0.24
	c-0.03-0.08-0.11-0.13-0.15-0.2c-0.04-0.07-0.08-0.14-0.13-0.2c-0.05-0.06-0.1-0.13-0.16-0.18c-0.06-0.05-0.11-0.13-0.18-0.18
	c-0.07-0.04-0.15-0.07-0.23-0.1c-0.08-0.03-0.17-0.02-0.25-0.03C12.89,0.04,12.81,0.01,12.73,0.01z M9.71,8.05
	C9.63,8.07,9.56,8.11,9.49,8.1C9.42,8.09,9.34,8.08,9.28,8.05C9.21,8.02,9.16,7.96,9.11,7.91c-0.06-0.05-0.1-0.1-0.14-0.16
	C8.93,7.69,8.9,7.63,8.89,7.55C8.87,7.48,8.83,7.42,8.83,7.34c0.01-0.1,0.01-0.1,0.02-0.2s0-0.1,0-0.2
	c0.01-0.08,0.07-0.15,0.11-0.22C9.01,6.65,9.04,6.58,9.1,6.53c0.06-0.05,0.14-0.08,0.22-0.1c0,0,0-0.02,0-0.02
	c0.08-0.02,0.14-0.07,0.21-0.1C9.6,6.27,9.69,6.26,9.76,6.22c0.07-0.04,0.11-0.11,0.17-0.17C9.98,6,10.05,5.97,10.09,5.91
	c0.04-0.06,0.09-0.12,0.12-0.18c0.03-0.06,0.03-0.15,0.05-0.21c0.02-0.07,0.07-0.13,0.08-0.21c0.01-0.07,0-0.15,0-0.22
	c0-0.08-0.03-0.16-0.05-0.23c-0.02-0.08-0.02-0.16-0.05-0.23c-0.03-0.07-0.13-0.11-0.17-0.17c-0.04-0.06-0.08-0.14-0.13-0.19
	C9.88,4.2,9.82,4.15,9.76,4.11C9.69,4.06,9.64,3.99,9.57,3.96C9.5,3.92,9.41,3.93,9.33,3.91C9.26,3.89,9.18,3.85,9.1,3.84
	c-0.08,0-0.15,0.04-0.22,0.05C8.8,3.9,8.73,3.9,8.66,3.92C8.59,3.94,8.53,4,8.46,4.03C8.39,4.07,8.33,4.1,8.27,4.14
	C8.21,4.19,8.12,4.2,8.07,4.26c-0.05,0.05-0.1,0.12-0.14,0.18C7.89,4.5,7.91,4.6,7.88,4.67c-0.03,0.07-0.1,0.12-0.12,0.2
	C7.75,4.93,7.72,5,7.72,5.08c0,0.07,0.01,0.14,0.02,0.22c0.01,0.13,0.01,0.13,0.03,0.26C7.78,5.68,7.8,5.68,7.82,5.81
	c0.01,0.13,0.01,0.13,0.03,0.26c0.01,0.13-0.01,0.13,0,0.26c0.01,0.12,0.05,0.12,0.06,0.24C7.92,6.7,7.87,6.7,7.89,6.82
	C7.9,6.95,7.94,6.94,7.96,7.07c0.01,0.12,0.01,0.12,0.03,0.25C8,7.44,7.99,7.44,8,7.56c0.01,0.12,0.03,0.12,0.04,0.25
	c0.01,0.12-0.02,0.13-0.01,0.25c0.01,0.11,0.03,0.11,0.04,0.22c0.01,0.11,0,0.11,0.01,0.22c0.01,0.11,0,0.11,0.01,0.22
	c0.01,0.08,0.06,0.16,0.07,0.24c0,0.08-0.04,0.17-0.04,0.25c0,0.08-0.02,0.16-0.03,0.24C8.08,9.55,8.11,9.64,8.09,9.72
	c-0.02,0.08-0.08,0.14-0.1,0.21C7.97,10,7.98,10.09,7.95,10.16c-0.03,0.07-0.09,0.13-0.12,0.2c-0.03,0.07-0.07,0.14-0.11,0.2
	c-0.04,0.07-0.1,0.12-0.14,0.18c-0.05,0.06-0.08,0.13-0.13,0.19C7.4,11,7.33,11.04,7.27,11.09c-0.05,0.06-0.09,0.13-0.15,0.18
	c-0.06,0.05-0.1,0.13-0.16,0.17c-0.06,0.05-0.16,0.05-0.22,0.09c-0.07,0.04-0.12,0.11-0.18,0.14c-0.07,0.04-0.13,0.09-0.2,0.12
	c-0.07,0.03-0.16,0-0.24,0.03c-0.07,0.03-0.13,0.09-0.21,0.11c-0.07,0.02-0.16,0.01-0.23,0.02c-0.08,0.01-0.15,0.04-0.23,0.05
	c-0.08,0.01-0.15,0.01-0.23,0.01c-0.08,0-0.16,0.03-0.23,0.02c-0.08,0-0.16-0.07-0.24-0.08c-0.08-0.01-0.16-0.02-0.24-0.03
	c-0.08-0.02-0.15-0.06-0.23-0.08c-0.08-0.02-0.16-0.04-0.23-0.07c-0.08-0.03-0.16-0.04-0.23-0.08c-0.07-0.04-0.14-0.08-0.21-0.12
	c-0.07-0.04-0.12-0.12-0.18-0.16c-0.07-0.05-0.13-0.09-0.2-0.14c-0.06-0.05-0.13-0.1-0.18-0.16c-0.06-0.06-0.1-0.13-0.15-0.19
	c-0.05-0.06-0.15-0.09-0.2-0.15c-0.05-0.07-0.06-0.16-0.1-0.22c-0.04-0.07-0.08-0.14-0.12-0.21c-0.04-0.07-0.07-0.15-0.1-0.22
	C2.35,10.05,2.33,9.97,2.3,9.89C2.28,9.82,2.21,9.75,2.2,9.67C2.18,9.59,2.18,9.51,2.17,9.43C2.16,9.35,2.14,9.26,2.14,9.18
	c0-0.08-0.01-0.16-0.01-0.23c0-0.08,0.02-0.16,0.02-0.23C2.16,8.64,2.2,8.57,2.22,8.49c0.01-0.08-0.01-0.16,0.01-0.23
	c0.02-0.08,0.05-0.15,0.08-0.22c0.03-0.07,0.07-0.14,0.1-0.21C2.44,7.76,2.46,7.68,2.5,7.61C2.53,7.54,2.56,7.47,2.6,7.4
	c0.04-0.07,0.11-0.11,0.16-0.17c0.05-0.06,0.06-0.15,0.12-0.21c0.05-0.06,0.14-0.08,0.2-0.13c0.06-0.05,0.09-0.13,0.15-0.18
	C3.28,6.66,3.36,6.64,3.43,6.6C3.49,6.55,3.53,6.48,3.6,6.44C3.67,6.4,3.73,6.35,3.8,6.32c0.07-0.03,0.15-0.04,0.23-0.06
	C4.1,6.22,4.17,6.22,4.25,6.19c0.07-0.02,0.15-0.05,0.22-0.06l0-0.01C4.54,6.1,4.61,6.07,4.68,6.07c0.07,0.01,0.13,0.06,0.2,0.09
	c0.07,0.03,0.12,0.06,0.18,0.11c0.06,0.05,0.12,0.09,0.15,0.15c0.04,0.06,0.08,0.12,0.1,0.2c0.02,0.07,0.06,0.15,0.05,0.22
	c-0.01,0.1-0.07,0.1-0.08,0.2s-0.01,0.1-0.02,0.21C5.27,7.33,5.25,7.4,5.21,7.47C5.17,7.54,5.13,7.61,5.07,7.66
	C5,7.7,4.93,7.75,4.85,7.77c0,0-0.01-0.02-0.01-0.02C4.77,7.77,4.72,7.85,4.65,7.88C4.58,7.91,4.48,7.88,4.42,7.92
	c-0.06,0.04-0.1,0.12-0.15,0.17c-0.05,0.05-0.1,0.11-0.14,0.17c-0.04,0.06-0.07,0.13-0.11,0.2c-0.03,0.07-0.1,0.12-0.13,0.19
	C3.87,8.72,3.87,8.8,3.86,8.88C3.85,8.95,3.84,9.03,3.85,9.1c0,0.08,0.05,0.15,0.06,0.23c0.02,0.08,0.05,0.15,0.08,0.22
	c0.03,0.07,0.08,0.13,0.12,0.2c0.04,0.06,0.06,0.15,0.12,0.21C4.28,10,4.34,10.06,4.4,10.11c0.06,0.04,0.16,0.04,0.23,0.07
	c0.07,0.03,0.13,0.08,0.21,0.1c0.08,0.02,0.15,0.02,0.23,0.02c0.08,0,0.15,0.03,0.23,0.02c0.08-0.01,0.15-0.05,0.22-0.07
	c0.07-0.02,0.14-0.05,0.21-0.09c0.07-0.03,0.13-0.07,0.19-0.11c0.06-0.04,0.13-0.08,0.18-0.14c0.05-0.05,0.07-0.13,0.11-0.2
	c0.04-0.06,0.07-0.13,0.1-0.2c0.03-0.07,0.05-0.13,0.07-0.21C6.38,9.25,6.4,9.19,6.4,9.11c0-0.07-0.01-0.13-0.02-0.21
	C6.37,8.77,6.43,8.77,6.42,8.64C6.4,8.51,6.4,8.51,6.38,8.38C6.37,8.25,6.35,8.25,6.34,8.12S6.33,7.99,6.32,7.86
	C6.3,7.74,6.29,7.74,6.27,7.62C6.26,7.49,6.3,7.49,6.29,7.36C6.28,7.24,6.26,7.24,6.25,7.12C6.23,6.99,6.23,6.99,6.22,6.87
	C6.21,6.75,6.18,6.75,6.17,6.62C6.15,6.5,6.15,6.5,6.13,6.38C6.12,6.25,6.15,6.25,6.14,6.13c-0.01-0.11,0-0.11-0.01-0.22
	C6.11,5.79,6.07,5.79,6.06,5.68C6.05,5.57,6.09,5.57,6.08,5.45c-0.01-0.08,0-0.16-0.01-0.25c0-0.08-0.05-0.17-0.05-0.25
	c0-0.08,0.03-0.17,0.04-0.25c0.01-0.08,0-0.17,0.02-0.25C6.1,4.39,6.14,4.31,6.16,4.24c0.02-0.08,0.07-0.14,0.1-0.22
	C6.29,3.95,6.3,3.86,6.33,3.79c0.04-0.07,0.08-0.14,0.12-0.21C6.5,3.52,6.56,3.46,6.61,3.4c0.05-0.06,0.08-0.14,0.13-0.2
	c0.05-0.06,0.1-0.12,0.16-0.18c0.05-0.05,0.13-0.09,0.19-0.14c0.06-0.05,0.1-0.12,0.16-0.16C7.3,2.67,7.36,2.63,7.43,2.59
	c0.06-0.04,0.13-0.08,0.2-0.11c0.07-0.04,0.13-0.08,0.2-0.11C7.9,2.33,7.98,2.32,8.05,2.29c0.07-0.02,0.16,0,0.23-0.02
	c0.07-0.02,0.14-0.09,0.21-0.11c0.07-0.01,0.15,0,0.23-0.01C8.8,2.15,8.88,2.15,8.95,2.14c0.08,0,0.15,0.04,0.23,0.04
	c0.08,0,0.16-0.03,0.24-0.02C9.51,2.19,9.59,2.18,9.67,2.2c0.08,0.02,0.14,0.09,0.22,0.11c0.08,0.02,0.15,0.05,0.23,0.08
	c0.08,0.03,0.14,0.07,0.22,0.11c0.07,0.04,0.15,0.05,0.22,0.09c0.07,0.04,0.14,0.08,0.21,0.12c0.07,0.05,0.13,0.1,0.19,0.15
	c0.06,0.05,0.13,0.1,0.18,0.16c0.06,0.06,0.12,0.11,0.18,0.17c0.05,0.06,0.09,0.14,0.14,0.2c0.05,0.07,0.06,0.15,0.11,0.22
	c0.04,0.07,0.11,0.13,0.14,0.2c0.04,0.07,0.09,0.14,0.12,0.21c0.03,0.07,0.05,0.16,0.07,0.24c0.02,0.08,0,0.17,0.02,0.25
	c0.02,0.08,0.04,0.15,0.05,0.24c0.01,0.08,0.07,0.16,0.08,0.24c0,0.08-0.01,0.16-0.01,0.23c0,0.08-0.04,0.15-0.05,0.23
	C11.99,5.53,12,5.61,11.99,5.69c-0.01,0.08-0.04,0.15-0.06,0.22c-0.02,0.08-0.05,0.15-0.08,0.22c-0.03,0.07-0.04,0.15-0.07,0.22
	c-0.03,0.07-0.08,0.14-0.11,0.2c-0.04,0.07-0.08,0.13-0.12,0.2c-0.04,0.07-0.05,0.15-0.1,0.21c-0.05,0.06-0.13,0.1-0.18,0.16
	c-0.05,0.06-0.12,0.1-0.17,0.16c-0.06,0.05-0.08,0.14-0.14,0.19c-0.06,0.05-0.16,0.05-0.22,0.1c-0.06,0.04-0.12,0.1-0.19,0.14
	c-0.07,0.04-0.11,0.13-0.18,0.16c-0.07,0.03-0.15,0.06-0.22,0.09c-0.07,0.03-0.15,0.04-0.22,0.07C9.86,8.04,9.78,8.03,9.71,8.05z"/>
</svg>
