<?xml version="1.0" encoding="utf-8"?>
<!-- Generator: Adobe Illustrator 27.0.0, SVG Export Plug-In . SVG Version: 6.00 Build 0)  -->
<svg version="1.1" id="Livello_1" xmlns="http://www.w3.org/2000/svg" xmlns:xlink="http://www.w3.org/1999/xlink" x="0px" y="0px"
	 viewBox="0 0 14.17 14.17" style="enable-background:new 0 0 14.17 14.17;" xml:space="preserve">
<style type="text/css">
	.st0{fill:#9C9100;}
</style>
<path class="st0" d="M13.35,4.3c-0.04-0.07-0.06-0.15-0.1-0.21c-0.04-0.07-0.11-0.11-0.16-0.17c-0.05-0.06-0.13-0.09-0.18-0.14
	c-0.06-0.05-0.09-0.12-0.15-0.17c-0.06-0.05-0.14-0.07-0.2-0.12c-0.06-0.05-0.1-0.11-0.16-0.16c-0.06-0.05-0.09-0.13-0.15-0.18
	c-0.05-0.05-0.13-0.08-0.18-0.14c-0.05-0.05-0.12-0.09-0.17-0.16c-0.05-0.06-0.11-0.12-0.17-0.18c-0.05-0.06-0.11-0.11-0.17-0.17
	c-0.06-0.06-0.1-0.12-0.16-0.18c-0.06-0.05-0.13-0.09-0.2-0.14c-0.06-0.05-0.11-0.11-0.18-0.16c-0.06-0.05-0.11-0.13-0.17-0.18
	c-0.06-0.05-0.14-0.09-0.2-0.13c-0.07-0.05-0.12-0.11-0.19-0.16c-0.07-0.04-0.15-0.07-0.22-0.11c-0.07-0.04-0.14-0.07-0.22-0.11
	C9.95,1.29,9.87,1.28,9.8,1.24C9.72,1.2,9.65,1.17,9.58,1.14C9.51,1.1,9.44,1.06,9.36,1.02C9.29,0.99,9.21,0.99,9.13,0.96
	c-0.08-0.03-0.14-0.1-0.21-0.12C8.84,0.81,8.75,0.81,8.68,0.79C8.6,0.77,8.52,0.75,8.44,0.73C8.36,0.71,8.28,0.69,8.21,0.68
	C8.13,0.66,8.05,0.62,7.97,0.61C7.89,0.6,7.81,0.57,7.73,0.57c-0.08-0.01-0.16,0-0.24,0c-0.08,0-0.16,0.02-0.24,0.02
	c-0.08,0-0.16,0-0.24,0.01C6.92,0.6,6.84,0.62,6.76,0.62c-0.09,0-0.17-0.03-0.24-0.04c-0.09-0.01-0.17,0-0.24-0.02
	C6.2,0.54,6.12,0.52,6.05,0.49C5.97,0.45,5.93,0.36,5.87,0.32C5.8,0.27,5.72,0.25,5.66,0.21c-0.07-0.04-0.14-0.07-0.22-0.1
	C5.37,0.08,5.29,0.09,5.2,0.08C5.13,0.06,5.06,0,4.97,0C4.9,0,4.82,0.01,4.73,0.02C4.66,0.03,4.59,0.09,4.51,0.11
	C4.43,0.12,4.36,0.14,4.27,0.16c-0.08,0.02-0.17,0.03-0.2,0.1C4.04,0.32,4.04,0.4,4.03,0.48C4.01,0.55,3.99,0.63,3.98,0.7
	C3.96,0.77,3.99,0.86,3.96,0.93C3.93,1,3.87,1.06,3.82,1.12C3.77,1.17,3.68,1.21,3.58,1.23C3.5,1.25,3.42,1.27,3.33,1.29
	C3.25,1.3,3.15,1.26,3.07,1.28C2.98,1.29,2.9,1.33,2.83,1.36C2.75,1.39,2.68,1.42,2.62,1.45c-0.07,0.04-0.15,0.08-0.2,0.12
	C2.36,1.63,2.3,1.69,2.26,1.75C2.21,1.81,2.21,1.9,2.19,1.97C2.16,2.04,2.15,2.12,2.12,2.19C2.1,2.27,2.07,2.34,2.05,2.41
	C2.03,2.48,2.02,2.56,1.99,2.64c-0.03,0.07-0.1,0.12-0.14,0.19C1.81,2.9,1.81,2.99,1.77,3.06C1.74,3.14,1.69,3.2,1.65,3.28
	C1.62,3.35,1.56,3.42,1.53,3.5C1.51,3.57,1.5,3.66,1.47,3.74C1.45,3.81,1.42,3.89,1.4,3.97C1.38,4.05,1.38,4.13,1.36,4.21
	C1.34,4.29,1.32,4.37,1.3,4.45C1.28,4.53,1.27,4.61,1.26,4.69C1.24,4.77,1.2,4.85,1.19,4.93c-0.01,0.08,0,0.17-0.01,0.25
	C1.16,5.26,1.15,5.34,1.14,5.42C1.12,5.5,1.11,5.58,1.09,5.66C1.06,5.74,1.02,5.81,0.99,5.89C0.95,5.96,0.92,6.03,0.88,6.11
	C0.84,6.18,0.79,6.25,0.76,6.32C0.72,6.4,0.72,6.49,0.68,6.56C0.65,6.64,0.59,6.7,0.56,6.77C0.52,6.85,0.49,6.92,0.45,7
	C0.41,7.07,0.35,7.13,0.31,7.2S0.26,7.36,0.23,7.44S0.18,7.59,0.14,7.67C0.1,7.76,0.02,7.81,0.01,7.88
	C-0.02,7.98,0.04,8.04,0.08,8.1C0.12,8.15,0.17,8.2,0.26,8.23C0.33,8.25,0.42,8.25,0.5,8.28c0.07,0.03,0.14,0.09,0.2,0.15
	C0.71,8.46,0.69,8.56,0.7,8.68c0.01,0.07,0.03,0.15,0.03,0.24C0.74,9,0.76,9.09,0.77,9.17c0.01,0.08,0.04,0.16,0.05,0.24
	c0.01,0.08,0,0.17,0,0.25c0.01,0.08,0.03,0.16,0.04,0.25c0.01,0.08,0.03,0.17,0.04,0.25c0.01,0.09-0.01,0.17-0.01,0.25
	c0.01,0.09-0.01,0.18,0,0.25c0.02,0.11,0.08,0.18,0.1,0.23c0.03,0.07,0.03,0.17,0.09,0.23c0.05,0.05,0.13,0.08,0.21,0.13
	c0.06,0.04,0.14,0.08,0.21,0.11c0.07,0.03,0.14,0.09,0.21,0.11c0.07,0.02,0.16,0.03,0.23,0.05c0.08,0.02,0.15,0.05,0.23,0.06
	c0.08,0.02,0.16,0,0.24,0.01c0.08,0.01,0.16,0.05,0.24,0.05c0.08,0.01,0.16-0.01,0.24-0.01c0.08,0,0.16,0,0.24-0.01
	c0.04,0.05,0.1,0.1,0.14,0.19c0.03,0.06,0.04,0.15,0.07,0.23c0.03,0.07,0.08,0.13,0.11,0.21c0.02,0.07,0.03,0.15,0.05,0.23
	c0.02,0.08,0.06,0.15,0.08,0.23c0.02,0.08,0.01,0.16,0.02,0.24c0.01,0.08,0.02,0.16,0.03,0.24c0.01,0.08,0.02,0.16,0.02,0.24
	c0,0.08,0,0.16,0,0.24c0,0.08-0.04,0.16-0.05,0.23c-0.01,0.08,0.01,0.17-0.01,0.25c0.11,0.04,0.12,0,0.24,0
	c0.12,0,0.12-0.02,0.24-0.02c0.12,0,0.12,0.05,0.24,0.05c0.12,0,0.12-0.07,0.24-0.07c0.12,0,0.12,0.03,0.24,0.03
	c0.12,0,0.12-0.02,0.24-0.02c0.12,0,0.12,0,0.24,0c0.12,0,0.12,0.05,0.24,0.05c0.12,0,0.12-0.04,0.24-0.04
	c0.12,0,0.12-0.01,0.24-0.01c0.12,0,0.12,0.02,0.24,0.02c0.12,0,0.12,0,0.24,0c0.12,0,0.12-0.01,0.24-0.01
	c0.12,0,0.12,0.01,0.24,0.01c0.12,0,0.12,0.02,0.24,0.02c0.12,0,0.12,0.01,0.24,0.01c0.12,0,0.12-0.01,0.24-0.01
	c0.12,0,0.12,0.01,0.24,0.01c0.12,0,0.12,0.01,0.24,0.01c0.12,0,0.12-0.05,0.24-0.05c0.12,0,0.12,0.04,0.24,0.04
	c0.12,0,0.12,0.02,0.24,0.02c0.12,0,0.12-0.05,0.24-0.05c0.12,0,0.12-0.01,0.24-0.01c0.12,0,0.12,0.02,0.24,0.02
	c0.12,0,0.12-0.01,0.24-0.01s0.13,0.06,0.25,0.03c-0.04-0.06-0.09-0.14-0.13-0.22c-0.04-0.07-0.05-0.15-0.08-0.23
	c-0.04-0.07-0.09-0.13-0.12-0.2c-0.03-0.07-0.11-0.12-0.14-0.2c-0.03-0.07,0-0.17-0.03-0.24c-0.03-0.07-0.08-0.14-0.1-0.22
	c-0.02-0.08-0.06-0.15-0.09-0.22c-0.02-0.08-0.06-0.15-0.08-0.23c-0.02-0.08-0.04-0.16-0.05-0.24C9.28,12.08,9.27,12,9.26,11.92
	c-0.01-0.08,0.02-0.16,0.02-0.24c0-0.08,0.03-0.16,0.04-0.24c0.01-0.08,0-0.16,0.02-0.24c0.02-0.08,0.01-0.17,0.04-0.24
	c0.03-0.07,0.11-0.12,0.15-0.19c0.04-0.06,0.08-0.14,0.14-0.19c0.06-0.05,0.11-0.12,0.18-0.16c0.07-0.04,0.15-0.06,0.22-0.09
	c0.07-0.03,0.15-0.04,0.23-0.06c0.07-0.02,0.15-0.04,0.23-0.05c0.08-0.01,0.16,0.01,0.24,0.01c0.08,0,0.15,0,0.24,0
	c0.08,0,0.16-0.01,0.24-0.02c0.08-0.01,0.15-0.05,0.23-0.06c0.08-0.02,0.16-0.01,0.23-0.04c0.07-0.03,0.14-0.07,0.21-0.11
	c0.07-0.04,0.13-0.09,0.19-0.14c0.06-0.05,0.13-0.08,0.19-0.14c0.06-0.05,0.08-0.14,0.14-0.2c0.06-0.06,0.13-0.09,0.19-0.15
	c0.05-0.06,0.13-0.1,0.18-0.16c0.05-0.06,0.08-0.14,0.13-0.2c0.05-0.06,0.06-0.15,0.1-0.22c0.04-0.07,0.1-0.13,0.14-0.19
	c0.04-0.07,0.11-0.12,0.15-0.18c0.06-0.06,0.1-0.12,0.15-0.18c0.05-0.06,0.11-0.12,0.16-0.18c0.05-0.07,0.09-0.13,0.13-0.2
	c0.04-0.07,0.07-0.15,0.1-0.22c0.03-0.07,0.06-0.15,0.08-0.22c0.03-0.07,0.09-0.14,0.11-0.22c0.02-0.08,0.02-0.16,0.03-0.24
	c0.02-0.08,0-0.16,0.01-0.24c0.01-0.08,0.06-0.15,0.07-0.23c0-0.08-0.04-0.16-0.04-0.24c0-0.08,0.03-0.16,0.02-0.24
	c-0.01-0.08-0.02-0.16-0.03-0.24c-0.01-0.08-0.04-0.16-0.06-0.23c-0.02-0.08-0.06-0.15-0.09-0.22c-0.03-0.08-0.07-0.14-0.11-0.21
	c-0.03-0.07-0.03-0.16-0.06-0.23c-0.04-0.07-0.07-0.14-0.12-0.21c-0.05-0.07-0.11-0.12-0.16-0.18C13.47,4.41,13.41,4.36,13.35,4.3z"
	/>
</svg>
