<?xml version="1.0" encoding="utf-8"?>
<!-- Generator: Adobe Illustrator 27.0.0, SVG Export Plug-In . SVG Version: 6.00 Build 0)  -->
<svg version="1.1" id="Livello_1" xmlns="http://www.w3.org/2000/svg" xmlns:xlink="http://www.w3.org/1999/xlink" x="0px" y="0px"
	 viewBox="0 0 14.17 14.17" style="enable-background:new 0 0 14.17 14.17;" xml:space="preserve">
<style type="text/css">
	.st0{fill:#8B0D1B;}
</style>
<path class="st0" d="M6.6,13.93c-0.09-0.08-0.1-0.07-0.18-0.16c-0.09-0.08-0.08-0.09-0.17-0.17c-0.09-0.08-0.09-0.08-0.18-0.16
	C5.99,13.36,6,13.35,5.92,13.26c-0.09-0.08-0.12-0.05-0.21-0.13c-0.09-0.08-0.09-0.08-0.18-0.16c-0.09-0.08-0.08-0.08-0.17-0.17
	c-0.09-0.08-0.08-0.09-0.16-0.17c-0.09-0.08-0.08-0.09-0.16-0.18c-0.09-0.08-0.1-0.06-0.19-0.15c-0.09-0.08-0.06-0.11-0.15-0.19
	c-0.09-0.08-0.11-0.06-0.2-0.14c-0.09-0.08-0.06-0.11-0.15-0.19c-0.09-0.08-0.09-0.08-0.18-0.16c-0.09-0.08-0.07-0.1-0.16-0.18
	c-0.09-0.08-0.11-0.06-0.19-0.14c-0.09-0.08-0.07-0.1-0.15-0.19c-0.09-0.08-0.07-0.1-0.16-0.18c-0.09-0.08-0.1-0.07-0.19-0.15
	c-0.09-0.08-0.11-0.06-0.19-0.15c-0.09-0.08-0.06-0.11-0.14-0.2c-0.09-0.08-0.09-0.08-0.17-0.17c-0.09-0.08-0.09-0.08-0.18-0.16
	c-0.09-0.08-0.07-0.1-0.16-0.18C2.38,9.84,2.35,9.88,2.26,9.8c-0.09-0.08-0.1-0.07-0.18-0.16C2.02,9.58,2.01,9.49,1.95,9.43
	C1.9,9.37,1.82,9.34,1.77,9.28C1.72,9.22,1.67,9.16,1.62,9.1c-0.05-0.06-0.1-0.12-0.14-0.18C1.43,8.86,1.38,8.8,1.33,8.73
	C1.28,8.67,1.24,8.61,1.2,8.54C1.15,8.48,1.13,8.4,1.09,8.34c-0.04-0.07-0.13-0.1-0.17-0.17C0.88,8.1,0.86,8.02,0.82,7.95
	C0.79,7.88,0.74,7.82,0.7,7.75C0.67,7.68,0.66,7.59,0.63,7.52C0.6,7.45,0.55,7.39,0.52,7.32C0.49,7.24,0.47,7.17,0.44,7.1
	C0.41,7.02,0.37,6.95,0.35,6.88C0.32,6.81,0.32,6.73,0.3,6.65C0.27,6.58,0.26,6.5,0.24,6.42C0.22,6.35,0.17,6.28,0.15,6.2
	C0.13,6.13,0.13,6.05,0.12,5.97C0.1,5.89,0.1,5.82,0.09,5.74C0.08,5.66,0.08,5.58,0.07,5.51c-0.01-0.08,0-0.16-0.01-0.23
	C0.06,5.19,0.06,5.12,0.06,5.04C0.05,4.96,0,4.88,0,4.81c0-0.12,0.02-0.12,0.02-0.24c0-0.12,0.01-0.12,0.01-0.24
	c0-0.12-0.02-0.12-0.02-0.23c0-0.12,0.01-0.12,0.01-0.24c0-0.12-0.01-0.12-0.01-0.24c0-0.12,0-0.12,0-0.24
	c0-0.12,0.02-0.12,0.02-0.24c0-0.12-0.02-0.12-0.02-0.24c0-0.12,0.01-0.12,0.01-0.24c0-0.12,0.01-0.12,0.01-0.24
	C0.03,2.33,0,2.33,0,2.21c0-0.12,0.02-0.12,0.02-0.24C0.02,1.86,0,1.86,0,1.74C0,1.62,0.03,1.62,0.03,1.5c0-0.07,0-0.15,0.02-0.22
	c0.02-0.07,0.1-0.11,0.14-0.17c0.04-0.06,0.05-0.15,0.12-0.19c0.06-0.04,0.13-0.08,0.2-0.1C0.58,0.8,0.66,0.85,0.74,0.85
	C0.85,0.84,0.85,0.82,0.97,0.8C1.08,0.78,1.08,0.77,1.2,0.76c0.12-0.02,0.12,0,0.23-0.02c0.12-0.02,0.11-0.04,0.23-0.06
	c0.12-0.02,0.12-0.02,0.23-0.04C2,0.62,2,0.62,2.12,0.6c0.12-0.02,0.11-0.02,0.23-0.04c0.12-0.02,0.11-0.03,0.23-0.05
	c0.12-0.02,0.12,0.02,0.24,0C2.93,0.5,2.93,0.5,3.05,0.49c0.12-0.02,0.11-0.04,0.23-0.06c0.12-0.02,0.12,0.01,0.24-0.01
	C3.63,0.4,3.63,0.41,3.74,0.4c0.12-0.02,0.11-0.06,0.23-0.08c0.12-0.02,0.12,0.02,0.24,0c0.12-0.02,0.12-0.02,0.23-0.03
	c0.12-0.02,0.11-0.03,0.23-0.05c0.12-0.02,0.12,0,0.23-0.02C4.98,0.2,5.06,0.18,5.14,0.17C5.22,0.16,5.3,0.12,5.38,0.11
	c0.08-0.01,0.16,0,0.24-0.01C5.71,0.1,5.79,0.06,5.87,0.06c0.08-0.01,0.16,0.01,0.25,0.01c0.08-0.01,0.16,0,0.24,0
	c0.08,0,0.16-0.02,0.24-0.02c0.08,0,0.16-0.02,0.24-0.02c0.08,0,0.16,0,0.24,0C7.17,0.02,7.25,0,7.33,0c0.08,0,0.16,0.02,0.24,0.03
	c0.08,0,0.16,0.01,0.24,0.01c0.08,0,0.16,0.02,0.24,0.02C8.14,0.07,8.22,0.1,8.3,0.1c0.08,0.01,0.16,0,0.24,0.01
	C8.63,0.12,8.71,0.09,8.79,0.1c0.08,0.01,0.16,0.02,0.24,0.03C9.11,0.15,9.2,0.16,9.28,0.17C9.39,0.19,9.38,0.23,9.5,0.25
	c0.12,0.02,0.12,0.01,0.23,0.03c0.12,0.02,0.12-0.03,0.24-0.01c0.12,0.02,0.11,0.02,0.23,0.04c0.12,0.02,0.11,0.03,0.23,0.04
	c0.12,0.02,0.12,0.01,0.23,0.03c0.12,0.02,0.12,0.01,0.23,0.03c0.12,0.02,0.11,0.03,0.23,0.05c0.12,0.02,0.11,0.03,0.23,0.05
	c0.12,0.02,0.12-0.01,0.24,0.01c0.12,0.02,0.11,0.06,0.23,0.08c0.12,0.02,0.11,0.04,0.23,0.05c0.12,0.02,0.12,0.01,0.23,0.03
	c0.12,0.02,0.12-0.02,0.24,0c0.12,0.02,0.11,0.05,0.23,0.06c0.12,0.02,0.12-0.01,0.24,0.01c0.12,0.02,0.12,0.02,0.23,0.03
	s0.11,0.07,0.23,0.08c0.07,0,0.16-0.04,0.22-0.02c0.07,0.02,0.14,0.07,0.2,0.11c0.06,0.04,0.11,0.1,0.16,0.15
	c0.04,0.06,0.09,0.12,0.12,0.19c0.02,0.07,0,0.15,0,0.22c0,0.12,0.04,0.12,0.04,0.24c0,0.12-0.03,0.12-0.03,0.24
	c0,0.12-0.01,0.12-0.01,0.23c0,0.12,0.03,0.12,0.03,0.24c0,0.12,0.01,0.12,0.01,0.24c0,0.12-0.01,0.12-0.01,0.24
	c0,0.12-0.03,0.12-0.03,0.24c0,0.12,0.01,0.12,0.01,0.24c0,0.12,0,0.12,0,0.24c0,0.12-0.01,0.12-0.01,0.24
	c0,0.12-0.01,0.12-0.01,0.24c0,0.12,0.02,0.12,0.02,0.24c0,0.12,0,0.12,0,0.24s0.03,0.12,0.03,0.24c0,0.08-0.05,0.16-0.05,0.23
	c0,0.08,0,0.16-0.01,0.23c-0.01,0.08,0.03,0.16,0.02,0.24c-0.01,0.08-0.04,0.15-0.05,0.23c-0.01,0.08-0.06,0.15-0.08,0.22
	c-0.01,0.08,0.01,0.16,0,0.24c-0.02,0.08-0.06,0.15-0.08,0.22c-0.02,0.08-0.03,0.15-0.06,0.23c-0.02,0.07,0,0.16-0.03,0.24
	c-0.02,0.07-0.08,0.14-0.11,0.21c-0.03,0.07-0.08,0.14-0.11,0.21c-0.03,0.07-0.05,0.15-0.08,0.22c-0.03,0.07-0.05,0.15-0.09,0.22
	c-0.03,0.07-0.07,0.14-0.11,0.21c-0.04,0.07-0.1,0.12-0.14,0.19c-0.04,0.07-0.05,0.15-0.09,0.22C13.08,8.42,13.04,8.5,13,8.56
	c-0.04,0.06-0.08,0.13-0.13,0.2c-0.05,0.06-0.14,0.09-0.19,0.15c-0.05,0.06-0.07,0.14-0.13,0.2c-0.05,0.06-0.1,0.12-0.15,0.18
	c-0.05,0.06-0.1,0.12-0.16,0.17c-0.05,0.06-0.14,0.08-0.19,0.14c-0.09,0.08-0.07,0.1-0.16,0.18c-0.09,0.08-0.08,0.09-0.16,0.17
	c-0.09,0.08-0.07,0.1-0.16,0.18c-0.09,0.08-0.09,0.07-0.18,0.16c-0.09,0.08-0.1,0.07-0.19,0.15c-0.09,0.08-0.07,0.1-0.16,0.18
	c-0.09,0.08-0.07,0.1-0.16,0.18c-0.09,0.08-0.1,0.07-0.19,0.15c-0.09,0.08-0.11,0.06-0.2,0.14c-0.09,0.08-0.04,0.13-0.13,0.21
	c-0.09,0.08-0.11,0.06-0.2,0.14c-0.09,0.08-0.07,0.1-0.15,0.19c-0.09,0.08-0.08,0.09-0.17,0.17c-0.09,0.08-0.1,0.07-0.18,0.16
	c-0.09,0.08-0.07,0.1-0.16,0.18c-0.09,0.08-0.11,0.06-0.19,0.15c-0.09,0.08-0.07,0.1-0.15,0.19c-0.09,0.08-0.11,0.06-0.19,0.15
	c-0.09,0.08-0.09,0.08-0.18,0.16c-0.09,0.08-0.06,0.11-0.14,0.2c-0.09,0.08-0.09,0.08-0.18,0.16c-0.09,0.08-0.08,0.09-0.17,0.17
	c-0.09,0.08-0.12,0.04-0.21,0.13c-0.09,0.08-0.09,0.08-0.17,0.17c-0.09,0.08-0.05,0.12-0.14,0.2c-0.09,0.08-0.12,0.05-0.21,0.13
	c-0.05,0.05-0.09,0.14-0.15,0.17c-0.07,0.03-0.15,0.06-0.22,0.07c-0.07,0.01-0.15-0.01-0.23-0.02c-0.07-0.01-0.15-0.02-0.22-0.05
	C6.69,14.07,6.66,13.98,6.6,13.93z"/>
</svg>
