<?xml version="1.0" encoding="utf-8"?>
<!-- Generator: Adobe Illustrator 27.0.0, SVG Export Plug-In . SVG Version: 6.00 Build 0)  -->
<svg version="1.1" id="Livello_1" xmlns="http://www.w3.org/2000/svg" xmlns:xlink="http://www.w3.org/1999/xlink" x="0px" y="0px"
	 viewBox="0 0 11.34 17.01" style="enable-background:new 0 0 11.34 17.01;" xml:space="preserve">
<style type="text/css">
	.st0{fill:#DA9F00;}
</style>
<path class="st0" d="M4.83,6.59C4.85,6.52,4.83,6.45,4.8,6.37c-0.03-0.06-0.09-0.1-0.15-0.15c-0.05-0.04-0.1-0.1-0.18-0.13
	C4.4,6.06,4.34,6.01,4.26,6C4.17,5.99,4.08,6.02,4,6.04C3.91,6.05,3.82,6.04,3.75,6.08C3.66,6.12,3.6,6.19,3.55,6.25
	C3.48,6.32,3.45,6.4,3.44,6.48C3.43,6.56,3.45,6.65,3.51,6.71c0.05,0.07,0.09,0.14,0.14,0.2C3.71,6.97,3.79,7,3.85,7.04
	c0.07,0.04,0.14,0.08,0.22,0.09c0.09,0.01,0.17,0.01,0.25-0.01c0.08-0.03,0.14-0.09,0.2-0.15c0.06-0.05,0.15-0.09,0.2-0.16
	C4.77,6.75,4.79,6.66,4.83,6.59z M10.33,7.59c-0.02-0.08-0.03-0.16-0.06-0.24c-0.02-0.08,0-0.17-0.02-0.25
	c-0.02-0.08-0.07-0.15-0.09-0.23c-0.02-0.08-0.06-0.15-0.08-0.23c-0.02-0.08-0.03-0.16-0.05-0.24c-0.02-0.08-0.03-0.16-0.05-0.24
	C9.97,6.07,9.94,5.99,9.92,5.91C9.9,5.83,9.82,5.77,9.8,5.69c-0.02-0.08,0-0.17-0.02-0.25C9.76,5.35,9.73,5.28,9.71,5.2
	C9.69,5.11,9.7,5.03,9.68,4.95C9.66,4.87,9.59,4.8,9.57,4.72C9.55,4.63,9.54,4.55,9.53,4.48c-0.02-0.12-0.05-0.2-0.04-0.25
	C9.49,4.16,9.5,4.07,9.53,3.97c0.02-0.08,0.07-0.16,0.1-0.24C9.65,3.65,9.67,3.57,9.7,3.49C9.72,3.4,9.79,3.33,9.8,3.25
	c0.03-0.11,0.01-0.21,0-0.26C9.79,2.96,9.76,2.87,9.72,2.76c-0.03-0.07-0.06-0.15-0.1-0.23C9.59,2.45,9.54,2.38,9.5,2.3
	C9.47,2.22,9.47,2.12,9.42,2.05c-0.04-0.07-0.1-0.14-0.15-0.21C9.22,1.77,9.15,1.72,9.09,1.66C9.03,1.59,9,1.5,8.93,1.46
	C8.85,1.42,8.76,1.42,8.67,1.42c-0.08,0-0.16,0.04-0.24,0.06C8.36,1.5,8.27,1.5,8.19,1.53c-0.08,0.03-0.15,0.06-0.23,0.1
	c-0.07,0.04-0.13,0.1-0.2,0.14C7.69,1.82,7.62,1.85,7.56,1.9c-0.07,0.05-0.15,0.09-0.2,0.14c-0.08,0.07-0.17,0.11-0.2,0.15
	C7.11,2.24,7.08,2.34,7.04,2.43C7,2.51,7,2.61,6.97,2.69C6.94,2.78,6.88,2.86,6.86,2.94c-0.04,0.12-0.07,0.2-0.08,0.24
	C6.64,3.23,6.65,3.24,6.51,3.28S6.38,3.32,6.24,3.33c-0.1,0.01-0.1,0.02-0.2,0.01c-0.1-0.01-0.1,0-0.2-0.01
	c-0.11,0-0.2-0.01-0.27-0.02C5.48,3.31,5.41,3.26,5.31,3.23C5.24,3.22,5.16,3.19,5.05,3.17C4.93,3.14,4.92,3.2,4.8,3.18
	S4.68,3.15,4.56,3.12C4.53,3.09,4.47,3.03,4.42,2.93C4.39,2.86,4.34,2.79,4.31,2.71C4.28,2.64,4.27,2.56,4.23,2.48
	C4.2,2.41,4.19,2.32,4.15,2.25c-0.04-0.08-0.1-0.13-0.14-0.2C3.96,1.98,3.89,1.93,3.84,1.88C3.79,1.83,3.77,1.74,3.71,1.7
	C3.65,1.65,3.58,1.62,3.52,1.58C3.45,1.54,3.39,1.5,3.32,1.47C3.25,1.44,3.16,1.46,3.09,1.44C3.02,1.42,2.94,1.42,2.87,1.42
	c-0.08,0-0.15,0-0.21,0.02C2.6,1.46,2.53,1.48,2.45,1.53C2.39,1.57,2.31,1.59,2.24,1.65c-0.06,0.05-0.1,0.13-0.16,0.18
	C2.03,1.88,1.96,1.92,1.9,1.98C1.85,2.03,1.81,2.11,1.76,2.17c-0.05,0.06-0.1,0.12-0.14,0.19C1.58,2.43,1.5,2.47,1.47,2.54
	c-0.03,0.08,0,0.16,0,0.24c0,0.08-0.01,0.16-0.01,0.24c0.01,0.08-0.01,0.16,0,0.25C1.47,3.35,1.5,3.43,1.51,3.51
	C1.52,3.6,1.55,3.68,1.57,3.75C1.59,3.84,1.58,3.93,1.6,4c0.03,0.14,0.06,0.11,0.07,0.23c0.01,0.12,0.02,0.1,0,0.25
	C1.67,4.56,1.66,4.64,1.65,4.73C1.64,4.81,1.58,4.89,1.57,4.98c-0.01,0.08,0,0.17-0.01,0.25C1.55,5.31,1.54,5.39,1.52,5.48
	C1.51,5.56,1.48,5.64,1.46,5.72C1.45,5.8,1.45,5.89,1.44,5.97C1.42,6.05,1.41,6.13,1.39,6.21C1.37,6.3,1.35,6.38,1.33,6.46
	C1.3,6.54,1.3,6.63,1.28,6.7C1.25,6.79,1.22,6.87,1.19,6.94C1.15,7.03,1.08,7.1,1.05,7.19c-0.03,0.07-0.08,0.14-0.1,0.22
	c-0.02,0.08,0,0.16,0,0.24c0,0.08,0,0.16,0.02,0.24c0.01,0.08,0.07,0.14,0.1,0.21c0.03,0.07,0.01,0.17,0.05,0.24
	C1.16,8.4,1.23,8.45,1.28,8.51C1.34,8.56,1.4,8.63,1.46,8.67C1.53,8.71,1.59,8.76,1.66,8.8c0.07,0.04,0.15,0.05,0.22,0.09
	C1.94,8.94,2,9,2.06,9.04c0.07,0.04,0.13,0.09,0.19,0.13c0.07,0.04,0.16,0.05,0.22,0.09C2.55,9.31,2.6,9.38,2.66,9.42
	c0.07,0.04,0.16,0.05,0.22,0.09c0.07,0.05,0.12,0.12,0.18,0.15c0.09,0.05,0.16,0.09,0.21,0.11C3.32,9.8,3.39,9.84,3.46,9.92
	c0.04,0.06,0.06,0.14,0.11,0.22c0.04,0.06,0.12,0.12,0.16,0.19c0.04,0.07,0.07,0.15,0.12,0.22c0.04,0.07,0.09,0.14,0.13,0.21
	c0.04,0.07,0.06,0.16,0.1,0.23c0.05,0.08,0.13,0.12,0.17,0.18c0.06,0.1,0.09,0.19,0.13,0.21c0.04,0.03,0.1,0.09,0.18,0.14
	c0.06,0.04,0.15,0.04,0.22,0.08c0.06,0.04,0.11,0.12,0.18,0.15c0.07,0.03,0.15,0.04,0.22,0.06c0.08,0.02,0.15,0.05,0.23,0.05
	c0.12,0,0.12-0.03,0.24-0.03c0.12,0,0.12,0.03,0.24,0.03S6,11.84,6.12,11.84c0.08,0,0.16,0.03,0.24,0.02
	c0.07-0.02,0.12-0.1,0.19-0.14c0.07-0.04,0.16-0.04,0.22-0.09c0.05-0.05,0.08-0.14,0.12-0.2c0.04-0.07,0.1-0.13,0.14-0.2
	c0.04-0.07,0.1-0.13,0.14-0.21c0.04-0.07,0.04-0.17,0.08-0.24c0.04-0.07,0.12-0.12,0.16-0.19c0.04-0.07,0.09-0.14,0.13-0.21
	c0.04-0.07,0.07-0.16,0.11-0.23c0.04-0.07,0.1-0.14,0.14-0.21c0.04-0.08,0.03-0.18,0.07-0.25C7.88,9.64,7.98,9.6,8.07,9.54
	C8.13,9.5,8.2,9.46,8.29,9.41C8.35,9.37,8.42,9.33,8.5,9.29c0.07-0.04,0.15-0.07,0.23-0.11c0.07-0.04,0.13-0.12,0.2-0.16
	c0.08-0.04,0.16-0.06,0.24-0.09c0.08-0.04,0.16-0.06,0.24-0.09C9.49,8.8,9.56,8.76,9.64,8.73C9.72,8.69,9.8,8.67,9.87,8.63
	c0.08-0.03,0.15-0.08,0.21-0.13c0.06-0.05,0.1-0.13,0.15-0.2c0.05-0.07,0.07-0.15,0.09-0.23c0.02-0.08,0.05-0.16,0.05-0.24
	C10.38,7.75,10.36,7.67,10.33,7.59z M4.22,9.21C4.18,9.1,4.2,9.1,4.16,8.99C4.12,8.88,4.07,8.9,4.03,8.79
	C3.99,8.68,4.05,8.66,4.01,8.55c-0.04-0.11-0.09-0.09-0.13-0.2C3.84,8.24,3.84,8.24,3.8,8.13c-0.04-0.11,0-0.12-0.04-0.23
	C3.72,7.79,3.71,7.79,3.67,7.68C3.63,7.57,3.64,7.57,3.59,7.46C3.53,7.35,3.54,7.38,3.43,7.27c-0.05-0.05-0.14-0.09-0.2-0.16
	C3.18,7.05,3.12,6.99,3.07,6.92C3.02,6.86,2.99,6.77,2.95,6.7C2.9,6.63,2.85,6.56,2.81,6.49C2.78,6.41,2.77,6.32,2.75,6.25
	C2.73,6.16,2.71,6.08,2.72,6c0.01-0.08,0.03-0.16,0.04-0.25C2.77,5.67,2.8,5.59,2.82,5.52c0.02-0.09,0.01-0.17,0.03-0.25
	c0.02-0.09,0.08-0.16,0.1-0.23c0.04-0.15,0.1-0.13,0.06-0.25C2.97,4.67,2.94,4.72,2.83,4.62C2.78,4.58,2.71,4.53,2.65,4.47
	C2.59,4.42,2.54,4.36,2.48,4.29c-0.05-0.06-0.13-0.1-0.18-0.17C2.26,4.06,2.24,3.98,2.2,3.91C2.16,3.84,2.11,3.77,2.08,3.7
	C2.05,3.62,2.04,3.54,2.03,3.46C2.02,3.38,2.04,3.31,2.04,3.23c0-0.08,0.01-0.15,0.03-0.23c0.02-0.07,0-0.17,0.04-0.24
	c0.03-0.07,0.08-0.14,0.13-0.21c0.04-0.06,0.13-0.09,0.19-0.16C2.51,2.32,2.49,2.32,2.62,2.3c0.06-0.01,0.14-0.01,0.22-0.01
	c0.07,0,0.14,0.01,0.21,0.03c0.07,0.01,0.14,0.03,0.2,0.06c0.06,0.03,0.12,0.07,0.18,0.12c0.06,0.06,0.1,0.12,0.14,0.18
	c0.05,0.07,0.12,0.11,0.15,0.18c0.03,0.07-0.01,0.17,0.01,0.23c0.02,0.08,0.06,0.15,0.09,0.21c0.03,0.08,0.07,0.13,0.14,0.16
	C4.11,3.46,4.1,3.44,4.25,3.4c0.1-0.03,0.2-0.07,0.27-0.11c0.13,0,0.13,0.05,0.26,0.07S4.95,3.3,5.04,3.4
	c0.08,0.09-0.02,0.11-0.01,0.23c0,0.12,0.02,0.12,0.03,0.24C5.06,4,5.08,4,5.08,4.12c0,0.12-0.04,0.12-0.04,0.24
	c0,0.12,0.02,0.12,0.02,0.24c0,0.12,0.03,0.12,0.03,0.24c0,0.12-0.01,0.12,0,0.24c0,0.12,0.01,0.12,0.02,0.24
	c0,0.12-0.01,0.12-0.01,0.24c0,0.12,0.04,0.12,0.05,0.24c0,0.12-0.02,0.12-0.02,0.24c0,0.12,0.02,0.12,0.03,0.24
	c0,0.12,0,0.12,0,0.24c0,0.12,0.01,0.12,0.01,0.24c0,0.12-0.02,0.12-0.02,0.24c0,0.12,0.01,0.12,0.01,0.24c0,0.12-0.01,0.12,0,0.24
	c0,0.12,0,0.12,0.01,0.24c0,0.12,0.01,0.12,0.01,0.24c0,0.12-0.01,0.12-0.01,0.24c0,0.12,0.03,0.12,0.03,0.24S5.19,8.61,5.19,8.74
	c0,0.07-0.03,0.13-0.09,0.17C5.01,8.98,5.03,8.99,4.93,9.06C4.84,9.13,4.84,9.13,4.75,9.2C4.66,9.26,4.64,9.23,4.54,9.3
	C4.48,9.34,4.43,9.35,4.37,9.33C4.31,9.31,4.25,9.28,4.22,9.21z M6.52,10.52c-0.1,0.07-0.16,0.14-0.24,0.23
	c-0.05,0.05-0.04,0.15-0.07,0.21c-0.04,0.06-0.12,0.09-0.17,0.14c-0.05,0.04-0.09,0.08-0.18,0.1c-0.08,0.02-0.16,0.03-0.23,0.01
	c-0.08-0.03-0.14-0.09-0.2-0.15c-0.06-0.06-0.13-0.11-0.18-0.18c-0.05-0.06-0.07-0.15-0.12-0.2c-0.05-0.06-0.14-0.07-0.21-0.11
	c-0.08-0.05-0.16-0.08-0.24-0.13C4.6,10.38,4.51,10.3,4.5,10.21c-0.01-0.09,0.06-0.19,0.12-0.26C4.66,9.92,4.7,9.85,4.75,9.8
	C4.8,9.75,4.88,9.73,4.93,9.69c0.07-0.05,0.11-0.13,0.15-0.14c0.03-0.01,0.07-0.02,0.1-0.03c0.1-0.01,0.2,0.01,0.29,0.01
	c0.1,0,0.19,0.04,0.29,0.05c0.09,0.01,0.19-0.03,0.28-0.02c0.09,0.02,0.17,0.07,0.26,0.1C6.38,9.71,6.48,9.73,6.54,9.8
	c0.07,0.06,0.1,0.16,0.13,0.25c0.03,0.09,0.05,0.19,0.02,0.28C6.68,10.41,6.59,10.46,6.52,10.52z M9.15,3.89
	c0,0.05-0.03,0.12-0.09,0.2C9.02,4.14,8.98,4.21,8.92,4.27C8.87,4.32,8.81,4.36,8.75,4.41C8.69,4.46,8.62,4.49,8.56,4.54
	C8.5,4.59,8.46,4.66,8.4,4.71C8.34,4.76,8.25,4.78,8.2,4.82C8.09,4.9,8.06,4.86,8.02,4.97C7.99,5.08,8.06,5.06,8.09,5.2
	c0.02,0.07,0.03,0.15,0.05,0.23C8.15,5.5,8.16,5.58,8.18,5.66c0.02,0.08,0.06,0.15,0.07,0.23c0.01,0.08,0.02,0.16,0.03,0.23
	c0.01,0.08,0.01,0.17,0.02,0.23C8.3,6.46,8.32,6.55,8.31,6.59C8.3,6.62,8.23,6.69,8.19,6.81C8.17,6.87,8.15,6.96,8.11,7.04
	C8.09,7.11,8.06,7.19,8.02,7.27C8,7.34,7.97,7.42,7.94,7.5C7.91,7.57,7.9,7.66,7.87,7.74C7.84,7.81,7.83,7.89,7.8,7.97
	C7.77,8.05,7.74,8.13,7.71,8.2C7.69,8.28,7.65,8.36,7.62,8.43C7.59,8.51,7.56,8.59,7.53,8.66C7.5,8.74,7.49,8.83,7.47,8.9
	C7.43,8.98,7.4,9.05,7.37,9.13C7.34,9.21,7.31,9.29,7.28,9.35C7.25,9.43,7.16,9.45,7.09,9.47C7.02,9.49,6.95,9.51,6.88,9.46
	C6.81,9.41,6.75,9.33,6.68,9.27C6.6,9.21,6.49,9.19,6.42,9.14C6.34,9.08,6.26,9.01,6.2,8.97C6.13,8.92,6.14,8.81,6.14,8.72
	C6.15,8.6,6.1,8.6,6.1,8.48c0-0.12,0.04-0.12,0.04-0.24c0-0.12-0.03-0.12-0.03-0.24c0-0.12-0.01-0.12,0-0.24
	c0-0.12,0.04-0.12,0.04-0.24c0-0.12-0.02-0.12-0.02-0.24c0-0.12,0.07-0.12,0.07-0.24c0-0.12-0.04-0.12-0.04-0.24
	c0-0.12,0.05-0.12,0.05-0.24c0-0.12-0.05-0.12-0.04-0.24c0-0.12,0.04-0.12,0.04-0.24c0-0.12,0-0.12,0.01-0.24
	c0-0.12-0.03-0.12-0.02-0.24c0-0.12,0.01-0.12,0.01-0.24c0-0.12,0.04-0.12,0.04-0.24c0-0.12-0.05-0.12-0.05-0.24
	c0-0.12,0.04-0.12,0.04-0.24c0-0.12-0.02-0.12-0.02-0.24c0-0.12-0.01-0.12-0.01-0.24c0-0.12,0.03-0.12,0.03-0.24
	c0-0.12,0.04-0.12,0.04-0.24c0-0.12-0.08-0.13-0.01-0.23c0.06-0.08,0.09-0.01,0.19-0.03c0.1-0.03,0.09-0.05,0.19-0.08
	s0.09-0.08,0.19-0.09c0.05,0.04,0.13,0.1,0.21,0.13c0.09,0.03,0.18,0.01,0.23,0.02c0.06,0,0.11-0.02,0.18-0.09
	c0.04-0.05,0.06-0.13,0.11-0.2c0.04-0.07,0.08-0.13,0.11-0.19c0.04-0.09,0.13-0.14,0.15-0.18C7.86,2.73,7.9,2.66,8,2.6
	c0.06-0.04,0.12-0.12,0.22-0.14C8.3,2.44,8.39,2.47,8.49,2.46c0.08,0,0.17-0.03,0.27-0.02c0.09,0.01,0.14,0.08,0.2,0.12
	c0.06,0.05,0.13,0.09,0.16,0.16C9.15,2.79,9.19,2.86,9.2,2.95c0.01,0.08,0,0.16,0,0.24c0,0.08,0.02,0.16,0.02,0.24
	c0,0.08,0,0.17-0.01,0.24C9.2,3.76,9.16,3.83,9.15,3.89z M6.53,6.24C6.53,6.24,6.54,6.25,6.53,6.24C6.51,6.33,6.51,6.41,6.51,6.48
	c0,0.08,0,0.16,0.03,0.23c0.03,0.07,0.05,0.16,0.11,0.22C6.7,6.99,6.79,7.02,6.86,7.05C6.93,7.09,7,7.15,7.08,7.16
	c0.08,0.01,0.17-0.01,0.25-0.03C7.4,7.11,7.46,7.06,7.53,7.01c0.08-0.04,0.15-0.09,0.2-0.14C7.79,6.8,7.84,6.73,7.86,6.65
	C7.87,6.57,7.83,6.49,7.8,6.41c-0.03-0.07-0.07-0.14-0.13-0.2C7.61,6.16,7.55,6.1,7.47,6.07C7.4,6.04,7.31,6.05,7.23,6.04
	C7.15,6.04,7.06,6,6.98,6.02C6.9,6.04,6.82,6.07,6.74,6.11C6.67,6.14,6.6,6.19,6.53,6.24z M10.27,9.53
	c-0.08,0.04-0.15,0.08-0.23,0.11C9.96,9.68,9.89,9.73,9.82,9.77C9.73,9.8,9.65,9.83,9.58,9.86C9.5,9.9,9.41,9.91,9.34,9.95
	c-0.08,0.04-0.15,0.1-0.21,0.14c-0.09,0.05-0.18,0.05-0.24,0.09c-0.11,0.06-0.17,0.12-0.21,0.14c-0.03,0.06-0.06,0.13-0.09,0.19
	c-0.03,0.06-0.07,0.12-0.11,0.18c-0.03,0.06-0.08,0.12-0.12,0.18c0,0.08,0.03,0.16,0.03,0.24c0,0.08-0.01,0.16-0.01,0.23
	c0,0.08-0.01,0.16-0.01,0.23c0,0.08,0.02,0.16,0.03,0.23c0,0.09-0.04,0.17-0.04,0.23c0,0.14,0.01,0.22,0.01,0.23
	c0,0.01,0,0.1,0.01,0.24c0,0.07,0.01,0.15,0.02,0.24C8.4,12.83,8.42,12.91,8.43,13c0.01,0.08,0.03,0.16,0.04,0.24
	c0.01,0.08,0.01,0.16,0.02,0.24c0.01,0.08,0,0.16,0.01,0.24c0.01,0.08,0.01,0.16,0.02,0.24c0.01,0.08,0.03,0.16,0.04,0.24
	c0.01,0.09,0,0.17,0.01,0.24c0.01,0.09,0.01,0.17,0.01,0.24c0.01,0.15-0.05,0.13-0.03,0.25c0.02,0.1,0.06,0.09,0.08,0.2
	c0.02,0.1,0,0.11,0.02,0.21s0.03,0.1,0.09,0.18c0.1-0.01,0.16-0.04,0.25-0.07c0.07-0.03,0.16-0.01,0.23-0.04
	c0.07-0.04,0.1-0.12,0.16-0.17c0.06-0.05,0.14-0.07,0.18-0.13c0.05-0.06,0.07-0.14,0.1-0.2c0.04-0.06,0.06-0.13,0.09-0.2
	c0.06-0.14,0.09-0.13,0.14-0.26c0.06-0.14,0.03-0.15,0.09-0.29c0.02-0.06,0.1-0.1,0.12-0.16c0.02-0.06-0.02-0.14-0.01-0.2
	c0.01-0.13,0.06-0.12,0.07-0.25c0.01-0.13-0.04-0.13-0.02-0.26c0.01-0.13,0.05-0.12,0.06-0.25c0.01-0.13,0.01-0.13,0.03-0.26
	c0.01-0.13-0.01-0.13,0-0.26c0.01-0.11,0.01-0.11,0.02-0.23c0.01-0.12,0.04-0.11,0.05-0.23c0.01-0.12-0.04-0.12-0.04-0.23
	c0.01-0.12,0.04-0.11,0.05-0.23c0.01-0.12-0.02-0.12-0.01-0.23c0.01-0.12-0.01-0.12,0-0.23c0.01-0.12,0.03-0.11,0.04-0.23
	c0.01-0.12,0.05-0.11,0.05-0.23c0.01-0.12,0-0.12,0-0.23c0-0.12,0.01-0.12,0.01-0.24c0-0.12-0.03-0.12-0.03-0.24
	c0-0.12-0.03-0.12-0.03-0.24c0-0.12,0.05-0.12,0.03-0.24C10.35,9.5,10.31,9.51,10.27,9.53z M7.73,14.76
	c-0.01-0.07-0.02-0.15-0.03-0.24c-0.01-0.08-0.03-0.16-0.04-0.24c-0.01-0.08,0.01-0.16,0-0.24c-0.01-0.08,0.01-0.17,0.01-0.24
	c-0.01-0.1-0.04-0.18-0.04-0.24c0-0.02,0.04-0.11,0.04-0.25c0-0.07-0.01-0.16-0.01-0.25c0-0.08-0.01-0.16-0.01-0.25
	c0-0.08,0.01-0.17,0.01-0.25c0-0.08,0.01-0.17,0.02-0.25c0-0.08-0.02-0.16-0.02-0.24c-0.04,0.06-0.08,0.11-0.13,0.17
	c-0.05,0.06-0.11,0.1-0.17,0.15c-0.06,0.05-0.1,0.11-0.17,0.16c-0.06,0.04-0.15,0.05-0.21,0.08c-0.07,0.04-0.13,0.07-0.2,0.1
	c-0.07,0.03-0.14,0.04-0.21,0.06c-0.07,0.02-0.14,0.03-0.22,0.04c-0.07,0.01-0.15,0.03-0.22,0.03C6,12.85,6,12.87,5.88,12.87
	c-0.12,0-0.12,0-0.24,0s-0.12-0.01-0.24-0.01c-0.08,0-0.16-0.01-0.24-0.02C5.08,12.84,5,12.84,4.92,12.82
	c-0.08-0.02-0.15-0.05-0.23-0.08c-0.08-0.03-0.15-0.06-0.22-0.1c-0.07-0.04-0.12-0.12-0.19-0.15c-0.07-0.04-0.16-0.05-0.22-0.1
	c-0.08-0.05-0.12-0.12-0.18-0.16c-0.02-0.02-0.07,0.01-0.09,0c-0.06-0.04-0.12-0.1-0.17-0.15c-0.05-0.05-0.06-0.14-0.1-0.21
	c-0.04-0.06-0.12-0.09-0.17-0.16c-0.04-0.06-0.07-0.14-0.11-0.21c-0.03,0.12,0.03,0.13,0.03,0.25c0,0.13,0.01,0.13,0.01,0.25
	c0,0.13-0.03,0.13-0.03,0.25c0,0.13,0.03,0.13,0.03,0.25c0,0.13-0.06,0.13-0.06,0.25c0,0.13,0.05,0.13,0.05,0.25
	s-0.05,0.13-0.05,0.25c0,0.12,0.05,0.12,0.05,0.25c0,0.12-0.03,0.12-0.03,0.25c0,0.12,0,0.12,0,0.25c0,0.12,0.03,0.12,0.03,0.25
	c0,0.12,0,0.12,0,0.25c0,0.12-0.02,0.12-0.03,0.25C3.22,14.87,3.26,14.88,3.24,15c-0.02,0.12-0.06,0.12-0.08,0.24
	c-0.02,0.12-0.03,0.12-0.02,0.25c0.06,0.02,0.12,0.01,0.19,0.02c0.07,0.01,0.13,0.04,0.2,0.04c0.12,0,0.12,0.04,0.24,0.04
	c0.12,0,0.12-0.01,0.24-0.01c0.12,0,0.12,0.01,0.24,0.01c0.12,0,0.12-0.03,0.24-0.03c0.12,0,0.12-0.03,0.24-0.03
	c0.12,0,0.12,0.03,0.24,0.03c0.12,0,0.12-0.03,0.24-0.03c0.12,0,0.12,0.02,0.24,0.02c0.12,0,0.12-0.03,0.24-0.03
	c0.12,0,0.12,0.01,0.24,0.01c0.12,0,0.12,0.05,0.24,0.05c0.12,0,0.12,0,0.24,0c0.12,0,0.12-0.04,0.24-0.04
	c0.12,0,0.12,0.04,0.24,0.04c0.12,0,0.12-0.04,0.24-0.04c0.12,0,0.12,0.04,0.24,0.04c0.12,0,0.12-0.03,0.24-0.03
	c0.12,0,0.15,0.08,0.23-0.01c0.08-0.1-0.01-0.11-0.03-0.23c-0.02-0.09-0.06-0.18-0.07-0.27C7.72,14.95,7.73,14.85,7.73,14.76z
	 M0.94,9.49C0.9,9.61,0.95,9.61,0.95,9.74c0,0.12,0.02,0.12,0.02,0.25c0,0.12-0.02,0.12-0.02,0.25c0,0.12-0.03,0.12-0.03,0.25
	c0,0.12,0.03,0.12,0.03,0.25c0,0.12-0.04,0.12-0.04,0.25c0,0.12,0.02,0.12,0.02,0.25c0,0.12,0.02,0.12,0.02,0.25
	c0,0.12,0,0.12,0,0.25c0,0.12-0.01,0.12-0.01,0.25c0,0.12,0.03,0.12,0.03,0.25c0,0.12-0.02,0.12-0.01,0.25
	c0.01,0.13,0,0.13,0.02,0.25c0.02,0.13,0.04,0.12,0.05,0.25c0.02,0.13-0.02,0.13-0.01,0.26c0.02,0.13,0.03,0.13,0.04,0.25
	c0.02,0.13,0.01,0.13,0.03,0.25c0.02,0.12,0.05,0.23,0.1,0.34c0.04,0.09,0.05,0.09,0.09,0.18c0.04,0.09,0.06,0.09,0.1,0.18
	c0.04,0.09,0.04,0.09,0.08,0.19c0.03,0.08,0.07,0.16,0.12,0.23c0.05,0.07,0.11,0.14,0.17,0.2c0.06,0.06,0.15,0.1,0.22,0.14
	c0.07,0.05,0.15,0.09,0.23,0.12c0.02,0.01,0.01,0.05,0.02,0.03c0.05-0.09,0.07-0.09,0.1-0.19c0.03-0.1,0-0.11,0.02-0.22
	c0.03-0.1,0.06-0.1,0.09-0.2c0.02-0.07-0.01-0.16,0-0.24c0.01-0.08,0.02-0.15,0.02-0.23c0-0.07,0.05-0.15,0.05-0.25
	c0-0.08-0.05-0.16-0.05-0.25c0-0.08,0.03-0.16,0.03-0.25c0-0.08-0.04-0.16-0.04-0.25c0-0.08-0.01-0.16-0.01-0.25
	c0-0.08,0.03-0.17,0.03-0.25c0-0.08-0.03-0.17-0.03-0.25c0-0.08,0.06-0.17,0.06-0.25c0-0.09-0.05-0.17-0.05-0.25
	c0-0.09,0.05-0.17,0.05-0.25c0-0.09-0.05-0.18-0.05-0.25c0-0.14,0.03-0.23,0.04-0.24c0-0.02,0.01-0.14,0.01-0.28
	c0-0.09-0.03-0.18-0.03-0.27c0-0.1,0-0.19,0-0.27c-0.06-0.03-0.1-0.1-0.17-0.14c-0.06-0.04-0.15-0.03-0.22-0.07
	c-0.06-0.04-0.1-0.1-0.17-0.15c-0.06-0.04-0.14-0.06-0.2-0.1C1.64,9.96,1.57,9.93,1.5,9.89c-0.06-0.04-0.11-0.1-0.18-0.14
	C1.27,9.7,1.22,9.63,1.16,9.59C1.09,9.55,1.01,9.53,0.94,9.49z"/>
</svg>
