<?xml version="1.0" encoding="utf-8"?>
<!-- Generator: Adobe Illustrator 27.0.0, SVG Export Plug-In . SVG Version: 6.00 Build 0)  -->
<svg version="1.1" id="Livello_1" xmlns="http://www.w3.org/2000/svg" xmlns:xlink="http://www.w3.org/1999/xlink" x="0px" y="0px"
	 viewBox="0 0 11.34 17.01" style="enable-background:new 0 0 11.34 17.01;" xml:space="preserve">
<style type="text/css">
	.st0{fill:#499331;}
</style>
<path class="st0" d="M8.33,13.15c-0.11-0.04-0.05-0.09-0.11-0.19c-0.06-0.1-0.06-0.1-0.13-0.19c-0.06-0.1-0.08-0.09-0.14-0.19
	c-0.06-0.1-0.08-0.09-0.14-0.18c-0.06-0.1-0.07-0.1-0.13-0.19c-0.06-0.1-0.06-0.1-0.12-0.2c-0.06-0.1-0.06-0.1-0.12-0.2
	c-0.06-0.1-0.08-0.09-0.14-0.18c-0.06-0.1-0.06-0.1-0.12-0.2c-0.06-0.1-0.06-0.1-0.12-0.2c-0.06-0.1-0.02-0.12-0.09-0.22
	c-0.06-0.1-0.09-0.08-0.16-0.18s-0.07-0.09-0.1-0.21c0.08-0.01,0.13-0.05,0.21-0.07C7,10.54,7.08,10.53,7.15,10.5
	c0.08-0.02,0.17,0,0.24-0.02c0.07-0.03,0.13-0.1,0.2-0.14c0.07-0.03,0.16-0.04,0.22-0.08c0.07-0.04,0.12-0.11,0.18-0.15
	c0.06-0.04,0.12-0.1,0.18-0.15c0.06-0.05,0.14-0.07,0.2-0.12c0.06-0.05,0.1-0.13,0.15-0.18c0.06-0.06,0.15-0.07,0.21-0.13
	c0.05-0.06,0.07-0.15,0.12-0.21c0.05-0.06,0.14-0.09,0.18-0.15c0.05-0.06,0.06-0.15,0.1-0.22c0.05-0.06,0.12-0.11,0.16-0.17
	c0.04-0.07,0.09-0.13,0.13-0.2c0.04-0.07,0.06-0.15,0.1-0.21C9.56,8.31,9.6,8.24,9.63,8.16c0.03-0.07,0.08-0.14,0.1-0.22
	C9.75,7.87,9.71,7.78,9.73,7.7c0.01-0.08,0.05-0.15,0.06-0.23C9.79,7.38,9.77,7.3,9.77,7.22c0-0.08-0.01-0.16-0.02-0.24
	c0-0.08,0.02-0.16,0.01-0.24C9.75,6.66,9.78,6.58,9.77,6.5C9.76,6.42,9.74,6.34,9.73,6.26C9.72,6.18,9.72,6.1,9.71,6.02
	C9.69,5.94,9.65,5.86,9.64,5.79C9.62,5.71,9.57,5.64,9.55,5.56c-0.02-0.08,0-0.16-0.02-0.24C9.51,5.24,9.46,5.17,9.44,5.09
	C9.42,5.01,9.42,4.93,9.4,4.85C9.38,4.77,9.34,4.7,9.31,4.63C9.29,4.55,9.28,4.47,9.25,4.39c-0.02-0.08,0-0.17-0.02-0.25
	C9.21,4.07,9.18,3.99,9.16,3.92C9.13,3.83,9.07,3.77,9.05,3.7C9.02,3.61,9.03,3.53,9,3.46C8.95,3.32,8.84,3.35,8.89,3.24
	C8.94,3.14,9,3.18,9.07,3.09C9.14,3,9.12,2.98,9.19,2.89C9.27,2.8,9.25,2.79,9.33,2.7C9.4,2.61,9.42,2.63,9.49,2.54
	c0.07-0.09,0.06-0.1,0.13-0.19c0.07-0.09,0.06-0.1,0.14-0.19c0.07-0.09,0.11-0.06,0.19-0.15c0.07-0.09,0.08-0.09,0.15-0.18
	c0.07-0.09,0.02-0.13,0.1-0.22s0.15-0.04,0.19-0.15c0.04-0.11-0.11-0.02-0.26,0c-0.07,0.01-0.15,0.04-0.24,0.05
	C9.81,1.53,9.73,1.53,9.64,1.55C9.57,1.56,9.49,1.59,9.41,1.61C9.33,1.62,9.25,1.6,9.16,1.62c-0.08,0.01-0.15,0.08-0.23,0.1
	C8.86,1.73,8.78,1.73,8.7,1.75C8.62,1.76,8.54,1.79,8.46,1.81C8.38,1.82,8.3,1.83,8.22,1.85C8.14,1.87,8.07,1.91,7.99,1.93
	C7.91,1.95,7.83,1.94,7.75,1.96C7.67,1.98,7.6,2.04,7.52,2.06C7.45,2.09,7.37,2.11,7.3,2.14C7.22,2.16,7.13,2.16,7.06,2.19
	C6.98,2.22,6.89,2.22,6.82,2.26C6.74,2.29,6.69,2.37,6.62,2.4C6.55,2.44,6.47,2.46,6.4,2.5C6.34,2.55,6.3,2.62,6.24,2.68
	C6.18,2.73,6.11,2.77,6.06,2.83c-0.05,0.06-0.09,0.13-0.14,0.2C5.87,3.09,5.81,3.15,5.76,3.21c-0.04,0.07-0.1,0.13-0.14,0.2
	C5.59,3.48,5.59,3.57,5.56,3.65C5.52,3.72,5.43,3.76,5.4,3.84C5.36,3.91,5.38,4,5.35,4.08C5.32,4.15,5.29,4.22,5.26,4.3
	C5.23,4.37,5.17,4.43,5.14,4.51C5.11,4.58,5.09,4.66,5.07,4.74C5.04,4.81,5.02,4.89,5,4.97C4.97,5.04,4.92,5.11,4.9,5.19
	C4.88,5.27,4.88,5.36,4.86,5.44C4.78,5.46,4.7,5.5,4.63,5.53C4.55,5.56,4.47,5.57,4.4,5.6C4.32,5.64,4.25,5.69,4.18,5.73
	C4.11,5.77,4.03,5.8,3.97,5.84C3.9,5.89,3.84,5.95,3.78,6C3.72,6.06,3.65,6.11,3.6,6.16C3.54,6.22,3.47,6.27,3.42,6.33
	C3.36,6.39,3.33,6.47,3.28,6.54C3.23,6.6,3.15,6.65,3.11,6.71C3.06,6.78,3.03,6.86,2.99,6.93C2.95,7,2.89,7.06,2.85,7.13
	C2.81,7.2,2.78,7.28,2.74,7.35C2.7,7.43,2.67,7.5,2.63,7.57C2.6,7.65,2.6,7.74,2.57,7.81C2.54,7.89,2.5,7.96,2.47,8.03
	C2.44,8.12,2.43,8.2,2.41,8.27C2.39,8.36,2.36,8.44,2.34,8.5C2.3,8.65,2.17,8.77,2.29,8.77c0.12,0,0.12-0.05,0.23-0.1
	c0.11-0.04,0.1-0.09,0.21-0.13C2.85,8.5,2.85,8.5,2.96,8.46C3.08,8.42,3.09,8.45,3.2,8.41c0.11-0.04,0.1-0.07,0.22-0.11
	c0.11-0.04,0.12-0.03,0.23-0.07c0.11-0.04,0.12-0.03,0.23-0.08C4,8.1,3.99,8.09,4.11,8.05c0.11-0.04,0.1-0.09,0.23-0.09
	C4.32,8.04,4.3,8.13,4.29,8.21C4.27,8.3,4.31,8.39,4.3,8.47C4.28,8.56,4.21,8.63,4.2,8.71c-0.01,0.1,0.01,0.18,0,0.26
	C4.18,9.13,4.27,9.13,4.19,9.22c-0.08,0.09-0.1,0.06-0.2,0.13C3.89,9.42,3.9,9.43,3.8,9.5C3.71,9.56,3.7,9.55,3.6,9.62
	C3.51,9.68,3.51,9.69,3.42,9.76c-0.09,0.07-0.1,0.06-0.2,0.13c-0.09,0.07-0.08,0.09-0.18,0.15c-0.09,0.07-0.08,0.09-0.17,0.16
	c-0.09,0.07-0.12,0.03-0.22,0.1c-0.09,0.07-0.09,0.08-0.18,0.15c-0.09,0.07-0.08,0.09-0.18,0.16c-0.09,0.07-0.1,0.06-0.2,0.13
	c-0.09,0.07-0.09,0.08-0.18,0.15c-0.09,0.07-0.1,0.06-0.2,0.13c-0.09,0.07-0.07,0.1-0.17,0.17c-0.09,0.07-0.11,0.05-0.2,0.12
	c-0.09,0.07-0.08,0.09-0.18,0.16c-0.09,0.07-0.13,0.03-0.19,0.13C0.94,11.7,1,11.7,1,11.82c0,0.12-0.02,0.12-0.02,0.24
	c0,0.12,0.01,0.12,0.01,0.24c0,0.12-0.01,0.12-0.01,0.24c0,0.12,0,0.12,0,0.24c0,0.12,0,0.12,0,0.24s-0.11,0.19-0.01,0.25
	c0.1,0.06,0.1-0.08,0.2-0.15c0.1-0.06,0.11-0.04,0.21-0.11c0.1-0.06,0.1-0.06,0.2-0.13c0.1-0.06,0.09-0.08,0.18-0.15
	c0.1-0.06,0.1-0.07,0.19-0.13c0.1-0.06,0.12-0.03,0.21-0.1c0.1-0.06,0.09-0.07,0.19-0.13c0.1-0.06,0.08-0.1,0.17-0.16
	c0.1-0.06,0.1-0.05,0.2-0.12c0.1-0.06,0.12-0.03,0.22-0.09c0.1-0.06,0.09-0.08,0.18-0.15c0.1-0.06,0.09-0.08,0.19-0.14
	c0.1-0.06,0.11-0.05,0.2-0.11c0.1-0.06,0.11-0.05,0.21-0.11c0.1-0.06,0.1-0.06,0.2-0.13C4.03,11.32,4,11.27,4.1,11.2
	c0.1-0.06,0.12-0.03,0.22-0.09c0.1-0.06,0.07-0.12,0.19-0.13c0.16-0.02,0.16-0.01,0.3,0.07c0.1,0.06,0.08,0.07,0.13,0.17
	c0.05,0.1,0.04,0.11,0.09,0.21c0.05,0.1,0.06,0.1,0.11,0.2c0.05,0.1,0.05,0.1,0.11,0.21c0.05,0.1,0.02,0.12,0.07,0.22
	c0.05,0.1,0.06,0.1,0.11,0.21c0.05,0.1,0.02,0.12,0.07,0.22c0.05,0.1,0.08,0.09,0.13,0.19c0.05,0.1,0.05,0.1,0.1,0.21
	C5.79,13,5.79,13,5.84,13.1c0.05,0.1,0.06,0.1,0.11,0.2c0.05,0.1,0.01,0.12,0.06,0.23c0.05,0.1,0.02,0.14,0.12,0.2
	c0.1,0.06,0.11-0.03,0.22-0.05c0.11-0.01,0.19,0.11,0.25,0.01c0.06-0.11-0.07-0.13-0.11-0.24c-0.04-0.11-0.07-0.11-0.11-0.22
	c-0.04-0.11-0.02-0.12-0.06-0.24c-0.04-0.11-0.04-0.11-0.08-0.23c-0.04-0.11-0.07-0.11-0.11-0.22c-0.04-0.11-0.03-0.12-0.07-0.23
	c-0.04-0.11-0.03-0.12-0.07-0.23c-0.04-0.11-0.01-0.13-0.05-0.24c-0.04-0.11-0.06-0.11-0.1-0.22c-0.04-0.11-0.08-0.1-0.12-0.22
	c-0.04-0.12-0.02-0.12-0.06-0.24c-0.04-0.12-0.13-0.12-0.07-0.22c0.07-0.11,0.11-0.05,0.24-0.08s0.13,0,0.26-0.03
	c0.01,0,0.08,0.04,0.16,0.15c0.04,0.05,0.1,0.11,0.15,0.18c0.04,0.06,0.08,0.13,0.13,0.2c0.04,0.06,0.06,0.15,0.11,0.21
	c0.05,0.06,0.08,0.13,0.13,0.2c0.05,0.06,0.14,0.1,0.18,0.16c0.05,0.06,0.07,0.15,0.11,0.21c0.05,0.07,0.11,0.12,0.16,0.18
	c0.05,0.07,0.1,0.12,0.15,0.19c0.05,0.07,0.07,0.15,0.12,0.21c0.05,0.07,0.07,0.15,0.11,0.21c0.05,0.07,0.12,0.13,0.15,0.18
	c0.06,0.09,0.11,0.19,0.13,0.23c-0.11,0.06-0.14-0.01-0.26,0.03c-0.12,0.04-0.12,0.04-0.23,0.09s-0.11,0.05-0.23,0.07
	c-0.12,0.02-0.11,0.04-0.23,0.04c-0.12,0-0.12,0.02-0.24,0.02c-0.12,0-0.12,0-0.24,0c-0.12,0-0.12-0.01-0.24-0.01
	c-0.12,0-0.12-0.02-0.24-0.02c-0.12,0-0.12,0.04-0.24,0.04c-0.12,0-0.12-0.02-0.24-0.02c-0.12,0-0.12,0.02-0.24,0.02
	c-0.12,0-0.12,0-0.24,0c-0.12,0-0.12-0.05-0.24-0.05c-0.12,0-0.12,0.05-0.24,0.05c-0.12,0-0.12-0.03-0.23-0.01
	c-0.12,0.02-0.12,0.01-0.23,0.06c-0.11,0.04-0.11,0.06-0.22,0.1c-0.11,0.04-0.11,0.05-0.22,0.09c-0.11,0.04-0.12,0.02-0.24,0.06
	c-0.11,0.04-0.11,0.06-0.22,0.1c-0.11,0.04-0.11,0.06-0.22,0.11c-0.11,0.04-0.11,0.04-0.23,0.08c-0.11,0.04-0.13,0-0.24,0.04
	c-0.11,0.04-0.1,0.09-0.22,0.1c-0.13,0.02-0.13-0.02-0.26-0.03c-0.13-0.01-0.13-0.03-0.26-0.05c-0.13-0.01-0.13,0.01-0.26-0.01
	c-0.13-0.01-0.13-0.01-0.26-0.02c-0.13-0.01-0.16-0.11-0.26-0.03C0.89,14.28,1,14.32,1,14.43c0,0.11,0,0.11,0,0.22
	c0,0.11-0.03,0.11-0.03,0.22c0,0.11-0.03,0.11-0.03,0.22c0,0.11,0.03,0.11,0.03,0.22s-0.08,0.15,0,0.22
	c0.09,0.08,0.12-0.03,0.24-0.03c0.12,0,0.12,0.07,0.23,0.07c0.12,0,0.12-0.02,0.23-0.02c0.12,0,0.12,0.02,0.23,0.02
	c0.12,0,0.12,0.01,0.23,0.01c0.12,0,0.12-0.04,0.23-0.04c0.12,0,0.12,0.03,0.23,0.03c0.12,0,0.12,0.01,0.24,0.01
	c0.12,0,0.12-0.05,0.23-0.05c0.12,0,0.12,0.04,0.23,0.04c0.12,0,0.12-0.04,0.24-0.04c0.12,0,0.12,0.04,0.23,0.04
	c0.12,0,0.12,0,0.24,0c0.12,0,0.12-0.02,0.24-0.02c0.12,0,0.12,0.04,0.24,0.03c0.12-0.01,0.12-0.06,0.24-0.08
	c0.12-0.02,0.12-0.01,0.24-0.03c0.12-0.02,0.12-0.02,0.24-0.05c0.12-0.02,0.13,0.01,0.25-0.02c0.12-0.02,0.11-0.07,0.23-0.1
	c0.12-0.02,0.13,0,0.25-0.02c0.12-0.02,0.12-0.01,0.25-0.03c0.12-0.02,0.11-0.07,0.24-0.09c0.12-0.02,0.13,0.03,0.25,0.01
	c0.12-0.02,0.12-0.07,0.24-0.06c0.12,0,0.12,0.04,0.24,0.06c0.12,0.03,0.13,0,0.25,0.02c0.12,0.03,0.11,0.06,0.24,0.08
	c0.12,0.03,0.13,0,0.25,0.02c0.12,0.03,0.11,0.07,0.23,0.1c0.12,0.03,0.13-0.03,0.25,0c0.12,0.03,0.11,0.08,0.23,0.11
	c0.12,0.03,0.13-0.01,0.25,0.02s0.12,0.06,0.24,0.07c0.12,0.01,0.13,0.01,0.25,0.01c0.12,0,0.12-0.05,0.25-0.05
	c0.12,0,0.12,0.04,0.25,0.04c0.12,0,0.12,0.01,0.25,0.01c0.12,0,0.16,0.06,0.25-0.02c0.08-0.07,0.02-0.11,0.02-0.21
	c0-0.1,0.02-0.11-0.05-0.18c-0.08-0.08-0.09-0.04-0.2-0.04c-0.11-0.01-0.11-0.02-0.22-0.02c-0.11-0.01-0.11,0-0.22-0.01
	c-0.11-0.01-0.11-0.02-0.22-0.02c-0.11-0.01-0.11,0.04-0.23,0.04s-0.11-0.01-0.22-0.03c-0.11-0.02-0.1-0.05-0.21-0.09
	c-0.11-0.04-0.11-0.04-0.21-0.08c-0.11-0.04-0.1-0.05-0.21-0.09c-0.11-0.04-0.21,0.05-0.2-0.07c0-0.11,0.09-0.04,0.2-0.08
	c0.11-0.03,0.1-0.05,0.21-0.08c0.11-0.03,0.11-0.02,0.22-0.05c0.11-0.03,0.11-0.02,0.22-0.05c0.11-0.03,0.11-0.02,0.22-0.06
	c0.11-0.03,0.1-0.07,0.21-0.1c0.11-0.03,0.12,0,0.23-0.03c0.11-0.03,0.09-0.09,0.2-0.12c0.11-0.03,0.12-0.01,0.23-0.04
	s0.13,0.01,0.2-0.08c0.07-0.09,0.02-0.1,0.02-0.21c0-0.12,0.04-0.12,0.04-0.23c0-0.12,0.04-0.14-0.03-0.24
	c-0.07-0.1-0.12-0.06-0.23-0.11c-0.12-0.05-0.14-0.01-0.25-0.06c-0.12-0.05-0.11-0.07-0.23-0.12c-0.12-0.05-0.11-0.07-0.23-0.12
	c-0.12-0.05-0.11-0.11-0.24-0.12c-0.11-0.01-0.11,0.08-0.21,0.11c-0.11,0.04-0.11,0.02-0.22,0.06c-0.11,0.04-0.1,0.05-0.2,0.1
	C8.45,13.17,8.44,13.19,8.33,13.15z M7.64,2.86c0.02-0.04,0.07-0.1,0.14-0.16c0.05-0.05,0.11-0.1,0.17-0.14
	C8.04,2.5,8.11,2.45,8.14,2.49c0.04,0.05,0.05,0.15,0.02,0.26c-0.02,0.1-0.05,0.2-0.08,0.26C8.07,3.05,8.04,3.13,8,3.21
	c-0.03,0.07-0.06,0.14-0.1,0.2C7.86,3.51,7.78,3.6,7.73,3.59C7.69,3.57,7.64,3.46,7.62,3.35C7.6,3.27,7.59,3.18,7.59,3.1
	C7.58,2.99,7.62,2.91,7.64,2.86z"/>
</svg>
