<?xml version="1.0" encoding="utf-8"?>
<!-- Generator: Adobe Illustrator 27.0.0, SVG Export Plug-In . SVG Version: 6.00 Build 0)  -->
<svg version="1.1" id="Livello_1" xmlns="http://www.w3.org/2000/svg" xmlns:xlink="http://www.w3.org/1999/xlink" x="0px" y="0px"
	 viewBox="0 0 14.17 14.17" style="enable-background:new 0 0 14.17 14.17;" xml:space="preserve">
<path d="M12.73,0.02c-0.12,0-0.12,0.04-0.24,0.04c-0.12,0-0.12-0.03-0.24-0.03c-0.12,0-0.12-0.01-0.24-0.01
	C11.89,0.02,11.89,0,11.77,0c-0.12,0-0.12,0.05-0.24,0.05c-0.12,0-0.12-0.02-0.24-0.02c-0.12,0-0.12-0.01-0.24-0.01
	c-0.12,0-0.12,0-0.24,0c-0.12,0-0.12,0-0.24,0c-0.12,0-0.12,0.03-0.24,0.03c-0.12,0-0.12-0.01-0.24-0.01
	c-0.12,0-0.12-0.01-0.24-0.01c-0.12,0-0.12,0-0.24,0c-0.12,0-0.12,0.01-0.24,0.01c-0.12,0-0.12-0.03-0.24-0.03
	c-0.12,0-0.12,0.05-0.24,0.05c-0.12,0-0.12-0.03-0.24-0.03c-0.12,0-0.12-0.03-0.24-0.03c-0.12,0-0.12,0.02-0.24,0.02
	c-0.12,0-0.12,0.01-0.24,0.01c-0.12,0-0.12-0.01-0.24-0.01c-0.12,0-0.12-0.01-0.24-0.01c-0.12,0-0.12,0-0.24,0
	c-0.12,0-0.12,0.04-0.24,0.04c-0.12,0-0.12-0.04-0.24-0.04c-0.12,0-0.12,0.02-0.24,0.02c-0.12,0-0.12-0.02-0.24-0.02
	c-0.12,0-0.12,0.02-0.24,0.02C5.9,0.04,5.9,0,5.78,0c-0.12,0-0.12,0-0.24,0C5.42,0.01,5.42,0,5.3,0C5.18,0,5.18,0.02,5.06,0.02
	c-0.12,0-0.12,0.03-0.24,0.03c-0.12,0-0.12-0.02-0.24-0.02c-0.12,0-0.12,0.01-0.24,0.01c-0.12,0-0.12,0.03-0.24,0.03
	c-0.12,0-0.12-0.03-0.24-0.03c-0.12,0-0.12,0.01-0.24,0.01c-0.12,0-0.12-0.03-0.24-0.03c-0.12,0-0.12,0.02-0.24,0.02
	c-0.12,0-0.12,0.01-0.24,0.01c-0.12,0-0.12,0-0.24,0c-0.12,0-0.12,0.01-0.24,0.01c-0.12,0-0.12,0.02-0.24,0.02
	c-0.12,0-0.12-0.02-0.24-0.02c-0.12,0-0.12,0.01-0.24,0.01S1.56,0.04,1.44,0.04c-0.08,0-0.16,0.03-0.24,0.05
	C1.12,0.1,1.05,0.12,0.97,0.15C0.89,0.18,0.8,0.17,0.73,0.21C0.66,0.25,0.6,0.32,0.54,0.37c-0.06,0.05-0.1,0.12-0.16,0.19
	C0.33,0.62,0.26,0.66,0.22,0.74C0.18,0.81,0.16,0.89,0.14,0.97C0.11,1.04,0.07,1.12,0.06,1.2c-0.01,0.08,0,0.16,0,0.24
	c0,0.12-0.01,0.12-0.01,0.24c0,0.12,0,0.12,0,0.24c0,0.12-0.01,0.12-0.01,0.24c0,0.12,0.04,0.12,0.04,0.24
	c0,0.12-0.04,0.12-0.04,0.24c0,0.12,0.04,0.12,0.04,0.24C0.07,3,0.01,3,0.01,3.12c0,0.12,0.03,0.12,0.03,0.24
	C0.03,3.48,0,3.48,0,3.6c0,0.12,0.04,0.12,0.04,0.24c0,0.12,0,0.12,0,0.24c0,0.12,0.02,0.12,0.02,0.24c0,0.12-0.03,0.12-0.03,0.24
	c0,0.12-0.01,0.12-0.01,0.24c0,0.12-0.02,0.12-0.02,0.24c0,0.12,0.05,0.12,0.05,0.24c0,0.12-0.05,0.12-0.05,0.24
	c0,0.12,0.04,0.12,0.04,0.24c0,0.12-0.02,0.12-0.02,0.24c0,0.12,0.03,0.12,0.03,0.24c0,0.12-0.02,0.12-0.02,0.24
	c0,0.12,0.01,0.12,0.01,0.24c0,0.12-0.02,0.12-0.02,0.24c0,0.12,0.02,0.12,0.02,0.24c0,0.12,0.02,0.12,0.02,0.24
	c0,0.12-0.04,0.12-0.04,0.24c0,0.12,0.05,0.12,0.05,0.24c0,0.12-0.02,0.12-0.02,0.24C0.04,8.28,0,8.28,0,8.4
	c0,0.12,0.01,0.12,0.01,0.24c0,0.12-0.01,0.12-0.01,0.24C0.01,9,0.06,9,0.06,9.12c0,0.12,0,0.12,0,0.24c0,0.12-0.04,0.12-0.04,0.24
	c0,0.12,0.02,0.12,0.02,0.24c0,0.12-0.02,0.12-0.02,0.24c0,0.12,0.04,0.12,0.04,0.24c0,0.12-0.01,0.12-0.01,0.24
	c0,0.12,0.01,0.12,0.01,0.24c0,0.12-0.06,0.12-0.06,0.24c0,0.12,0.05,0.12,0.05,0.24c0,0.12,0.01,0.12,0.01,0.24
	c0,0.12-0.07,0.12-0.07,0.24c0,0.12,0.03,0.12,0.03,0.24c0,0.12,0.01,0.12,0.01,0.24c0,0.12-0.03,0.12-0.03,0.24
	c0,0.12-0.01,0.12-0.01,0.24c0,0.08,0.06,0.16,0.08,0.24c0.01,0.08,0.04,0.15,0.07,0.23c0.03,0.08,0.06,0.15,0.1,0.22
	c0.04,0.07,0.07,0.14,0.12,0.21c0.05,0.06,0.1,0.13,0.16,0.19c0.06,0.05,0.12,0.12,0.19,0.16c0.07,0.04,0.16,0.05,0.24,0.08
	c0.08,0.03,0.16,0.05,0.24,0.06c0.08,0.01,0.16,0.05,0.24,0.05c0.12,0,0.12-0.01,0.24-0.01c0.12,0,0.12,0.01,0.24,0.01
	c0.12,0,0.12-0.02,0.24-0.02c0.12,0,0.12-0.02,0.24-0.02c0.12,0,0.12-0.01,0.24-0.01c0.12,0,0.12,0,0.24,0
	c0.12,0,0.12,0.06,0.24,0.06c0.12,0,0.12-0.02,0.24-0.02c0.12,0,0.12-0.02,0.24-0.02c0.12,0,0.12,0.02,0.24,0.02
	c0.12,0,0.12,0.01,0.24,0.01c0.12,0,0.12,0,0.24,0c0.12,0,0.12-0.04,0.24-0.04c0.12,0,0.12,0.02,0.24,0.02
	c0.12,0,0.12-0.01,0.24-0.01c0.12,0,0.12-0.04,0.24-0.04c0.12,0,0.12,0.04,0.24,0.04c0.12,0,0.12-0.01,0.24-0.01
	c0.12,0,0.12,0.02,0.24,0.02c0.12,0,0.12-0.03,0.24-0.03c0.12,0,0.12-0.03,0.24-0.03c0.12,0,0.12,0.06,0.24,0.06
	c0.12,0,0.12,0,0.24,0c0.12,0,0.12-0.03,0.24-0.03c0.12,0,0.12-0.01,0.24-0.01c0.12,0,0.12-0.01,0.24-0.01
	c0.12,0,0.12,0.03,0.24,0.03c0.12,0,0.12,0,0.24,0c0.12,0,0.12-0.02,0.24-0.02c0.12,0,0.12-0.01,0.24-0.01
	c0.12,0,0.12,0.04,0.24,0.04c0.12,0,0.12-0.01,0.24-0.01c0.12,0,0.12,0,0.24,0c0.12,0,0.12-0.03,0.24-0.03
	c0.12,0,0.12,0.01,0.24,0.01c0.12,0,0.12,0.05,0.24,0.05c0.12,0,0.12-0.03,0.24-0.03c0.12,0,0.12,0,0.24,0
	c0.12,0,0.12-0.03,0.24-0.03c0.12,0,0.12,0.06,0.24,0.06c0.12,0,0.12-0.01,0.24-0.01c0.12,0,0.12,0,0.24,0
	c0.12,0,0.12,0.01,0.24,0.01c0.12,0,0.12-0.01,0.24-0.01c0.12,0,0.12,0,0.24,0c0.12,0,0.12-0.02,0.24-0.02s0.12,0.01,0.24,0.01
	c0.08,0,0.17-0.01,0.25-0.03c0.08-0.01,0.16-0.03,0.24-0.06c0.08-0.03,0.15-0.07,0.22-0.11c0.07-0.04,0.14-0.09,0.2-0.15
	c0.06-0.05,0.11-0.12,0.16-0.19c0.05-0.06,0.08-0.14,0.13-0.21c0.04-0.07,0.09-0.13,0.12-0.21c0.03-0.08,0.07-0.15,0.08-0.23
	c0.01-0.08,0.03-0.16,0.03-0.25c0-0.12-0.05-0.12-0.05-0.24c0-0.12,0.03-0.12,0.03-0.24c0-0.12,0.01-0.12,0.01-0.24
	c0-0.12,0.02-0.12,0.02-0.24c0-0.12,0-0.12,0-0.24c0-0.12-0.04-0.12-0.04-0.24c0-0.12-0.02-0.12-0.02-0.24
	c0-0.12,0.06-0.12,0.06-0.24c0-0.12-0.01-0.12-0.01-0.24c0-0.12-0.01-0.12-0.01-0.24c0-0.12-0.02-0.12-0.02-0.24
	c0-0.12-0.02-0.12-0.02-0.24c0-0.12,0.05-0.12,0.05-0.24c0-0.12-0.03-0.12-0.03-0.24c0-0.12-0.02-0.12-0.02-0.24
	c0-0.12,0.04-0.12,0.04-0.24c0-0.12,0-0.12,0-0.24c0-0.12,0.02-0.12,0.02-0.24c0-0.12-0.05-0.12-0.05-0.24
	c0-0.12,0.01-0.12,0.01-0.24c0-0.12,0.05-0.12,0.05-0.24c0-0.12-0.01-0.12-0.01-0.24c0-0.12-0.02-0.12-0.02-0.24
	c0-0.12-0.03-0.12-0.03-0.24c0-0.12,0.02-0.12,0.02-0.24c0-0.12-0.03-0.12-0.03-0.24c0-0.12,0.05-0.12,0.05-0.24
	c0-0.12-0.02-0.12-0.02-0.24c0-0.12,0.03-0.12,0.03-0.24c0-0.12,0.01-0.12,0.01-0.24c0-0.12-0.07-0.12-0.07-0.24
	c0-0.12,0.02-0.12,0.02-0.24c0-0.12-0.01-0.12-0.01-0.24c0-0.12,0-0.12,0-0.24c0-0.12,0.03-0.12,0.03-0.24
	c0-0.12-0.02-0.12-0.02-0.24c0-0.12-0.02-0.12-0.02-0.24c0-0.12,0.05-0.12,0.05-0.24c0-0.12,0.01-0.12,0.01-0.24
	c0-0.12-0.05-0.12-0.05-0.24c0-0.12,0.01-0.12,0.01-0.24c0-0.12,0.05-0.12,0.05-0.24c0-0.12-0.07-0.12-0.07-0.24
	c0-0.12,0.05-0.12,0.05-0.24c0-0.12-0.04-0.12-0.04-0.24c0-0.12,0.05-0.12,0.05-0.24s-0.02-0.12-0.02-0.24
	c0-0.08,0.02-0.17,0.01-0.25c-0.01-0.08-0.03-0.17-0.06-0.24c-0.03-0.08-0.07-0.15-0.11-0.22c-0.04-0.07-0.13-0.11-0.18-0.17
	c-0.05-0.06-0.1-0.13-0.16-0.18c-0.06-0.05-0.11-0.13-0.18-0.17c-0.07-0.04-0.15-0.07-0.23-0.09c-0.08-0.03-0.16-0.03-0.24-0.04
	C12.89,0.06,12.81,0.02,12.73,0.02z M8.46,7.54c-0.1,0.07-0.07,0.1-0.17,0.17c-0.1,0.07-0.12,0.04-0.21,0.11
	c-0.1,0.07-0.1,0.06-0.2,0.13C7.79,8.02,7.77,8,7.68,8.07c-0.1,0.07-0.06,0.11-0.16,0.18C7.42,8.32,7.4,8.3,7.31,8.37
	c-0.1,0.07-0.1,0.06-0.2,0.13c-0.1,0.07-0.1,0.07-0.19,0.14c-0.1,0.07-0.1,0.07-0.19,0.14c-0.1,0.07-0.08,0.09-0.18,0.16
	C6.45,9,6.44,9,6.35,9.07c-0.1,0.07-0.11,0.06-0.2,0.13c-0.1,0.07-0.09,0.07-0.19,0.14C5.85,9.4,5.86,9.41,5.76,9.48
	c-0.1,0.07-0.11,0.04-0.21,0.11C5.45,9.66,5.48,9.7,5.39,9.77c-0.1,0.07-0.11,0.04-0.21,0.11C5.08,9.95,5.06,9.93,4.97,10
	c-0.1,0.07-0.09,0.08-0.18,0.15c-0.1,0.07-0.09,0.08-0.19,0.15c-0.1,0.07-0.1,0.06-0.2,0.13c-0.1,0.07-0.1,0.06-0.2,0.13
	c-0.1,0.07-0.1,0.07-0.2,0.14c-0.1,0.07-0.07,0.1-0.17,0.17c-0.1,0.07-0.12,0.04-0.21,0.11c-0.1,0.07-0.09,0.09-0.18,0.15
	c-0.1,0.07-0.11,0.05-0.21,0.12s-0.09,0.08-0.18,0.15c-0.06,0.04-0.13,0.04-0.19,0.05c-0.07,0.02-0.13,0.03-0.19,0.02
	c-0.07-0.01-0.12-0.03-0.18-0.06c-0.06-0.03-0.12-0.05-0.17-0.1c-0.05-0.05-0.11-0.1-0.13-0.16c-0.02-0.06-0.01-0.13-0.01-0.2
	c0.05-0.11,0.05-0.11,0.11-0.22c0.06-0.11,0.03-0.12,0.09-0.23c0.06-0.11,0.08-0.09,0.14-0.2c0.06-0.11,0.05-0.11,0.11-0.22
	c0.06-0.11,0.08-0.09,0.14-0.2c0.06-0.11,0.04-0.12,0.1-0.22C2.91,9.54,2.9,9.54,2.96,9.43c0.06-0.11,0.06-0.11,0.12-0.21
	C3.14,9.11,3.13,9.1,3.19,9c0.06-0.11,0.04-0.12,0.1-0.23c0.06-0.11,0.08-0.1,0.14-0.21c0.06-0.11,0.05-0.11,0.1-0.22
	c0.06-0.11,0.08-0.1,0.13-0.21C3.72,8.03,3.7,8.02,3.76,7.91C3.82,7.8,3.82,7.8,3.88,7.69c0.06-0.11,0.1-0.09,0.16-0.2
	c0.03-0.06,0.04-0.14,0.06-0.2C4.11,7.23,4.1,7.16,4.1,7.09c0-0.07,0.02-0.14,0.01-0.21C4.09,6.81,4.04,6.75,4,6.69
	C3.95,6.58,3.96,6.58,3.9,6.47c-0.06-0.11-0.08-0.1-0.13-0.21C3.71,6.16,3.72,6.15,3.66,6.05C3.6,5.94,3.6,5.94,3.54,5.83
	C3.49,5.72,3.5,5.72,3.44,5.61C3.38,5.5,3.35,5.52,3.29,5.41C3.23,5.3,3.27,5.29,3.21,5.18c-0.06-0.11-0.09-0.09-0.15-0.2
	C3,4.87,3.05,4.85,2.99,4.74c-0.06-0.11-0.08-0.1-0.14-0.2C2.79,4.43,2.82,4.41,2.76,4.31C2.71,4.2,2.67,4.22,2.61,4.11
	C2.56,4,2.55,4,2.5,3.89c-0.06-0.11-0.07-0.1-0.13-0.21C2.3,3.58,2.33,3.57,2.27,3.46C2.21,3.35,2.2,3.35,2.16,3.24
	c0-0.07,0.03-0.13,0.05-0.19c0.02-0.07,0.02-0.15,0.07-0.2C2.32,2.8,2.41,2.8,2.47,2.76c0.06-0.03,0.11-0.09,0.18-0.1
	c0.07-0.01,0.14,0.02,0.2,0.04c0.06,0.02,0.14,0.02,0.2,0.06c0.1,0.07,0.08,0.09,0.18,0.16c0.1,0.07,0.1,0.06,0.2,0.13
	c0.1,0.07,0.08,0.09,0.18,0.16c0.1,0.07,0.11,0.05,0.2,0.12c0.1,0.07,0.11,0.05,0.21,0.12c0.1,0.07,0.07,0.1,0.17,0.17
	c0.1,0.07,0.12,0.03,0.22,0.1c0.1,0.07,0.08,0.09,0.18,0.16c0.1,0.07,0.08,0.09,0.18,0.16c0.1,0.07,0.1,0.06,0.2,0.13
	c0.1,0.07,0.09,0.08,0.19,0.15c0.1,0.07,0.13,0.02,0.23,0.09c0.1,0.07,0.1,0.07,0.19,0.14c0.1,0.07,0.08,0.1,0.17,0.17
	c0.1,0.07,0.11,0.05,0.21,0.12c0.1,0.07,0.08,0.09,0.18,0.16c0.1,0.07,0.12,0.03,0.22,0.1c0.1,0.07,0.09,0.08,0.19,0.15
	c0.1,0.07,0.11,0.06,0.2,0.13c0.1,0.07,0.06,0.12,0.16,0.19c0.1,0.07,0.13,0.03,0.22,0.1c0.1,0.07,0.11,0.06,0.2,0.13
	c0.1,0.07,0.06,0.12,0.16,0.19c0.1,0.07,0.11,0.04,0.21,0.11c0.1,0.07,0.11,0.06,0.2,0.13c0.1,0.07,0.08,0.09,0.18,0.16
	c0.1,0.07,0.09,0.08,0.19,0.15c0.1,0.07,0.13,0.02,0.23,0.09c0.08,0.05,0.15,0.13,0.19,0.21C8.71,6.89,8.74,7,8.74,7.09
	c0,0.09-0.04,0.19-0.08,0.27C8.62,7.43,8.54,7.48,8.46,7.54z M12.01,11.31c0,0.09,0.03,0.17,0.01,0.25
	c-0.02,0.08-0.09,0.15-0.13,0.22c-0.05,0.07-0.1,0.13-0.17,0.17c-0.07,0.05-0.14,0.05-0.22,0.05c-0.13,0-0.13,0.05-0.27,0.05
	c-0.13,0-0.13-0.02-0.27-0.02c-0.13,0-0.13-0.01-0.27-0.01c-0.13,0-0.13,0-0.27,0c-0.08,0-0.16-0.02-0.23-0.07
	c-0.06-0.04-0.14-0.09-0.19-0.16c-0.04-0.07-0.07-0.15-0.09-0.23c-0.02-0.08-0.02-0.16-0.02-0.25c0-0.12,0-0.12,0-0.23
	c0-0.12-0.01-0.12-0.01-0.23c0-0.12,0.03-0.12,0.03-0.23c0-0.12-0.05-0.12-0.05-0.23c0-0.12,0.03-0.12,0.03-0.23
	c0-0.12,0.03-0.12,0.03-0.23c0-0.12-0.02-0.12-0.02-0.23c0-0.12-0.01-0.12-0.01-0.23c0-0.12,0.01-0.12,0.01-0.23
	c0-0.12,0.01-0.12,0.01-0.23c0-0.12,0-0.12,0-0.23c0-0.12-0.04-0.12-0.04-0.23c0-0.12,0.04-0.12,0.04-0.23
	c0-0.12-0.02-0.12-0.02-0.24c0-0.12,0.02-0.12,0.02-0.23c0-0.12-0.02-0.12-0.02-0.24c0-0.12,0.03-0.12,0.03-0.24
	c0-0.12,0-0.12,0-0.24c0,0,0.01,0,0.01,0c0-0.12-0.02-0.12-0.02-0.23c0-0.12-0.03-0.12-0.03-0.23c0-0.12,0.02-0.12,0.02-0.23
	c0-0.12-0.01-0.12-0.01-0.23c0-0.12-0.03-0.12-0.03-0.23c0-0.12,0.03-0.12,0.03-0.23c0-0.12-0.01-0.12-0.01-0.23
	c0-0.12,0.03-0.12,0.03-0.23c0-0.12-0.02-0.12-0.02-0.23c0-0.12-0.01-0.12-0.01-0.23c0-0.12,0-0.12,0-0.23
	c0-0.12-0.01-0.12-0.01-0.23c0-0.12-0.02-0.12-0.02-0.23c0-0.12,0.02-0.12,0.02-0.24c0-0.12-0.01-0.12-0.01-0.23
	c0-0.12,0.02-0.12,0.02-0.24c0-0.12-0.03-0.12-0.03-0.24s0-0.12,0-0.24c0-0.09,0.05-0.16,0.07-0.24c0.02-0.08,0.04-0.17,0.08-0.23
	c0.05-0.07,0.09-0.15,0.16-0.2c0.07-0.05,0.16-0.04,0.24-0.04c0.13,0,0.13-0.02,0.27-0.02c0.13,0,0.13,0.02,0.27,0.02
	c0.13,0,0.13-0.02,0.27-0.02c0.13,0,0.13,0.01,0.27,0.01c0.08,0,0.17,0.03,0.24,0.08c0.06,0.04,0.11,0.11,0.16,0.19
	c0.04,0.07,0.11,0.13,0.13,0.22c0.02,0.08-0.01,0.17-0.01,0.25c0,0.12,0.04,0.12,0.04,0.24c0,0.12-0.06,0.12-0.06,0.24
	c0,0.12,0.03,0.12,0.03,0.24c0,0.12-0.03,0.12-0.03,0.24c0,0.12,0.04,0.12,0.04,0.24c0,0.12,0,0.12,0,0.24
	c0,0.12,0.02,0.12,0.02,0.24c0,0.12-0.03,0.12-0.03,0.24c0,0.12-0.01,0.12-0.01,0.24c0,0.12-0.02,0.12-0.02,0.24
	c0,0.12,0.05,0.12,0.05,0.24c0,0.12-0.05,0.12-0.05,0.24c0,0.12,0.04,0.12,0.04,0.24c0,0.12-0.02,0.12-0.02,0.24
	c0,0.12,0.03,0.12,0.03,0.24c0,0.12-0.02,0.12-0.02,0.24c0,0.12,0.01,0.12,0.01,0.24c0,0.12-0.02,0.12-0.02,0.24
	c0,0.12,0.02,0.12,0.02,0.24c0,0.12,0.02,0.12,0.02,0.24C12.05,7.8,12,7.8,12,7.92c0,0.12,0.05,0.12,0.05,0.24
	c0,0.12-0.02,0.12-0.02,0.24c0,0.12-0.03,0.12-0.03,0.24c0,0.12,0.01,0.12,0.01,0.24c0,0.12-0.01,0.12-0.01,0.24
	c0,0.12,0.06,0.12,0.06,0.24c0,0.12,0,0.12,0,0.24c0,0.12-0.04,0.12-0.04,0.24c0,0.12,0.02,0.12,0.02,0.24
	c0,0.12-0.02,0.12-0.02,0.24c0,0.12,0.04,0.12,0.04,0.24c0,0.12-0.01,0.12-0.01,0.24c0,0.12,0.02,0.12,0.01,0.24
	C12.05,11.19,12.01,11.19,12.01,11.31z"/>
</svg>
