<?xml version="1.0" encoding="utf-8"?>
<!-- Generator: Adobe Illustrator 27.0.0, SVG Export Plug-In . SVG Version: 6.00 Build 0)  -->
<svg version="1.1" id="Livello_1" xmlns="http://www.w3.org/2000/svg" xmlns:xlink="http://www.w3.org/1999/xlink" x="0px" y="0px"
	 viewBox="0 0 11.34 17.01" style="enable-background:new 0 0 11.34 17.01;" xml:space="preserve">
<style type="text/css">
	.st0{fill:#C31632;}
</style>
<path class="st0" d="M3.32,9.25c0.1-0.04,0.1-0.03,0.2-0.08c0.1-0.04,0.09-0.06,0.19-0.1c0.1-0.04,0.11-0.01,0.21-0.06
	c0.1-0.04,0.17,0,0.2-0.11c0.04-0.12-0.07-0.11-0.13-0.23c-0.05-0.12-0.05-0.12-0.1-0.23C3.86,8.33,3.87,8.32,3.82,8.21
	c-0.05-0.12,0.03-0.25-0.1-0.26c-0.12,0-0.02,0.15-0.07,0.27c-0.05,0.11-0.09,0.1-0.14,0.21C3.46,8.54,3.47,8.54,3.42,8.65
	C3.36,8.77,3.37,8.77,3.32,8.88C3.27,9,3.26,8.99,3.21,9.1c-0.05,0.11-0.05,0.11-0.1,0.23c-0.05,0.11-0.09,0.1-0.12,0.22
	c-0.02,0.09,0.01,0.1,0.01,0.2S3,9.85,3,9.95 M4.42,8.67C4.49,8.58,4.5,8.59,4.57,8.5C4.64,8.41,4.63,8.4,4.7,8.31
	c0.07-0.09,0.1-0.07,0.17-0.16C4.94,8.07,4.95,8.07,5,7.97C4.98,7.91,4.93,7.82,4.9,7.71C4.89,7.63,4.87,7.54,4.87,7.45
	c-0.01-0.09,0-0.18,0.01-0.27C4.88,7.08,4.92,7,4.95,6.93c0.02-0.05,0.02-0.14,0.07-0.22c0.04-0.06,0.12-0.09,0.17-0.16
	c0.04-0.06,0.08-0.13,0.13-0.19C5.37,6.3,5.42,6.24,5.46,6.18c0.05-0.06,0.11-0.11,0.16-0.17c0.05-0.06,0.1-0.12,0.15-0.18
	C5.86,5.73,6,5.58,5.9,5.64C5.81,5.7,5.82,5.72,5.73,5.8C5.64,5.87,5.65,5.88,5.56,5.95C5.47,6.03,5.47,6.03,5.38,6.11
	C5.3,6.18,5.28,6.16,5.19,6.23C5.1,6.3,5.13,6.35,5.04,6.42C4.96,6.49,4.92,6.45,4.83,6.53C4.75,6.6,4.76,6.62,4.67,6.69
	C4.58,6.76,4.58,6.77,4.49,6.84C4.4,6.92,4.39,6.9,4.3,6.98S4.22,7.07,4.15,7.16C4.07,7.26,4.1,7.27,4.04,7.39
	C3.98,7.5,3.94,7.48,3.91,7.6c-0.03,0.12,0.03,0.08,0.1,0.21c0.03,0.06,0.08,0.13,0.12,0.21c0.04,0.07,0.09,0.13,0.13,0.21
	c0.04,0.07,0.07,0.15,0.1,0.22C4.39,8.53,4.42,8.6,4.45,8.67 M2.7,13.35c-0.1-0.01-0.1-0.01-0.2-0.01c-0.1,0-0.1,0.02-0.21,0.02
	c-0.1,0-0.1-0.01-0.2-0.03c-0.11-0.02-0.06-0.05-0.16-0.15c-0.05-0.05-0.12-0.09-0.17-0.15c-0.05-0.05-0.1-0.11-0.15-0.17
	c-0.05-0.06-0.09-0.12-0.14-0.19c-0.05-0.06-0.07-0.14-0.12-0.2c-0.05-0.06-0.14-0.09-0.18-0.16c-0.04-0.07-0.05-0.15-0.08-0.22
	c-0.04-0.07-0.08-0.14-0.1-0.2c-0.03-0.08-0.05-0.16-0.05-0.23c0-0.06,0.03-0.14,0.05-0.23c0.02-0.07,0.04-0.15,0.06-0.23
	c0.02-0.07,0.07-0.14,0.09-0.22c0.02-0.07,0.04-0.15,0.07-0.23c0.03-0.07,0.04-0.15,0.07-0.23c0.03-0.07,0.05-0.15,0.08-0.22
	c0.03-0.07,0.09-0.13,0.12-0.21c0.03-0.07,0.01-0.17,0.04-0.24c0.03-0.07,0.11-0.12,0.14-0.2C1.71,9.6,1.73,9.52,1.76,9.45
	C1.79,9.38,1.82,9.3,1.85,9.23c0.03-0.07,0.08-0.14,0.11-0.21C2,8.95,2,8.86,2.03,8.79c0.03-0.07,0.06-0.15,0.09-0.22
	C2.16,8.5,2.21,8.43,2.24,8.36c0.04-0.07,0.09-0.14,0.12-0.21c0.04-0.07,0.06-0.15,0.1-0.22C2.5,7.86,2.51,7.79,2.55,7.72
	c0.04-0.08,0.08-0.14,0.12-0.21c0.04-0.08,0.09-0.15,0.12-0.2c0.04-0.07,0.1-0.12,0.15-0.19c0.04-0.06,0.07-0.14,0.13-0.21
	C3.11,6.85,3.2,6.82,3.26,6.75c0.05-0.06,0.06-0.16,0.11-0.22c0.05-0.06,0.13-0.1,0.18-0.16c0.05-0.06,0.1-0.12,0.16-0.18
	c0.06-0.06,0.11-0.12,0.17-0.18c0.06-0.06,0.11-0.12,0.17-0.18C4.11,5.78,4.2,5.75,4.26,5.7c0.06-0.05,0.12-0.11,0.18-0.16
	c0.06-0.05,0.08-0.15,0.15-0.2C4.64,5.28,4.73,5.25,4.79,5.2c0.06-0.05,0.12-0.1,0.19-0.16c0.06-0.05,0.1-0.13,0.17-0.18
	c0.06-0.05,0.13-0.1,0.19-0.15C5.4,4.65,5.48,4.63,5.55,4.57C5.6,4.52,5.62,4.42,5.68,4.36C5.74,4.3,5.8,4.25,5.85,4.18
	C5.9,4.12,5.96,4.06,6.01,3.99c0.05-0.07,0.1-0.13,0.14-0.2C6.2,3.73,6.24,3.65,6.28,3.58C6.33,3.52,6.36,3.44,6.4,3.37
	c0.04-0.07,0.1-0.13,0.14-0.2c0.04-0.07,0.07-0.15,0.11-0.22c0.04-0.07,0.12-0.13,0.15-0.2c0.04-0.07,0.06-0.16,0.1-0.23
	c0.04-0.08,0.09-0.14,0.12-0.21c0.04-0.08,0.09-0.15,0.12-0.22c0.04-0.08,0.04-0.17,0.07-0.24c0.04-0.09,0.1-0.15,0.13-0.21
	c0.06-0.14,0-0.14,0.11-0.19c0.11-0.06,0.08-0.01,0.23,0.03c0.07,0.02,0.17,0.01,0.26,0.04c0.07,0.03,0.14,0.1,0.21,0.15
	c0.07,0.05,0.13,0.11,0.19,0.17C8.4,1.9,8.41,1.99,8.45,2.07C8.49,2.14,8.54,2.21,8.56,2.3c0.08-0.05,0.15-0.11,0.22-0.16
	c0.08-0.05,0.14-0.12,0.21-0.16C9.07,1.93,9.16,1.9,9.23,1.87C9.32,1.84,9.41,1.88,9.49,1.9C9.56,1.92,9.65,1.94,9.7,2.03
	c0.04,0.06,0.06,0.15,0.07,0.25c0.01,0.08,0.04,0.16,0.03,0.26c0,0.08-0.02,0.17-0.03,0.25C9.77,2.86,9.74,2.95,9.72,3.03
	C9.7,3.11,9.69,3.2,9.67,3.28C9.64,3.36,9.58,3.43,9.55,3.51C9.52,3.59,9.5,3.67,9.47,3.75c0.02,0.04,0.01,0.08,0.02,0.12
	C9.52,3.92,9.57,3.99,9.6,4.07C9.63,4.14,9.67,4.21,9.7,4.3c0.02,0.07,0.04,0.15,0.06,0.23C9.78,4.6,9.82,4.67,9.85,4.75
	C9.87,4.82,9.88,4.9,9.91,4.98c0.02,0.07,0.04,0.15,0.06,0.23c0.02,0.08,0.03,0.16,0.05,0.24c0.02,0.08,0.04,0.15,0.05,0.23
	c0.02,0.08,0.01,0.16,0.03,0.24c0.02,0.08,0.05,0.15,0.07,0.23c0.02,0.08,0.03,0.16,0.04,0.24c0.01,0.08,0.06,0.15,0.07,0.23
	c0.01,0.08-0.04,0.17-0.03,0.25c0.01,0.08,0.06,0.15,0.07,0.23c0.01,0.08,0.04,0.16,0.05,0.24c0.01,0.08-0.01,0.16,0,0.24
	c0.01,0.08,0,0.16,0.01,0.24c0,0.08-0.01,0.16-0.01,0.24c0,0.08,0.03,0.16,0.04,0.24c0,0.08-0.01,0.16-0.02,0.24
	c0,0.08,0.01,0.16,0,0.24c0,0.08,0.02,0.16,0.01,0.24c-0.01,0.08-0.04,0.16-0.05,0.24c-0.01,0.08-0.01,0.16-0.02,0.24
	c-0.02,0.08-0.04,0.16-0.06,0.23c-0.02,0.08-0.09,0.14-0.11,0.22c-0.02,0.08-0.01,0.16-0.04,0.24c-0.03,0.08-0.07,0.15-0.1,0.22
	c-0.04,0.08-0.07,0.17-0.1,0.25c-0.04,0.08-0.1,0.15-0.13,0.23c-0.03,0.07-0.05,0.15-0.08,0.22c-0.03,0.07-0.01,0.16-0.04,0.24
	c-0.03,0.08-0.08,0.14-0.11,0.21c-0.02,0.08-0.02,0.16-0.04,0.23c-0.02,0.08-0.04,0.15-0.05,0.23c-0.02,0.08-0.04,0.15-0.06,0.23
	c-0.02,0.08-0.06,0.15-0.07,0.23c-0.01,0.08-0.03,0.16-0.04,0.23c-0.01,0.08,0.02,0.16,0.02,0.24c-0.01,0.08-0.02,0.16-0.02,0.23
	c-0.01,0.08-0.02,0.16-0.02,0.23c0,0.08-0.04,0.16-0.04,0.24c0,0.08,0.02,0.16,0.02,0.24c0,0.08-0.02,0.16-0.01,0.24
	c0.01,0.08,0.04,0.16,0.05,0.23c0.01,0.08,0.01,0.16,0.02,0.23c0.01,0.09,0.02,0.17,0.04,0.23c0.03,0.15,0.14,0.13,0.09,0.24
	c-0.05,0.11-0.12,0.02-0.24,0.09c-0.06,0.03-0.14,0.07-0.22,0.11c-0.07,0.04-0.13,0.11-0.2,0.14c-0.08,0.04-0.16,0.05-0.23,0.08
	c-0.08,0.04-0.17,0.07-0.23,0.1c-0.12-0.08-0.01-0.08-0.02-0.29c-0.01-0.08-0.02-0.17-0.03-0.29c-0.06-0.09-0.07-0.09-0.15-0.16
	C8,14.79,7.99,14.8,7.91,14.73S7.8,14.7,7.73,14.61c-0.07-0.08-0.06-0.09-0.11-0.19c-0.05-0.1-0.06-0.09-0.11-0.19
	s-0.11-0.11-0.05-0.2c0.07-0.09,0.09,0,0.2,0.02c0.11,0.02,0.1,0.07,0.2,0.09c0.11,0.02,0.11,0.02,0.21,0.04
	c0.11,0.02,0.15,0.11,0.24,0.05c0.08-0.05-0.01-0.12-0.01-0.21c0-0.09,0.06-0.11,0-0.19c-0.08-0.1-0.11-0.07-0.22-0.13
	c-0.11-0.06-0.11-0.06-0.23-0.12c-0.11-0.06-0.17,0.02-0.26-0.07c-0.08-0.08-0.05-0.11-0.09-0.21c-0.04-0.1-0.04-0.1-0.08-0.2
	s-0.12-0.11-0.03-0.18c0.09-0.08,0.09,0.01,0.21,0.05C7.71,13,7.71,13,7.83,13.03c0.12,0.03,0.11,0.06,0.22,0.1
	c0.12,0.03,0.14,0.12,0.24,0.06c0.08-0.05,0-0.11-0.01-0.21c-0.01-0.1,0.03-0.12-0.03-0.2c-0.08-0.1-0.13-0.05-0.24-0.11
	C7.89,12.6,7.9,12.59,7.8,12.51c-0.08-0.07-0.1-0.05-0.15-0.14c-0.06-0.09-0.02-0.11-0.08-0.19c-0.06-0.09-0.2-0.11-0.12-0.17
	c0.1-0.08,0.13,0.01,0.26,0.04c0.13,0.02,0.13,0.02,0.25,0.04c0.13,0.02,0.12,0.1,0.25,0.09c0-0.08,0-0.17,0-0.25
	c0-0.08,0-0.16,0-0.24c0-0.08-0.04-0.16-0.05-0.23c0-0.08,0.01-0.16,0-0.24c-0.01-0.08,0.03-0.16,0.02-0.24
	c-0.01-0.08-0.03-0.16-0.04-0.23c-0.01-0.08-0.03-0.16-0.04-0.23c-0.02-0.08-0.05-0.15-0.07-0.23c-0.02-0.08-0.05-0.15-0.08-0.22
	c-0.03-0.08-0.1-0.13-0.14-0.2C7.79,9.78,7.8,9.68,7.76,9.62C7.71,9.55,7.65,9.5,7.6,9.44C7.55,9.39,7.47,9.35,7.41,9.31
	C7.34,9.26,7.28,9.22,7.21,9.19C7.15,9.15,7.09,9.12,7,9.12c-0.06,0-0.14-0.03-0.23-0.01C6.71,9.13,6.64,9.19,6.56,9.22
	C6.5,9.24,6.42,9.25,6.34,9.28C6.28,9.31,6.21,9.36,6.14,9.4C6.09,9.42,6.03,9.47,5.95,9.53C5.89,9.57,5.82,9.6,5.75,9.65
	C5.69,9.7,5.63,9.75,5.57,9.8C5.51,9.85,5.44,9.89,5.38,9.94c-0.06,0.05-0.08,0.11-0.14,0.16c0.08,0.08,0.07,0.09,0.17,0.13
	c0.1,0.05,0.11,0.03,0.2,0.07c0.1,0.05,0.1,0.04,0.2,0.08c0.1,0.05,0.11,0.02,0.21,0.06s0.24,0.03,0.2,0.13
	c-0.05,0.11-0.14,0.01-0.26,0.02c-0.12,0.01-0.12,0.04-0.24,0.05c-0.12,0.01-0.13,0.04-0.25,0.04c-0.11,0-0.1-0.06-0.21-0.09
	c-0.11-0.02-0.11,0-0.21-0.03c-0.11-0.02-0.1-0.1-0.21-0.07c-0.16,0.05-0.23,0.04-0.26,0.2c-0.02,0.11,0.09,0.07,0.19,0.12
	c0.1,0.05,0.12,0.01,0.22,0.05c0.1,0.05,0.1,0.06,0.2,0.11c0.1,0.05,0.11,0.03,0.21,0.08c0.1,0.05,0.09,0.07,0.2,0.12
	c0.1,0.05,0.24-0.04,0.21,0.07c-0.03,0.12-0.11,0.02-0.23,0.04c-0.12,0.02-0.12-0.01-0.24,0.01c-0.12,0.02-0.11,0.07-0.23,0.09
	c-0.12,0.02-0.12,0.01-0.25,0.01c-0.13-0.01-0.12-0.05-0.24-0.08c-0.12-0.03-0.13-0.02-0.25-0.05c-0.12-0.03-0.13-0.1-0.25-0.06
	C4,11.23,3.93,11.26,3.94,11.38c0.01,0.11,0.13,0.03,0.22,0.08c0.09,0.06,0.06,0.11,0.15,0.17c0.09,0.06,0.1,0.04,0.2,0.1
	c0.09,0.06,0.1,0.04,0.2,0.1c0.09,0.06,0.08,0.08,0.17,0.14c0.09,0.06,0.23-0.01,0.19,0.09c-0.03,0.11-0.11,0.01-0.23,0.03
	c-0.12,0.01-0.11,0.05-0.23,0.06c-0.12,0.01-0.12-0.02-0.23-0.03c-0.11-0.01-0.11-0.02-0.22-0.05c-0.11-0.03-0.12,0.02-0.23-0.01
	c-0.11-0.03-0.1-0.05-0.21-0.07c-0.11-0.03-0.13-0.15-0.23-0.1c-0.13,0.07-0.05,0.16-0.12,0.28c-0.07,0.12-0.11,0.1-0.15,0.24
	c-0.03,0.12,0.07,0.05,0.19,0.15c0.05,0.04,0.12,0.09,0.2,0.14c0.06,0.05,0.11,0.12,0.18,0.17c0.06,0.05,0.13,0.09,0.2,0.14
	c0.06,0.05,0.14,0.08,0.21,0.13c0.07,0.04,0.11,0.13,0.18,0.18c0.07,0.04,0.15,0.06,0.22,0.11c0.07,0.04,0.15,0.06,0.22,0.11
	c0.07,0.04,0.11,0.13,0.18,0.17c0.07,0.04,0.14,0.08,0.22,0.12c0.07,0.04,0.16,0.05,0.23,0.09c0.07,0.04,0.12,0.12,0.2,0.15
	c0.07,0.04,0.16,0.04,0.24,0.08c0.07,0.04,0.13,0.1,0.21,0.14c0.07,0.03,0.16,0.05,0.23,0.09c0.07,0.03,0.14,0.09,0.22,0.12
	c0.08,0.03,0.17,0.08,0.25,0.11c-0.1,0.05-0.12,0-0.23,0.01c-0.11,0.02-0.11,0.02-0.22,0.04c-0.11,0.02-0.12-0.02-0.23-0.01
	s-0.1,0.06-0.22,0.07c-0.07-0.02-0.16-0.01-0.23-0.03c-0.07-0.02-0.15-0.03-0.23-0.06c-0.07-0.02-0.14-0.08-0.21-0.11
	c-0.07-0.03-0.15-0.05-0.22-0.08c-0.07-0.03-0.15-0.06-0.22-0.08c-0.07-0.03-0.16-0.03-0.23-0.06c-0.07-0.03-0.14-0.06-0.22-0.09
	c-0.07-0.03-0.12-0.11-0.19-0.15C4.1,14.02,4,14.04,3.93,14.01c-0.07-0.03-0.11-0.13-0.18-0.16c-0.07-0.04-0.16-0.02-0.23-0.06
	c-0.07-0.04-0.12-0.11-0.19-0.15c-0.07-0.04-0.14-0.08-0.21-0.11c-0.08-0.04-0.16-0.06-0.22-0.09C2.78,13.38,2.81,13.37,2.7,13.35z"
	/>
</svg>
