<?xml version="1.0" encoding="utf-8"?>
<!-- Generator: Adobe Illustrator 27.0.0, SVG Export Plug-In . SVG Version: 6.00 Build 0)  -->
<svg version="1.1" id="Livello_1" xmlns="http://www.w3.org/2000/svg" xmlns:xlink="http://www.w3.org/1999/xlink" x="0px" y="0px"
	 viewBox="0 0 14.17 14.17" style="enable-background:new 0 0 14.17 14.17;" xml:space="preserve">
<style type="text/css">
	.st0{fill:#359138;}
</style>
<path class="st0" d="M12.76,2.47c-0.06-0.05-0.15-0.08-0.21-0.12c-0.07-0.05-0.11-0.13-0.19-0.16c-0.07-0.04-0.17-0.01-0.25-0.04
	c-0.08-0.03-0.15-0.07-0.22-0.08c-0.08-0.02-0.16-0.04-0.24-0.05C11.57,2,11.49,1.95,11.41,1.94c-0.08-0.01-0.16-0.01-0.24-0.01
	c-0.08,0-0.16,0.05-0.24,0.06c-0.08,0-0.16-0.04-0.24-0.04C10.6,1.96,10.52,2,10.44,2c-0.08,0.01-0.16,0-0.24,0.01
	c-0.08,0.01-0.16,0.02-0.24,0.03c-0.08,0.01-0.16,0-0.24,0.01C9.64,2.07,9.56,2.08,9.48,2.1C9.4,2.11,9.32,2.14,9.24,2.16
	C9.16,2.17,9.08,2.21,9,2.22C8.92,2.23,8.84,2.26,8.76,2.27C8.68,2.28,8.61,2.31,8.53,2.32c-0.08,0.01-0.13-0.01-0.21,0
	C8.3,2.21,8.34,2.22,8.37,2.11C8.4,2,8.34,1.98,8.37,1.87c0.03-0.11,0.06-0.11,0.09-0.22c0.03-0.11,0.01-0.12,0.04-0.23
	C8.52,1.3,8.51,1.3,8.54,1.18c0.03-0.11,0.04-0.11,0.07-0.22c0.03-0.11,0.04-0.11,0.07-0.22c0.03-0.11,0-0.12,0.02-0.24
	c0.03-0.11,0.03-0.11,0.06-0.23C8.8,0.16,8.94,0.13,8.86,0.05c-0.09-0.1-0.14-0.01-0.27-0.01c-0.13,0-0.13-0.02-0.27-0.02
	c-0.13,0-0.13,0-0.27,0c-0.12,0-0.12,0.01-0.24,0.01c-0.12,0-0.12,0.02-0.24,0.02c-0.12,0-0.12,0-0.24,0
	c-0.12,0-0.12-0.03-0.24-0.03c-0.12,0-0.12,0.03-0.24,0.03c-0.12,0-0.12-0.03-0.24-0.03c-0.12,0-0.12,0.01-0.24,0.01
	S6.24,0.08,6.11,0.08c-0.13,0-0.13-0.01-0.27-0.01c-0.13,0-0.13,0.01-0.27,0.01c-0.13,0-0.19-0.13-0.28-0.03
	C5.23,0.13,5.33,0.17,5.36,0.28C5.38,0.4,5.44,0.38,5.46,0.5c0.03,0.11-0.03,0.13,0,0.24c0.03,0.11,0.08,0.1,0.1,0.22
	C5.6,1.07,5.58,1.07,5.61,1.19c0.03,0.11,0,0.12,0.03,0.24c0.03,0.11,0.02,0.11,0.05,0.23c0.03,0.11,0.06,0.11,0.08,0.22
	c0.03,0.11,0,0.12,0.03,0.24c0.03,0.11,0.13,0.11,0.12,0.23C5.84,2.32,5.73,2.27,5.65,2.26c-0.08-0.01-0.17,0.02-0.25,0
	C5.33,2.25,5.25,2.2,5.17,2.19c-0.08-0.01-0.16,0-0.24-0.01C4.85,2.16,4.76,2.16,4.68,2.15C4.6,2.14,4.52,2.13,4.44,2.12
	C4.36,2.1,4.29,2.05,4.21,2.04c-0.08-0.01-0.16,0-0.24-0.01C3.89,2.02,3.8,2.01,3.72,2C3.64,2,3.57,1.95,3.49,1.95
	C3.4,1.94,3.32,1.94,3.24,1.94c-0.08,0-0.16,0-0.24,0c-0.08,0-0.16,0.02-0.24,0.02C2.67,1.96,2.6,2.01,2.52,2.02
	C2.44,2.03,2.35,2.01,2.27,2.03C2.19,2.05,2.12,2.09,2.05,2.12C1.97,2.14,1.9,2.19,1.83,2.22C1.76,2.26,1.69,2.3,1.62,2.34
	C1.56,2.39,1.48,2.42,1.42,2.47c-0.06,0.05-0.1,0.12-0.15,0.18C1.21,2.71,1.12,2.74,1.07,2.8c-0.05,0.06-0.05,0.16-0.1,0.22
	C0.93,3.09,0.9,3.16,0.86,3.23C0.82,3.3,0.73,3.34,0.69,3.41C0.66,3.48,0.65,3.57,0.62,3.64C0.59,3.71,0.57,3.79,0.54,3.86
	C0.51,3.94,0.47,4.01,0.45,4.08C0.42,4.16,0.44,4.25,0.42,4.32C0.4,4.4,0.34,4.46,0.32,4.54C0.3,4.62,0.31,4.7,0.3,4.78
	C0.28,4.86,0.26,4.93,0.25,5.01C0.23,5.09,0.22,5.17,0.21,5.25C0.2,5.32,0.16,5.4,0.15,5.48c-0.01,0.08,0.01,0.16,0,0.24
	C0.14,5.79,0.1,5.87,0.09,5.95C0.08,6.03,0.04,6.1,0.04,6.18C0.03,6.26,0.09,6.35,0.09,6.42C0.08,6.5,0.05,6.58,0.04,6.66
	c0,0.08,0.02,0.16,0.01,0.24c0,0.08-0.01,0.16-0.01,0.24C0.05,7.22,0,7.29,0,7.37c0,0.08,0.03,0.16,0.03,0.24
	C0.03,7.69,0,7.77,0,7.85C0,7.92,0.03,8,0.04,8.08c0.01,0.08,0.03,0.15,0.04,0.23c0.01,0.08,0,0.16,0.02,0.24
	C0.11,8.63,0.15,8.7,0.17,8.78c0.02,0.08-0.01,0.17,0.02,0.24C0.21,9.1,0.27,9.16,0.3,9.23c0.03,0.07,0.04,0.15,0.07,0.23
	C0.4,9.53,0.41,9.62,0.44,9.69c0.03,0.07,0.1,0.13,0.13,0.2c0.03,0.07,0.03,0.16,0.06,0.23c0.03,0.07,0.1,0.13,0.14,0.2
	c0.04,0.07,0.09,0.13,0.13,0.2c0.04,0.07,0.03,0.16,0.07,0.23c0.04,0.07,0.11,0.12,0.15,0.19c0.04,0.07,0.07,0.14,0.11,0.21
	c0.04,0.07,0.1,0.13,0.14,0.2c0.04,0.07,0.08,0.14,0.13,0.2c0.04,0.07,0.1,0.12,0.15,0.19c0.05,0.07,0.1,0.13,0.14,0.19
	c0.05,0.07,0.08,0.14,0.13,0.2c0.05,0.06,0.07,0.15,0.11,0.21c0.05,0.06,0.13,0.1,0.18,0.16c0.05,0.06,0.07,0.15,0.12,0.21
	c0.05,0.06,0.11,0.12,0.16,0.17c0.05,0.06,0.11,0.12,0.16,0.18c0.05,0.06,0.11,0.12,0.16,0.18c0.06,0.06,0.14,0.09,0.19,0.15
	c0.06,0.06,0.09,0.14,0.15,0.19c0.06,0.06,0.13,0.1,0.19,0.14c0.07,0.05,0.14,0.08,0.2,0.12c0.07,0.04,0.13,0.1,0.2,0.13
	c0.07,0.04,0.15,0.06,0.22,0.08c0.08,0.03,0.14,0.08,0.22,0.1c0.08,0.01,0.16-0.01,0.24,0c0.08,0,0.16,0.03,0.24,0.03
	c0.08,0,0.15-0.06,0.23-0.07c0.08-0.01,0.16,0,0.24-0.01c0.08-0.01,0.15-0.05,0.23-0.07c0.08-0.01,0.16,0.03,0.24,0.01
	c0.08-0.01,0.14-0.08,0.22-0.1c0.08-0.01,0.16,0.01,0.24,0c0.08-0.01,0.16-0.01,0.24-0.02c0.08-0.01,0.15-0.03,0.23-0.03
	c0.08-0.01,0.15-0.03,0.23-0.04c0.08-0.01,0.16,0.01,0.24,0c0.08,0,0.16-0.07,0.24-0.07c0.08,0,0.16,0.01,0.24,0.02
	c0.08,0,0.16,0,0.24,0c0.08,0.01,0.16,0.03,0.24,0.04c0.08,0.01,0.16,0.02,0.24,0.03c0.08,0.01,0.15,0.06,0.23,0.08
	c0.08,0.01,0.16,0.02,0.23,0.04c0.08,0.02,0.16,0,0.24,0.02c0.08,0.02,0.15,0.07,0.23,0.08c0.08,0.02,0.17-0.04,0.25-0.03
	c0.08,0.01,0.15,0.08,0.23,0.09c0.08,0.01,0.16,0.01,0.24,0.01c0.08,0,0.16,0,0.24,0c0.08,0,0.16,0,0.24-0.01
	c0.08-0.01,0.14-0.07,0.22-0.1c0.07-0.02,0.15-0.03,0.23-0.07c0.07-0.03,0.12-0.11,0.19-0.15c0.06-0.04,0.13-0.08,0.19-0.13
	c0.06-0.05,0.13-0.09,0.19-0.14c0.06-0.05,0.15-0.07,0.21-0.13c0.06-0.06,0.11-0.12,0.16-0.18c0.05-0.06,0.09-0.13,0.14-0.2
	c0.05-0.06,0.13-0.1,0.18-0.17c0.05-0.06,0.06-0.16,0.11-0.22c0.05-0.06,0.12-0.11,0.17-0.17c0.05-0.06,0.11-0.12,0.15-0.19
	c0.04-0.07,0.05-0.16,0.09-0.23c0.04-0.07,0.12-0.11,0.17-0.18c0.04-0.07,0.04-0.16,0.08-0.23c0.04-0.07,0.08-0.14,0.12-0.21
	c0.04-0.07,0.09-0.13,0.13-0.2c0.04-0.07,0.1-0.13,0.13-0.2c0.04-0.07,0.07-0.15,0.1-0.22c0.04-0.07,0.06-0.15,0.09-0.22
	c0.03-0.07,0.07-0.15,0.1-0.22c0.03-0.07,0.04-0.16,0.07-0.23c0.03-0.07,0.11-0.13,0.14-0.2c0.03-0.08,0.07-0.15,0.1-0.22
	c0.03-0.08,0.04-0.16,0.07-0.23c0.03-0.08,0.02-0.16,0.04-0.24c0.02-0.08,0.03-0.16,0.05-0.24c0.02-0.08,0.08-0.15,0.1-0.22
	c0.02-0.08,0.01-0.16,0.02-0.24c0.01-0.08,0.07-0.15,0.08-0.23c0.01-0.08,0.03-0.16,0.03-0.24c0.01-0.08-0.05-0.16-0.05-0.24
	c0-0.08-0.01-0.16-0.01-0.24c0-0.08,0.01-0.16,0.01-0.24c0-0.08,0.04-0.16,0.04-0.24c0-0.08,0-0.16,0-0.24
	c0-0.08-0.01-0.16-0.01-0.24c0-0.08-0.07-0.15-0.07-0.23c-0.01-0.08-0.01-0.16-0.02-0.24c-0.01-0.08-0.01-0.16-0.02-0.24
	c-0.01-0.08,0.03-0.16,0.02-0.24C14.05,5.64,14.01,5.56,14,5.48c-0.01-0.08,0.01-0.16,0-0.24c-0.01-0.08-0.01-0.16-0.03-0.24
	c-0.01-0.08-0.04-0.16-0.05-0.23c-0.02-0.08-0.05-0.15-0.07-0.23c-0.02-0.08-0.06-0.15-0.08-0.22c-0.02-0.08-0.06-0.15-0.09-0.22
	c-0.02-0.08,0-0.17-0.03-0.24c-0.03-0.07-0.09-0.14-0.12-0.21c-0.03-0.07-0.04-0.16-0.07-0.23c-0.04-0.07-0.11-0.12-0.14-0.19
	c-0.04-0.07-0.07-0.14-0.11-0.21c-0.04-0.07-0.09-0.13-0.14-0.19c-0.05-0.06-0.11-0.11-0.17-0.17C12.84,2.6,12.81,2.52,12.76,2.47z"
	/>
</svg>
