<?xml version="1.0" encoding="utf-8"?>
<!-- Generator: Adobe Illustrator 27.0.0, SVG Export Plug-In . SVG Version: 6.00 Build 0)  -->
<svg version="1.1" id="Livello_1" xmlns="http://www.w3.org/2000/svg" xmlns:xlink="http://www.w3.org/1999/xlink" x="0px" y="0px"
	 viewBox="0 0 14.17 14.17" style="enable-background:new 0 0 14.17 14.17;" xml:space="preserve">
<path d="M12.73,0.02c-0.12,0-0.12,0.03-0.24,0.03c-0.12,0-0.12-0.02-0.24-0.02c-0.12,0-0.12,0.03-0.24,0.03
	c-0.12,0-0.12-0.06-0.24-0.06c-0.12,0-0.12,0.03-0.24,0.03c-0.12,0-0.12,0.01-0.24,0.01c-0.12,0-0.12,0-0.24,0
	c-0.12,0-0.12,0.01-0.24,0.01c-0.12,0-0.12-0.04-0.24-0.04c-0.12,0-0.12,0-0.24,0c-0.12,0-0.12,0.02-0.24,0.02
	c-0.12,0-0.12-0.03-0.24-0.03c-0.12,0-0.12,0.02-0.24,0.02c-0.12,0-0.12-0.01-0.24-0.01c-0.12,0-0.12,0.02-0.24,0.02
	c-0.12,0-0.12-0.04-0.24-0.04c-0.12,0-0.12,0.04-0.24,0.04c-0.12,0-0.12,0.02-0.24,0.02c-0.12,0-0.12-0.02-0.24-0.02
	c-0.12,0-0.12-0.02-0.24-0.02c-0.12,0-0.12-0.01-0.24-0.01c-0.12,0-0.12,0.04-0.24,0.04c-0.12,0-0.12,0.02-0.24,0.02
	c-0.12,0-0.12-0.01-0.24-0.01c-0.12,0-0.12-0.03-0.24-0.03c-0.12,0-0.12-0.02-0.24-0.02c-0.12,0-0.12,0-0.24,0
	c-0.12,0-0.12,0.05-0.24,0.05c-0.12,0-0.12-0.05-0.24-0.05c-0.12,0-0.12,0.06-0.24,0.06c-0.12,0-0.12-0.01-0.24-0.01
	c-0.12,0-0.12-0.03-0.24-0.03c-0.12,0-0.12,0.03-0.24,0.03C4.69,0.06,4.69,0,4.57,0C4.45,0,4.45,0.05,4.33,0.05
	c-0.12,0-0.12,0-0.24,0c-0.12,0-0.12,0.02-0.24,0.02c-0.12,0-0.12-0.04-0.24-0.04c-0.12,0-0.12,0.02-0.24,0.02
	c-0.12,0-0.12-0.03-0.24-0.03c-0.12,0-0.12,0.03-0.24,0.03c-0.12,0-0.12,0.01-0.24,0.01C2.53,0.05,2.53,0,2.41,0
	C2.29,0,2.29,0.06,2.17,0.06c-0.12,0-0.12,0.01-0.24,0.01c-0.12,0-0.12-0.04-0.24-0.04c-0.12,0-0.12,0.03-0.24,0.03
	c-0.08,0-0.16,0-0.24,0.02C1.12,0.08,1.05,0.12,0.97,0.15C0.9,0.18,0.8,0.16,0.73,0.2C0.66,0.24,0.58,0.29,0.52,0.34
	c-0.06,0.05-0.1,0.14-0.15,0.2C0.31,0.6,0.29,0.68,0.25,0.75c-0.04,0.07-0.08,0.14-0.1,0.22C0.12,1.05,0.09,1.12,0.08,1.2
	C0.06,1.28,0.05,1.36,0.05,1.44c0,0.12,0.01,0.12,0.01,0.24c0,0.12-0.03,0.12-0.03,0.24c0,0.12-0.01,0.12-0.01,0.24
	c0,0.12-0.01,0.12-0.01,0.24c0,0.12,0.02,0.12,0.02,0.24c0,0.12,0.01,0.12,0.01,0.24C0.04,3,0,3,0,3.12c0,0.12,0.04,0.12,0.04,0.24
	c0,0.12-0.03,0.12-0.03,0.24c0,0.12,0.05,0.12,0.05,0.24c0,0.12-0.01,0.12-0.01,0.24c0,0.12,0,0.12,0,0.24
	c0,0.12,0.01,0.12,0.01,0.24c0,0.12-0.03,0.12-0.03,0.24c0,0.12-0.03,0.12-0.03,0.24c0,0.12,0.02,0.12,0.02,0.24
	c0,0.12,0.01,0.12,0.01,0.24c0,0.12-0.01,0.12-0.01,0.24C0.03,5.88,0,5.88,0,6c0,0.12,0.02,0.12,0.02,0.24c0,0.12,0,0.12,0,0.24
	c0,0.12,0.03,0.12,0.03,0.24c0,0.12-0.01,0.12-0.01,0.24c0,0.12-0.03,0.12-0.03,0.24c0,0.12,0.02,0.12,0.02,0.24
	c0,0.12,0.02,0.12,0.02,0.24c0,0.12-0.05,0.12-0.05,0.24c0,0.12,0.05,0.12,0.05,0.24c0,0.12,0,0.12,0,0.24c0,0.12,0,0.12,0,0.24
	c0,0.12-0.01,0.12-0.01,0.24C0.06,9,0.02,9,0.02,9.12c0,0.12,0.01,0.12,0.01,0.24C0.03,9.48,0,9.48,0,9.6c0,0.12,0,0.12,0,0.24
	c0,0.12,0.06,0.12,0.06,0.24c0,0.12-0.01,0.12-0.01,0.24c0,0.12-0.02,0.12-0.02,0.24c0,0.12,0.01,0.12,0.01,0.24
	c0,0.12-0.01,0.12-0.01,0.24c0,0.12-0.01,0.12-0.01,0.24c0,0.12,0.01,0.12,0.01,0.24c0,0.12-0.01,0.12-0.01,0.24
	c0,0.12-0.01,0.12-0.01,0.24c0,0.12,0.03,0.12,0.03,0.24c0,0.12-0.01,0.12-0.01,0.24c0,0.12,0.02,0.12,0.02,0.24
	c0,0.08,0.02,0.16,0.04,0.24c0.01,0.08,0.02,0.16,0.05,0.24c0.03,0.08,0.04,0.16,0.08,0.23c0.04,0.07,0.09,0.14,0.14,0.2
	c0.05,0.06,0.11,0.12,0.17,0.18c0.06,0.05,0.13,0.1,0.2,0.14c0.07,0.04,0.15,0.05,0.23,0.08c0.08,0.03,0.15,0.07,0.23,0.08
	c0.08,0.01,0.16,0,0.24,0c0.12,0,0.12-0.01,0.24-0.01c0.12,0,0.12,0.06,0.24,0.06c0.12,0,0.12-0.04,0.24-0.04
	c0.12,0,0.12-0.01,0.24-0.01c0.12,0,0.12,0.05,0.24,0.05c0.12,0,0.12-0.03,0.24-0.03c0.12,0,0.12-0.03,0.24-0.03
	c0.12,0,0.12,0.03,0.24,0.03c0.12,0,0.12-0.02,0.24-0.02c0.12,0,0.12,0.01,0.24,0.01c0.12,0,0.12,0.04,0.24,0.04
	c0.12,0,0.12-0.05,0.24-0.05c0.12,0,0.12,0.05,0.24,0.05c0.12,0,0.12-0.05,0.24-0.05c0.12,0,0.12-0.01,0.24-0.01
	c0.12,0,0.12,0.03,0.24,0.03c0.12,0,0.12-0.02,0.24-0.02c0.12,0,0.12-0.01,0.24-0.01c0.12,0,0.12,0.04,0.24,0.04
	c0.12,0,0.12-0.02,0.24-0.02c0.12,0,0.12,0,0.24,0c0.12,0,0.12,0.02,0.24,0.02c0.12,0,0.12,0.02,0.24,0.02
	c0.12,0,0.12-0.05,0.24-0.05c0.12,0,0.12,0.03,0.24,0.03c0.12,0,0.12-0.02,0.24-0.02c0.12,0,0.12-0.01,0.24-0.01
	c0.12,0,0.12,0.03,0.24,0.03c0.12,0,0.12,0.01,0.24,0.01c0.12,0,0.12,0,0.24,0c0.12,0,0.12-0.04,0.24-0.04
	c0.12,0,0.12,0.04,0.24,0.04c0.12,0,0.12,0,0.24,0c0.12,0,0.12-0.01,0.24-0.01c0.12,0,0.12-0.04,0.24-0.04
	c0.12,0,0.12,0.02,0.24,0.02c0.12,0,0.12,0.01,0.24,0.01c0.12,0,0.12-0.03,0.24-0.03c0.12,0,0.12,0.01,0.24,0.01
	c0.12,0,0.12,0.01,0.24,0.01c0.12,0,0.12-0.01,0.24-0.01c0.12,0,0.12,0.02,0.24,0.02c0.12,0,0.12-0.05,0.24-0.05
	c0.12,0,0.12,0.04,0.24,0.04c0.12,0,0.12-0.05,0.24-0.05c0.12,0,0.12,0.03,0.24,0.03s0.12,0,0.24,0c0.08,0,0.16-0.04,0.24-0.05
	c0.08-0.01,0.17,0.02,0.25-0.01c0.08-0.03,0.14-0.08,0.22-0.13c0.07-0.04,0.13-0.09,0.2-0.15c0.06-0.05,0.14-0.1,0.19-0.16
	c0.05-0.06,0.06-0.16,0.1-0.23c0.04-0.07,0.07-0.14,0.1-0.22c0.03-0.08,0.11-0.14,0.12-0.22c0.01-0.08-0.01-0.17-0.01-0.25
	c0-0.12-0.02-0.12-0.02-0.24c0-0.12,0.02-0.12,0.02-0.24c0-0.12,0.03-0.12,0.03-0.24c0-0.12-0.05-0.12-0.05-0.24
	c0-0.12,0.05-0.12,0.05-0.24c0-0.12-0.04-0.12-0.04-0.24c0-0.12,0-0.12,0-0.24c0-0.12,0.01-0.12,0.01-0.24
	c0-0.12,0.01-0.12,0.01-0.24c0-0.12-0.02-0.12-0.02-0.24c0-0.12,0.03-0.12,0.03-0.24c0-0.12,0.01-0.12,0.01-0.24
	c0-0.12,0.01-0.12,0.01-0.24c0-0.12-0.04-0.12-0.04-0.24c0-0.12-0.02-0.12-0.02-0.24c0-0.12,0.07-0.12,0.07-0.24
	c0-0.12-0.06-0.12-0.06-0.24c0-0.12,0.05-0.12,0.05-0.24c0-0.12-0.01-0.12-0.01-0.24c0-0.12,0.02-0.12,0.02-0.24
	c0-0.12-0.02-0.12-0.02-0.24c0-0.12-0.02-0.12-0.02-0.24c0-0.12,0.05-0.12,0.05-0.24c0-0.12-0.02-0.12-0.02-0.24
	c0-0.12-0.04-0.12-0.04-0.24c0-0.12,0.05-0.12,0.05-0.24c0-0.12-0.03-0.12-0.03-0.24c0-0.12-0.04-0.12-0.04-0.24
	c0-0.12,0.03-0.12,0.03-0.24c0-0.12,0-0.12,0-0.24c0-0.12,0.03-0.12,0.03-0.24c0-0.12-0.03-0.12-0.03-0.24
	c0-0.12,0.02-0.12,0.02-0.24c0-0.12-0.06-0.12-0.06-0.24c0-0.12,0.02-0.12,0.02-0.24c0-0.12,0.02-0.12,0.02-0.24
	c0-0.12,0.03-0.12,0.03-0.24c0-0.12-0.05-0.12-0.05-0.24c0-0.12,0.01-0.12,0.01-0.24c0-0.12,0.02-0.12,0.02-0.24
	c0-0.12,0.01-0.12,0.01-0.24c0-0.12-0.01-0.12-0.01-0.24c0-0.12-0.01-0.12-0.01-0.24c0-0.12,0.02-0.12,0.02-0.24
	c0-0.12-0.04-0.12-0.04-0.24c0-0.12,0.01-0.12,0.01-0.24s0.03-0.12,0.03-0.24c0-0.08-0.04-0.16-0.05-0.24
	c-0.01-0.08-0.02-0.16-0.05-0.24C14.01,0.89,14,0.8,13.96,0.73c-0.04-0.07-0.11-0.12-0.16-0.18c-0.05-0.06-0.12-0.11-0.18-0.16
	c-0.06-0.05-0.13-0.1-0.2-0.14c-0.07-0.04-0.14-0.06-0.22-0.09c-0.08-0.03-0.15-0.07-0.23-0.08C12.89,0.06,12.81,0.02,12.73,0.02z
	 M9.76,2.51C9.71,2.62,9.75,2.63,9.7,2.74c-0.04,0.11-0.06,0.1-0.1,0.22C9.56,3.07,9.59,3.08,9.54,3.19C9.5,3.3,9.45,3.28,9.4,3.39
	C9.36,3.5,9.39,3.51,9.34,3.62C9.3,3.73,9.31,3.74,9.27,3.85C9.22,3.96,9.23,3.96,9.18,4.07C9.14,4.18,9.15,4.19,9.1,4.3
	C9.06,4.41,9.03,4.39,8.98,4.5C8.94,4.62,8.94,4.62,8.9,4.73C8.85,4.84,8.88,4.85,8.83,4.96c-0.04,0.11-0.07,0.1-0.12,0.21
	C8.67,5.28,8.7,5.29,8.65,5.4C8.61,5.51,8.6,5.51,8.55,5.62C8.51,5.73,8.53,5.74,8.48,5.85C8.44,5.96,8.4,5.94,8.36,6.06
	C8.31,6.17,8.35,6.18,8.31,6.29c-0.03,0.07,0,0.12,0.02,0.18C8.35,6.54,8.38,6.6,8.44,6.62C8.56,6.68,8.56,6.7,8.68,6.75
	C8.8,6.8,8.8,6.81,8.92,6.87c0.12,0.05,0.14,0.02,0.26,0.07C9.3,6.99,9.31,6.97,9.43,7.03c0.09,0.04,0.14,0.14,0.16,0.22
	c0.01,0.08-0.03,0.17-0.1,0.23C9.4,7.57,9.39,7.55,9.31,7.64C9.22,7.72,9.22,7.72,9.14,7.8C9.05,7.89,9.08,7.92,9,8
	C8.91,8.08,8.87,8.05,8.79,8.13C8.7,8.21,8.74,8.25,8.66,8.34C8.57,8.42,8.57,8.41,8.48,8.5c-0.09,0.08-0.1,0.06-0.19,0.15
	C8.2,8.72,8.22,8.74,8.14,8.83C8.05,8.91,8.01,8.87,7.92,8.95c-0.09,0.08-0.06,0.12-0.14,0.2C7.69,9.23,7.69,9.23,7.61,9.31
	C7.52,9.39,7.53,9.41,7.45,9.49c-0.09,0.08-0.12,0.05-0.2,0.13C7.16,9.7,7.17,9.72,7.09,9.8C7,9.89,6.98,9.86,6.89,9.94
	c-0.09,0.08-0.07,0.1-0.15,0.18c-0.09,0.08-0.08,0.09-0.16,0.17c-0.09,0.08-0.12,0.05-0.2,0.13c-0.09,0.08-0.05,0.12-0.13,0.2
	c-0.09,0.08-0.08,0.09-0.17,0.17c-0.09,0.08-0.11,0.05-0.2,0.14c-0.09,0.08-0.07,0.1-0.15,0.19c-0.09,0.08-0.09,0.08-0.18,0.16
	c-0.09,0.08-0.07,0.1-0.16,0.18c-0.09,0.08-0.13,0.04-0.21,0.12c-0.09,0.08-0.09,0.08-0.18,0.16c-0.09,0.08-0.06,0.11-0.15,0.19
	c-0.07,0.06-0.15,0.11-0.22,0.1c-0.08-0.01-0.17-0.08-0.21-0.14c-0.04-0.06-0.05-0.17-0.02-0.25c0.04-0.11,0.05-0.11,0.09-0.22
	c0.04-0.11,0.04-0.11,0.08-0.22c0.04-0.11,0.07-0.1,0.11-0.21c0.04-0.11,0.06-0.11,0.1-0.22c0.04-0.11,0.05-0.11,0.09-0.22
	c0.04-0.11,0.02-0.12,0.07-0.23C4.97,10.22,4.96,10.22,5,10.1c0.04-0.11,0.08-0.09,0.13-0.21c0.04-0.11,0-0.13,0.05-0.24
	c0.04-0.11,0.07-0.1,0.12-0.21c0.04-0.11,0-0.13,0.04-0.24C5.37,9.1,5.38,9.1,5.43,8.99c0.04-0.11,0.04-0.11,0.08-0.22
	c0.04-0.11,0.03-0.12,0.07-0.23c0.04-0.11,0.07-0.1,0.12-0.21c0.04-0.11,0.07-0.1,0.11-0.21C5.86,8,5.84,8,5.88,7.89
	c0.03-0.07,0.02-0.14-0.01-0.2S5.8,7.57,5.74,7.54C5.61,7.49,5.62,7.46,5.5,7.41C5.38,7.36,5.37,7.37,5.25,7.32
	C5.13,7.26,5.13,7.27,5,7.21C4.88,7.16,4.87,7.19,4.75,7.13C4.66,7.1,4.6,7.01,4.59,6.92C4.57,6.84,4.62,6.76,4.69,6.7
	c0.09-0.08,0.07-0.1,0.16-0.18C4.93,6.43,4.91,6.41,5,6.33c0.09-0.08,0.12-0.04,0.21-0.13C5.3,6.12,5.26,6.09,5.35,6
	c0.09-0.08,0.08-0.08,0.17-0.17C5.6,5.75,5.61,5.76,5.69,5.67C5.78,5.59,5.78,5.6,5.87,5.51c0.09-0.08,0.11-0.06,0.2-0.14
	C6.15,5.29,6.15,5.29,6.23,5.2c0.09-0.08,0.1-0.06,0.19-0.15C6.51,4.98,6.51,4.97,6.6,4.89c0.09-0.08,0.05-0.12,0.13-0.21
	C6.81,4.6,6.82,4.61,6.91,4.53c0.09-0.08,0.1-0.07,0.18-0.15C7.18,4.29,7.17,4.29,7.26,4.2c0.09-0.08,0.09-0.07,0.18-0.16
	c0.09-0.08,0.09-0.08,0.18-0.16C7.7,3.81,7.7,3.8,7.78,3.72c0.09-0.08,0.09-0.07,0.18-0.16C8.05,3.48,8.06,3.48,8.14,3.4
	C8.23,3.32,8.21,3.3,8.3,3.22c0.09-0.08,0.09-0.07,0.18-0.16c0.09-0.08,0.07-0.1,0.16-0.18C8.72,2.8,8.71,2.78,8.8,2.7
	c0.09-0.08,0.09-0.08,0.18-0.16c0.09-0.08,0.1-0.07,0.19-0.15c0.09-0.08,0.09-0.08,0.18-0.17c0.07-0.06,0.14-0.08,0.22-0.07
	c0.08,0.01,0.15,0.06,0.19,0.12C9.79,2.35,9.79,2.42,9.76,2.51z"/>
</svg>
