<?xml version="1.0" encoding="utf-8"?>
<!-- Generator: Adobe Illustrator 27.0.0, SVG Export Plug-In . SVG Version: 6.00 Build 0)  -->
<svg version="1.1" id="Livello_1" xmlns="http://www.w3.org/2000/svg" xmlns:xlink="http://www.w3.org/1999/xlink" x="0px" y="0px"
	 viewBox="0 0 14.17 14.17" style="enable-background:new 0 0 14.17 14.17;" xml:space="preserve">
<path d="M3.56,0.05C3.47,0.13,3.6,0.17,3.6,0.29c0,0.12-0.03,0.12-0.03,0.23c0,0.12,0.01,0.12,0.01,0.23c0,0.12,0.03,0.12,0.03,0.23
	s0.05,0.15-0.03,0.24c-0.08,0.08-0.12,0-0.23,0c-0.12,0-0.12-0.01-0.23-0.01c-0.12,0-0.12-0.01-0.23-0.01
	c-0.12,0-0.12,0.02-0.23,0.02c-0.12,0-0.12,0.02-0.23,0.02c-0.12,0-0.12-0.06-0.23-0.06c-0.12,0-0.12,0.04-0.23,0.04
	c-0.12,0-0.12-0.02-0.23-0.02c-0.12,0-0.12-0.02-0.23-0.02c-0.12,0-0.12,0-0.23,0c-0.12,0-0.12,0.03-0.23,0.03
	c-0.12,0-0.12,0.01-0.23,0.01c-0.12,0-0.12-0.04-0.23-0.04c-0.12,0-0.12,0-0.24,0S0.15,1.16,0.07,1.25
	c-0.08,0.09,0.01,0.1,0.01,0.22c0,0.12-0.06,0.12-0.06,0.24c0,0.12,0,0.12,0,0.24c0,0.12,0.01,0.12,0.01,0.24
	c0,0.12,0.04,0.12,0.04,0.24c0,0.12-0.05,0.12-0.05,0.24c0,0.12,0.05,0.12,0.05,0.24c0,0.12,0,0.12,0,0.24
	c0,0.12-0.03,0.12-0.03,0.24c0,0.12,0.02,0.12,0.02,0.24c0,0.12-0.03,0.12-0.03,0.25c0,0.12-0.03,0.13,0,0.25
	c0.06,0.05,0.13,0.11,0.2,0.15C0.3,4.36,0.38,4.38,0.45,4.42c0.07,0.05,0.14,0.08,0.2,0.13c0.07,0.04,0.14,0.08,0.2,0.12
	c0.07,0.04,0.11,0.13,0.17,0.17c0.07,0.04,0.15,0.06,0.22,0.1C1.32,4.99,1.37,5.06,1.44,5.1c0.07,0.04,0.15,0.06,0.22,0.1
	C1.73,5.24,1.8,5.27,1.87,5.31c0.07,0.04,0.14,0.07,0.21,0.11C2.16,5.45,2.22,5.5,2.29,5.54C2.37,5.58,2.43,5.62,2.5,5.66
	c0.07,0.04,0.17,0.03,0.24,0.06c0.07,0.03,0.15,0.07,0.22,0.1c0.08,0.03,0.15,0.07,0.22,0.1C3.25,5.95,3.33,5.98,3.4,6.01
	c0.08,0.03,0.15,0.08,0.22,0.1c0.08,0.03,0.15,0.06,0.22,0.08C3.92,6.22,4,6.24,4.07,6.27C4.15,6.3,4.22,6.32,4.29,6.34
	c0.09,0.03,0.16,0.05,0.23,0.07C4.67,6.45,4.67,6.4,4.74,6.5c0.07,0.1-0.03,0.09-0.04,0.24c-0.01,0.07,0.02,0.15,0,0.24
	C4.69,7.06,4.65,7.13,4.63,7.22C4.62,7.29,4.6,7.37,4.58,7.46C4.56,7.53,4.56,7.61,4.54,7.69c-0.02,0.07-0.07,0.14-0.1,0.22
	C4.42,7.99,4.43,8.08,4.4,8.16C4.38,8.24,4.36,8.32,4.32,8.39C4.29,8.47,4.23,8.53,4.19,8.6c-0.03,0.07-0.07,0.15-0.1,0.22
	c-0.03,0.07-0.06,0.15-0.1,0.22c-0.04,0.07-0.1,0.13-0.14,0.2C3.81,9.31,3.81,9.41,3.77,9.48C3.73,9.55,3.67,9.61,3.62,9.68
	C3.58,9.74,3.56,9.83,3.52,9.9c-0.05,0.07-0.11,0.12-0.16,0.19c-0.05,0.06-0.09,0.14-0.14,0.2c-0.05,0.06-0.12,0.11-0.17,0.18
	c-0.05,0.06-0.11,0.11-0.17,0.18c-0.05,0.06-0.11,0.12-0.17,0.18c-0.05,0.06-0.1,0.13-0.16,0.19c-0.06,0.06-0.08,0.15-0.14,0.21
	c-0.07,0.04-0.18,0.02-0.25,0.05c-0.08,0.03-0.15,0.06-0.23,0.09c-0.08,0.03-0.14,0.1-0.21,0.13c-0.08,0.03-0.17,0-0.25,0.03
	c-0.08,0.02-0.15,0.09-0.22,0.11c-0.08,0.02-0.17,0.02-0.24,0.04c-0.08,0.02-0.16,0.06-0.24,0.07c-0.09,0.01-0.17-0.02-0.25-0.01
	c-0.09,0.01-0.17,0.04-0.24,0.04c-0.15,0.01-0.21-0.1-0.25,0.01C0,11.88,0.03,11.89,0.03,12c0,0.12,0.01,0.12,0.01,0.23
	c0,0.12-0.02,0.12-0.02,0.23c0,0.12,0.05,0.12,0.05,0.23c0,0.12-0.01,0.12-0.01,0.23c0,0.12-0.04,0.12-0.04,0.23
	c0,0.12,0.03,0.12,0.03,0.23c0,0.12,0.01,0.12,0.01,0.23c0,0.12,0.01,0.12,0.01,0.24c0,0.12-0.12,0.17-0.04,0.26
	c0.08,0.08,0.14,0,0.26,0c0.12,0,0.12-0.01,0.23-0.01c0.12,0,0.12-0.05,0.23-0.05c0.12,0,0.12,0.03,0.23,0.03
	c0.12,0,0.12-0.02,0.23-0.02c0.12,0,0.12-0.01,0.23-0.01c0.12,0,0.12,0.04,0.23,0.04c0.12,0,0.12-0.02,0.23-0.02
	c0.12,0,0.12,0.01,0.24,0.01c0.12,0,0.12,0.02,0.24,0.02c0.12,0,0.12-0.04,0.23-0.04c0.12,0,0.12,0.06,0.23,0.06
	c0.12,0,0.12-0.02,0.23-0.02c0.12,0,0.12-0.03,0.23-0.03c0.12,0,0.12,0.02,0.23,0.02c0.12,0,0.12,0.01,0.23,0.01
	c0.12,0,0.12-0.01,0.23-0.01c0.12,0,0.12-0.01,0.23-0.01c0.12,0,0.12-0.01,0.23-0.01c0.12,0,0.12-0.01,0.23-0.01
	c0.12,0,0.12,0,0.23,0c0.12,0,0.12,0.02,0.23,0.02c0.12,0,0.12,0.05,0.23,0.05c0.12,0,0.12-0.04,0.24-0.04s0.14,0.08,0.24,0.02
	c0.1-0.06,0.02-0.13,0.07-0.24c0.05-0.11,0.1-0.08,0.15-0.19c0.05-0.11,0.03-0.12,0.09-0.22c0.05-0.11,0.05-0.11,0.1-0.22
	c0.05-0.11,0.07-0.1,0.13-0.2c0.05-0.11,0.06-0.1,0.11-0.21c0.05-0.11,0.04-0.11,0.09-0.22c0.05-0.11,0.03-0.12,0.08-0.22
	c0.05-0.11,0.06-0.1,0.12-0.21C6.91,12.09,6.95,12.1,7,12c0.05-0.11-0.04-0.22,0.08-0.22c0.12,0,0.05,0.1,0.1,0.21
	c0.05,0.11,0.07,0.1,0.13,0.2c0.05,0.11,0.03,0.12,0.08,0.22c0.05,0.11,0.09,0.09,0.14,0.19c0.05,0.11,0.01,0.13,0.06,0.23
	c0.05,0.11,0.06,0.1,0.12,0.21c0.05,0.11,0.04,0.11,0.09,0.22c0.05,0.11,0.07,0.1,0.12,0.21c0.05,0.11,0.07,0.1,0.12,0.21
	c0.05,0.11,0.05,0.11,0.11,0.21c0.05,0.11-0.01,0.16,0.1,0.22c0.1,0.06,0.12,0,0.24,0c0.12,0,0.12,0.02,0.23,0.02
	c0.12,0,0.12-0.05,0.23-0.05c0.12,0,0.12,0.02,0.23,0.02c0.12,0,0.12-0.01,0.23-0.01c0.12,0,0.12,0.02,0.23,0.02
	c0.12,0,0.12-0.01,0.23-0.01c0.12,0,0.12,0.03,0.23,0.03c0.12,0,0.12,0,0.23,0c0.12,0,0.12-0.05,0.23-0.05
	c0.12,0,0.12,0.02,0.23,0.02c0.12,0,0.12,0,0.23,0c0.12,0,0.12,0.05,0.23,0.05c0.12,0,0.12-0.03,0.24-0.03
	c0.12,0,0.12,0.02,0.24,0.02c0.12,0,0.12-0.02,0.23-0.02c0.12,0,0.12-0.01,0.23-0.01c0.12,0,0.12,0.02,0.23,0.02
	c0.12,0,0.12-0.05,0.23-0.05c0.12,0,0.12,0.04,0.23,0.04c0.12,0,0.12-0.02,0.23-0.02c0.12,0,0.12,0.04,0.23,0.04
	c0.12,0,0.12-0.04,0.23-0.04c0.12,0,0.12,0,0.24,0c0.12,0,0.12,0.02,0.24,0.02c0.12,0,0.03,0,0.03-0.24c0-0.06-0.06-0.14-0.06-0.23
	c0-0.07,0.03-0.15,0.03-0.23c0-0.07,0.03-0.15,0.03-0.23c0-0.07-0.01-0.15-0.01-0.23c0-0.07-0.02-0.15-0.02-0.23
	c0-0.07-0.03-0.15-0.03-0.23c0-0.07,0.01-0.15,0.01-0.23c0-0.08,0.04-0.15,0.04-0.24c0-0.08-0.03-0.15-0.03-0.23
	c-0.08,0-0.16,0.01-0.24,0c-0.08-0.01-0.16-0.06-0.24-0.06c-0.08-0.01-0.16-0.01-0.24-0.02c-0.08-0.01-0.16-0.04-0.24-0.06
	c-0.08-0.02-0.16-0.04-0.23-0.06c-0.08-0.02-0.17,0.01-0.25-0.02c-0.08-0.02-0.15-0.08-0.22-0.11c-0.08-0.03-0.16-0.04-0.23-0.07
	c-0.09-0.03-0.16-0.08-0.22-0.11c-0.14-0.06-0.12-0.03-0.21-0.1c-0.09-0.07-0.07-0.05-0.15-0.18c-0.04-0.06-0.1-0.11-0.15-0.19
	c-0.04-0.06-0.03-0.16-0.07-0.23c-0.03-0.07-0.07-0.14-0.1-0.21c-0.03-0.07-0.08-0.13-0.12-0.21c-0.03-0.07-0.08-0.14-0.1-0.21
	c-0.03-0.07-0.05-0.15-0.08-0.22C11,9.65,11,9.57,10.98,9.49c-0.02-0.07-0.07-0.14-0.09-0.22c-0.02-0.08-0.04-0.15-0.06-0.23
	c-0.01-0.08,0-0.16-0.01-0.24c-0.01-0.08-0.01-0.16-0.02-0.23c-0.01-0.08-0.05-0.15-0.05-0.23c0-0.08-0.01-0.16,0-0.24
	c0-0.08,0.05-0.15,0.06-0.23c0.01-0.08,0-0.16,0.02-0.24c0.01-0.08,0.03-0.15,0.05-0.23c0.02-0.08,0.05-0.15,0.07-0.22
	c0.02-0.07,0.04-0.15,0.06-0.23c0.03-0.07,0.02-0.16,0.05-0.23c0.03-0.07,0.1-0.13,0.13-0.2c0.05-0.11,0.04-0.08,0.11-0.21
	c0.03-0.06,0.05-0.14,0.1-0.22c0.04-0.06,0.07-0.14,0.12-0.21c0.04-0.06,0.1-0.12,0.15-0.19c0.05-0.06,0.08-0.14,0.14-0.2
	c0.05-0.06,0.12-0.1,0.18-0.16c0.06-0.06,0.09-0.14,0.15-0.2c0.06-0.05,0.13-0.1,0.19-0.15c0.06-0.05,0.14-0.09,0.2-0.13
	c0.07-0.04,0.15-0.06,0.22-0.1c0.07-0.04,0.14-0.08,0.21-0.12c0.07-0.04,0.14-0.08,0.21-0.12c0.07-0.03,0.13-0.1,0.21-0.13
	c0.07-0.03,0.14-0.08,0.22-0.1c0.08-0.03,0.16-0.04,0.24-0.06c0.08-0.02,0.16-0.02,0.24-0.04c0-0.12-0.01-0.22-0.01-0.3
	c0-0.3-0.02-0.14-0.02-0.29c0-0.12,0.04-0.12,0.04-0.23c0-0.12,0.02-0.12,0.02-0.23c0-0.12-0.06-0.12-0.06-0.23
	c0-0.12,0.04-0.12,0.04-0.23c0-0.12,0-0.12,0-0.23c0-0.12-0.01-0.12-0.01-0.23c0-0.12-0.01-0.12-0.01-0.23c0-0.12,0-0.12,0-0.23
	c0-0.12,0.05-0.12,0.05-0.23c0-0.12-0.02-0.12-0.02-0.23c0-0.12-0.04-0.12-0.04-0.23c0-0.12-0.01-0.12-0.01-0.23
	c0-0.12,0.01-0.12,0.01-0.23c0-0.12,0.01-0.12,0.01-0.24s0.11-0.17,0.03-0.25c-0.09-0.08-0.14,0-0.26,0c-0.12,0-0.12,0.03-0.24,0.03
	c-0.12,0-0.12-0.04-0.24-0.04c-0.12,0-0.12,0.03-0.24,0.03c-0.12,0-0.12-0.01-0.24-0.01c-0.12,0-0.12,0.04-0.24,0.04
	c-0.12,0-0.12-0.06-0.24-0.06c-0.12,0-0.12,0.02-0.24,0.02c-0.12,0-0.12-0.03-0.24-0.03c-0.12,0-0.12,0.06-0.24,0.06
	c-0.12,0-0.12-0.02-0.24-0.02c-0.12,0-0.12-0.03-0.24-0.03c-0.12,0-0.12,0-0.24,0c-0.12,0-0.12,0.04-0.24,0.04
	c-0.12,0-0.12-0.02-0.24-0.02c-0.12,0-0.12,0-0.24,0c-0.12,0-0.12,0.01-0.24,0.01c-0.12,0-0.12-0.01-0.24-0.01
	c-0.12,0-0.12-0.01-0.24-0.01c-0.12,0-0.12-0.01-0.24-0.01c-0.12,0-0.12,0.01-0.24,0.01c-0.12,0-0.12-0.01-0.24-0.01
	c-0.12,0-0.12,0-0.24,0c-0.12,0-0.12,0.03-0.24,0.03c-0.12,0-0.12-0.02-0.24-0.02c-0.12,0-0.12,0.05-0.24,0.05
	c-0.12,0-0.12,0.01-0.24,0.01c-0.12,0-0.12-0.01-0.24-0.01c-0.12,0-0.12-0.03-0.24-0.03c-0.12,0-0.12-0.02-0.24-0.02
	c-0.12,0-0.12,0.03-0.24,0.03c-0.12,0-0.12-0.02-0.24-0.02c-0.12,0-0.12,0.02-0.24,0.02c-0.12,0-0.12,0.01-0.24,0.01
	c-0.12,0-0.12-0.02-0.24-0.02c-0.12,0-0.12,0.01-0.24,0.01c-0.12,0-0.12-0.01-0.24-0.01c-0.12,0-0.12,0.03-0.24,0.03
	c-0.12,0-0.12,0.01-0.24,0.01c-0.12,0-0.12-0.06-0.24-0.06c-0.12,0-0.12,0.01-0.24,0.01c-0.12,0-0.12,0.01-0.24,0.01
	c-0.12,0-0.12,0.04-0.24,0.01C3.68,0.01,3.64-0.04,3.56,0.05z"/>
</svg>
