<?xml version="1.0" encoding="utf-8"?>
<!-- Generator: Adobe Illustrator 27.0.0, SVG Export Plug-In . SVG Version: 6.00 Build 0)  -->
<svg version="1.1" id="Livello_1" xmlns="http://www.w3.org/2000/svg" xmlns:xlink="http://www.w3.org/1999/xlink" x="0px" y="0px"
	 viewBox="0 0 14.17 14.17" style="enable-background:new 0 0 14.17 14.17;" xml:space="preserve">
<path d="M12.73,0.06c-0.12,0-0.12-0.01-0.24-0.01c-0.12,0-0.12-0.03-0.24-0.03c-0.12,0-0.12,0.04-0.24,0.04
	c-0.12,0-0.12-0.02-0.24-0.02c-0.12,0-0.12,0.01-0.24,0.01c-0.12,0-0.12-0.04-0.24-0.04C11.17,0.01,11.17,0,11.05,0
	c-0.12,0-0.12,0.05-0.24,0.05c-0.12,0-0.12-0.01-0.24-0.01c-0.12,0-0.12,0-0.24,0c-0.12,0-0.12,0.01-0.24,0.01
	c-0.12,0-0.12-0.05-0.24-0.05c-0.12,0-0.12,0.02-0.24,0.02c-0.12,0-0.12-0.01-0.24-0.01c-0.12,0-0.12,0.02-0.24,0.02
	c-0.12,0-0.12,0.04-0.24,0.04c-0.12,0-0.12-0.03-0.24-0.03c-0.12,0-0.12-0.01-0.24-0.01c-0.12,0-0.12,0.01-0.24,0.01
	c-0.12,0-0.12,0.02-0.24,0.02C7.82,0.06,7.82,0,7.7,0C7.58,0,7.58,0.07,7.46,0.07c-0.12,0-0.12-0.03-0.24-0.03
	C7.1,0.04,7.1,0,6.98,0C6.86,0,6.86,0.05,6.74,0.05c-0.12,0-0.12-0.03-0.24-0.03c-0.12,0-0.12,0.03-0.24,0.03
	c-0.12,0-0.12,0.01-0.24,0.01c-0.12,0-0.12-0.03-0.24-0.03c-0.12,0-0.12,0.05-0.24,0.05c-0.12,0-0.12-0.03-0.24-0.03
	c-0.12,0-0.12-0.01-0.24-0.01C4.94,0.02,4.94,0,4.81,0c-0.12,0-0.12,0-0.24,0c-0.12,0-0.12,0.02-0.24,0.02
	c-0.12,0-0.12,0.04-0.24,0.04c-0.12,0-0.12-0.03-0.24-0.03c-0.12,0-0.12,0-0.24,0c-0.12,0-0.12,0-0.24,0C3.25,0.04,3.25,0,3.13,0
	C3.01,0,3.01,0.05,2.89,0.05c-0.12,0-0.12-0.04-0.24-0.04c-0.12,0-0.12,0.04-0.24,0.04c-0.12,0-0.12,0.01-0.24,0.01
	c-0.12,0-0.12-0.04-0.24-0.04c-0.12,0-0.12,0.02-0.24,0.02S1.57,0.01,1.44,0.01c-0.08,0-0.17,0.01-0.25,0.02
	C1.11,0.05,1.03,0.06,0.95,0.09C0.87,0.12,0.82,0.2,0.75,0.25C0.68,0.29,0.59,0.3,0.53,0.35c-0.06,0.05-0.1,0.13-0.16,0.19
	C0.32,0.61,0.26,0.67,0.22,0.74c-0.04,0.07-0.1,0.14-0.13,0.22C0.07,1.03,0.04,1.11,0.03,1.19c-0.01,0.08,0,0.17,0,0.25
	c0,0.12,0.01,0.12,0.01,0.24c0,0.12,0.01,0.12,0.01,0.24c0,0.12-0.03,0.12-0.03,0.24c0,0.12,0.01,0.12,0.01,0.24
	c0,0.12,0.01,0.12,0.01,0.24c0,0.12-0.01,0.12-0.01,0.24C0.02,3,0.05,3,0.05,3.12c0,0.12-0.04,0.12-0.04,0.24
	c0,0.12,0.02,0.12,0.02,0.24c0,0.12-0.03,0.12-0.03,0.24c0,0.12,0,0.12,0,0.24c0,0.12,0.02,0.12,0.02,0.24
	c0,0.12-0.03,0.12-0.03,0.24C0.01,4.68,0,4.68,0,4.8c0,0.12,0.06,0.12,0.06,0.24c0,0.12-0.03,0.12-0.03,0.24
	c0,0.12,0.02,0.12,0.02,0.24c0,0.12-0.02,0.12-0.02,0.24c0,0.12-0.03,0.12-0.03,0.24c0,0.12,0.02,0.12,0.02,0.24
	c0,0.12,0.01,0.12,0.01,0.24c0,0.12-0.01,0.12-0.01,0.24c0,0.12,0.02,0.12,0.02,0.24c0,0.12,0,0.12,0,0.24
	c0,0.12,0.03,0.12,0.03,0.24c0,0.12-0.01,0.12-0.01,0.24c0,0.12-0.01,0.12-0.01,0.24c0,0.12-0.02,0.12-0.02,0.24
	c0,0.12,0.01,0.12,0.01,0.24c0,0.12-0.01,0.12-0.01,0.24c0,0.12,0.03,0.12,0.03,0.24C0.05,9,0,9,0,9.12c0,0.12,0.04,0.12,0.04,0.24
	c0,0.12-0.01,0.12-0.01,0.24c0,0.12,0.02,0.12,0.02,0.24c0,0.12,0,0.12,0,0.24c0,0.12-0.03,0.12-0.03,0.24
	c0,0.12,0.03,0.12,0.03,0.24c0,0.12-0.01,0.12-0.01,0.24c0,0.12-0.02,0.12-0.02,0.24c0,0.12,0.03,0.12,0.03,0.24
	c0,0.12-0.02,0.12-0.02,0.24c0,0.12-0.05,0.12-0.05,0.24c0,0.12,0.06,0.12,0.06,0.24c0,0.12-0.03,0.12-0.03,0.24
	c0,0.12,0,0.12,0,0.24c0,0.12,0.02,0.12,0.02,0.24c0,0.08,0.03,0.16,0.05,0.24c0.01,0.08,0.01,0.16,0.04,0.24
	c0.03,0.08,0.06,0.15,0.1,0.22c0.04,0.07,0.07,0.15,0.12,0.22c0.05,0.06,0.11,0.13,0.17,0.18c0.06,0.05,0.14,0.09,0.21,0.13
	c0.07,0.04,0.14,0.09,0.22,0.12c0.08,0.03,0.16,0.06,0.24,0.08c0.08,0.01,0.17,0.02,0.25,0.02c0.12,0,0.12-0.05,0.24-0.05
	c0.12,0,0.12,0.05,0.24,0.05c0.12,0,0.12-0.05,0.24-0.05c0.12,0,0.12,0.04,0.24,0.04c0.12,0,0.12-0.05,0.24-0.05
	c0.12,0,0.12,0.01,0.24,0.01c0.12,0,0.12-0.01,0.24-0.01c0.12,0,0.12,0.01,0.24,0.01c0.12,0,0.12,0.03,0.24,0.03
	c0.12,0,0.12,0.01,0.24,0.01c0.12,0,0.12-0.07,0.24-0.07c0.12,0,0.12,0.04,0.24,0.04c0.12,0,0.12-0.03,0.24-0.03
	c0.12,0,0.12,0.06,0.24,0.06c0.12,0,0.12-0.03,0.24-0.03c0.12,0,0.12,0,0.24,0c0.12,0,0.12,0,0.24,0c0.12,0,0.12-0.02,0.24-0.02
	c0.12,0,0.12,0.03,0.24,0.03c0.12,0,0.12-0.02,0.24-0.02c0.12,0,0.12,0.04,0.24,0.04c0.12,0,0.12-0.03,0.24-0.03
	c0.12,0,0.12-0.02,0.24-0.02c0.12,0,0.12,0.05,0.24,0.05c0.12,0,0.12-0.01,0.24-0.01c0.12,0,0.12,0,0.24,0
	c0.12,0,0.12-0.06,0.24-0.06c0.12,0,0.12,0.07,0.24,0.07c0.12,0,0.12-0.05,0.24-0.05c0.12,0,0.12,0.01,0.24,0.01
	c0.12,0,0.12,0.02,0.24,0.02c0.12,0,0.12,0.01,0.24,0.01c0.12,0,0.12-0.06,0.24-0.06c0.12,0,0.12,0.04,0.24,0.04
	c0.12,0,0.12-0.02,0.24-0.02c0.12,0,0.12,0.01,0.24,0.01c0.12,0,0.12-0.01,0.24-0.01c0.12,0,0.12,0.02,0.24,0.02
	c0.12,0,0.12-0.05,0.24-0.05c0.12,0,0.12,0.01,0.24,0.01c0.12,0,0.12,0.03,0.24,0.03c0.12,0,0.12-0.02,0.24-0.02
	c0.12,0,0.12,0.04,0.24,0.04c0.12,0,0.12-0.03,0.24-0.03c0.12,0,0.12,0.03,0.24,0.03c0.12,0,0.12-0.06,0.24-0.06
	s0.12,0.05,0.24,0.05c0.08,0,0.16-0.03,0.24-0.05c0.08-0.01,0.17-0.02,0.24-0.05c0.08-0.03,0.14-0.08,0.21-0.12
	c0.07-0.04,0.15-0.07,0.21-0.12c0.06-0.05,0.1-0.13,0.16-0.19c0.05-0.06,0.08-0.14,0.12-0.21c0.04-0.07,0.13-0.12,0.16-0.2
	c0.03-0.08,0.01-0.17,0.03-0.25c0.01-0.08-0.01-0.16-0.01-0.24c0-0.12,0.03-0.12,0.03-0.24c0-0.12,0.04-0.12,0.04-0.24
	c0-0.12-0.02-0.12-0.02-0.24c0-0.12,0.01-0.12,0.01-0.24c0-0.12,0-0.12,0-0.24c0-0.12-0.01-0.12-0.01-0.24c0-0.12,0-0.12,0-0.24
	c0-0.12-0.04-0.12-0.04-0.24c0-0.12,0-0.12,0-0.24c0-0.12-0.01-0.12-0.01-0.24c0-0.12,0.03-0.12,0.03-0.24
	c0-0.12,0.02-0.12,0.02-0.24c0-0.12-0.06-0.12-0.06-0.24c0-0.12,0-0.12,0-0.24c0-0.12,0.01-0.12,0.01-0.24
	c0-0.12,0.04-0.12,0.04-0.24c0-0.12-0.02-0.12-0.02-0.24c0-0.12,0.02-0.12,0.02-0.24c0-0.12-0.01-0.12-0.01-0.24
	c0-0.12-0.01-0.12-0.01-0.24c0-0.12-0.03-0.12-0.03-0.24c0-0.12,0.01-0.12,0.01-0.24c0-0.12,0.01-0.12,0.01-0.24
	c0-0.12,0.01-0.12,0.01-0.24c0-0.12-0.02-0.12-0.02-0.24c0-0.12,0.05-0.12,0.05-0.24c0-0.12-0.06-0.12-0.06-0.24
	c0-0.12,0.02-0.12,0.02-0.24c0-0.12,0.01-0.12,0.01-0.24c0-0.12-0.01-0.12-0.01-0.24c0-0.12,0.02-0.12,0.02-0.24
	c0-0.12-0.01-0.12-0.01-0.24c0-0.12,0.02-0.12,0.02-0.24c0-0.12,0-0.12,0-0.24c0-0.12-0.01-0.12-0.01-0.24
	c0-0.12,0.02-0.12,0.02-0.24c0-0.12-0.06-0.12-0.06-0.24c0-0.12,0.01-0.12,0.01-0.24c0-0.12,0-0.12,0-0.24
	c0-0.12,0.05-0.12,0.05-0.24c0-0.12-0.04-0.12-0.04-0.24c0-0.12,0.03-0.12,0.03-0.24c0-0.12-0.04-0.12-0.04-0.24
	c0-0.12-0.01-0.12-0.01-0.24c0-0.12,0-0.12,0-0.24c0-0.12,0.05-0.12,0.05-0.24s-0.02-0.12-0.02-0.24c0-0.08-0.02-0.16-0.03-0.24
	c-0.01-0.08-0.02-0.17-0.04-0.24c-0.03-0.08-0.09-0.14-0.13-0.21c-0.04-0.07-0.08-0.14-0.13-0.21c-0.05-0.06-0.08-0.16-0.14-0.21
	c-0.06-0.05-0.17-0.05-0.24-0.09c-0.07-0.04-0.12-0.12-0.2-0.15c-0.08-0.03-0.16-0.06-0.24-0.07C12.9,0.02,12.81,0.06,12.73,0.06z
	 M10.13,11.45c0,0.08-0.03,0.16-0.06,0.22c-0.03,0.07-0.09,0.12-0.15,0.17c-0.05,0.05-0.09,0.13-0.16,0.16
	c-0.07,0.03-0.15,0.02-0.23,0.02c-0.12,0-0.12,0.01-0.23,0.01C9.19,12.04,9.19,12,9.07,12c-0.12,0-0.12-0.01-0.23-0.01
	c-0.12,0-0.12,0.05-0.23,0.05c-0.12,0-0.12-0.01-0.23-0.01c-0.12,0-0.12,0-0.23,0c-0.12,0-0.12,0.01-0.23,0.01
	C7.79,12.04,7.79,12,7.67,12c-0.12,0-0.12,0.02-0.23,0.02C7.32,12.01,7.32,12,7.21,12c-0.12,0-0.12,0.02-0.23,0.02
	c-0.12,0-0.12,0.04-0.23,0.04c-0.12,0-0.12-0.03-0.23-0.03c-0.12,0-0.12-0.01-0.23-0.01c-0.12,0-0.12,0.01-0.23,0.01
	c-0.12,0-0.12,0.02-0.23,0.02c-0.12,0-0.12-0.06-0.23-0.06c-0.12,0-0.12,0.06-0.23,0.06c-0.12,0-0.12-0.03-0.23-0.03
	c-0.12,0-0.12-0.04-0.23-0.04c-0.12,0-0.12,0.05-0.23,0.05c-0.08,0-0.14-0.05-0.21-0.07c-0.07-0.03-0.15-0.05-0.2-0.1
	c-0.05-0.05-0.1-0.12-0.13-0.19c-0.03-0.07-0.01-0.15-0.01-0.23c0,0-0.05,0-0.05,0c0-0.08,0.05-0.15,0.08-0.22
	c0.03-0.07,0.08-0.12,0.13-0.18C4.3,11,4.36,10.98,4.43,10.95c0.07-0.03,0.13-0.04,0.21-0.04c0.07,0,0.07-0.02,0.14-0.02
	c0.09,0,0.16-0.04,0.24-0.04c0.09,0,0.17,0.02,0.24,0.02c0.09-0.01,0.17-0.02,0.24-0.03c0.09-0.02,0.17-0.04,0.23-0.07
	c0.08-0.04,0.17-0.06,0.21-0.13c0.04-0.06,0.02-0.16,0.04-0.24c0.02-0.07,0.06-0.14,0.07-0.23c0-0.07-0.04-0.15-0.04-0.24
	C6.01,9.8,6,9.8,6,9.68c0-0.12,0.04-0.12,0.04-0.24c0-0.12-0.02-0.12-0.02-0.24c0-0.12,0.04-0.12,0.04-0.24c0-0.12,0-0.12,0-0.24
	c0-0.12,0-0.12,0-0.24c0-0.12-0.05-0.12-0.05-0.24c0-0.12,0.04-0.12,0.04-0.24c0-0.12-0.03-0.12-0.03-0.24
	c0-0.12,0.01-0.12,0.01-0.24c0-0.12,0.02-0.12,0.02-0.24c0-0.12,0-0.12,0-0.24c0-0.12-0.02-0.12-0.02-0.24
	c0-0.12-0.01-0.12-0.01-0.24c0-0.12-0.01-0.12-0.01-0.24c0-0.12,0.03-0.12,0.03-0.24c0-0.12-0.01-0.12-0.01-0.24
	c0-0.12-0.01-0.12-0.01-0.24c0-0.12,0.01-0.12,0.01-0.24c0-0.08-0.04-0.15-0.07-0.21c-0.03-0.07-0.04-0.15-0.1-0.21
	c-0.05-0.05-0.13-0.08-0.2-0.11C5.61,4.8,5.54,4.76,5.46,4.76c-0.14,0-0.14,0-0.27,0c-0.14,0-0.14,0.02-0.27,0.02
	S4.78,4.76,4.64,4.76c-0.08,0-0.14-0.02-0.21-0.05C4.36,4.68,4.27,4.69,4.22,4.63C4.16,4.58,4.14,4.5,4.11,4.43
	C4.08,4.36,4.05,4.29,4.05,4.21c0-0.03,0.02-0.03,0.02-0.05c0-0.1,0.05-0.17,0.09-0.25C4.2,3.82,4.25,3.75,4.32,3.69
	C4.4,3.64,4.48,3.6,4.57,3.59c0.08-0.01,0.16,0,0.23-0.01c0.08-0.01,0.15-0.04,0.23-0.05c0.08-0.01,0.16-0.03,0.23-0.05
	C5.34,3.46,5.4,3.41,5.47,3.38c0.08-0.02,0.15-0.04,0.22-0.07C5.77,3.29,5.84,3.27,5.9,3.23c0.07-0.04,0.14-0.06,0.2-0.11
	c0.06-0.05,0.12-0.1,0.17-0.15c0.05-0.05,0.12-0.1,0.17-0.16c0.05-0.06,0.07-0.14,0.11-0.2c0.04-0.06,0.13-0.1,0.17-0.16
	c0.05-0.08,0.09-0.18,0.18-0.22c0.08-0.05,0.18-0.07,0.28-0.07c0.1,0,0.1-0.02,0.19-0.02c0.1,0,0.1,0,0.19,0
	c0.08,0,0.15,0.04,0.22,0.07C7.87,2.22,7.95,2.25,8,2.3c0.05,0.05,0.09,0.13,0.12,0.2c0.03,0.07,0.03,0.15,0.03,0.23
	c0,0.12,0.03,0.12,0.03,0.24c0,0.12-0.02,0.12-0.02,0.24c0,0.12-0.05,0.12-0.05,0.24c0,0.12,0.06,0.12,0.06,0.24
	c0,0.12-0.03,0.12-0.03,0.24c0,0.12,0,0.12,0,0.24c0,0.12,0.02,0.12,0.02,0.24c0,0.12,0.03,0.12,0.03,0.24
	c0,0.12-0.02,0.12-0.02,0.24c0,0.12,0,0.12,0,0.24c0,0.12-0.03,0.12-0.03,0.24c0,0.12,0,0.12,0,0.24c0,0.12,0.02,0.12,0.02,0.24
	c0,0.12-0.01,0.12-0.01,0.24c0,0.12-0.01,0.12-0.01,0.24c0,0.12,0.01,0.12,0.01,0.24c0,0.12,0.05,0.12,0.05,0.24
	c0,0.12-0.05,0.12-0.05,0.24c0,0.12,0.05,0.12,0.05,0.24c0,0.12-0.04,0.12-0.04,0.24c0,0.12,0.05,0.12,0.05,0.24
	c0,0.12-0.01,0.12-0.01,0.24c0,0.12,0.01,0.12,0.01,0.24c0,0.12-0.01,0.12-0.01,0.24c0,0.12-0.03,0.12-0.03,0.24
	c0,0.12-0.01,0.12-0.01,0.24c0,0.12,0.07,0.12,0.07,0.24c0,0.12-0.04,0.12-0.04,0.24c0,0.12,0.03,0.12,0.03,0.24
	S8.12,9.83,8.12,9.96c0,0.09,0.03,0.18,0.04,0.25c0.01,0.1,0.02,0.18,0.04,0.25c0.02,0.1,0.05,0.17,0.11,0.23
	c0.05,0.06,0.13,0.08,0.22,0.11c0.07,0.02,0.14,0.07,0.24,0.08c0.07,0.01,0.16-0.01,0.25-0.01c0.08,0,0.16,0.04,0.25,0.04
	c0.13,0,0.13-0.03,0.27-0.03c0.08,0,0.16,0,0.23,0.03c0.07,0.03,0.1,0.11,0.16,0.17c0.05,0.05,0.1,0.1,0.13,0.17
	c0.03,0.07,0.04,0.14,0.04,0.22C10.09,11.47,10.13,11.45,10.13,11.45z"/>
</svg>
