<?xml version="1.0" encoding="utf-8"?>
<!-- Generator: Adobe Illustrator 27.0.0, SVG Export Plug-In . SVG Version: 6.00 Build 0)  -->
<svg version="1.1" id="Livello_1" xmlns="http://www.w3.org/2000/svg" xmlns:xlink="http://www.w3.org/1999/xlink" x="0px" y="0px"
	 viewBox="0 0 14.17 14.17" style="enable-background:new 0 0 14.17 14.17;" xml:space="preserve">
<path d="M13.07,4.06c-0.06-0.11-0.1-0.06-0.2-0.13c-0.1-0.07-0.09-0.08-0.19-0.15c-0.1-0.07-0.08-0.1-0.17-0.17
	c-0.1-0.07-0.09-0.08-0.18-0.16c-0.1-0.07-0.13-0.03-0.22-0.11c-0.1-0.07-0.09-0.09-0.18-0.16c-0.1-0.07-0.07-0.1-0.17-0.18
	c-0.1-0.07-0.1-0.07-0.19-0.15c-0.1-0.07-0.11-0.05-0.21-0.13c-0.1-0.07-0.08-0.09-0.18-0.17c-0.1-0.07-0.11-0.06-0.2-0.13
	c-0.1-0.07-0.07-0.1-0.17-0.18c-0.1-0.07-0.12-0.04-0.21-0.12c-0.1-0.07-0.11-0.05-0.21-0.13c-0.1-0.07-0.1-0.07-0.19-0.15
	c-0.1-0.07-0.08-0.09-0.18-0.17c-0.1-0.07-0.1-0.07-0.2-0.14c-0.1-0.07-0.09-0.08-0.19-0.15c-0.1-0.07-0.11-0.06-0.2-0.14
	c-0.1-0.07-0.06-0.12-0.16-0.19c-0.1-0.07-0.12-0.05-0.21-0.12c-0.1-0.07-0.11-0.06-0.2-0.14c-0.1-0.07-0.09-0.08-0.19-0.15
	S8.57,0.56,8.48,0.49C8.42,0.44,8.36,0.38,8.3,0.34C8.23,0.3,8.15,0.29,8.08,0.26C8.01,0.23,7.94,0.2,7.87,0.17
	c-0.07-0.03-0.13-0.1-0.21-0.12c-0.07-0.02-0.16,0-0.23-0.01C7.35,0.03,7.28,0.02,7.2,0.02c-0.08,0-0.15,0.01-0.23,0.02
	C6.89,0.04,6.81-0.01,6.74,0C6.66,0.01,6.58,0.04,6.51,0.05C6.43,0.07,6.36,0.1,6.29,0.12c-0.07,0.03-0.13,0.08-0.2,0.12
	C6.02,0.28,5.94,0.3,5.87,0.34C5.81,0.38,5.75,0.43,5.69,0.48c-0.1,0.07-0.1,0.06-0.2,0.14c-0.1,0.07-0.1,0.07-0.2,0.14
	c-0.1,0.07-0.07,0.11-0.17,0.18C5.03,1.01,5.02,1,4.92,1.07c-0.1,0.07-0.1,0.07-0.19,0.15C4.64,1.29,4.64,1.3,4.54,1.37
	c-0.1,0.07-0.1,0.07-0.19,0.15C4.25,1.59,4.26,1.6,4.16,1.67c-0.1,0.07-0.09,0.08-0.19,0.15c-0.1,0.07-0.1,0.07-0.2,0.14
	C3.68,2.04,3.7,2.06,3.6,2.13C3.5,2.21,3.48,2.18,3.39,2.25c-0.1,0.07-0.11,0.06-0.2,0.13C3.09,2.46,3.12,2.5,3.03,2.58
	c-0.1,0.07-0.11,0.06-0.2,0.13c-0.1,0.07-0.11,0.06-0.21,0.13C2.52,2.92,2.53,2.93,2.44,3C2.34,3.08,2.35,3.1,2.26,3.17
	C2.16,3.24,2.15,3.23,2.05,3.3C1.96,3.38,1.97,3.4,1.88,3.47C1.78,3.54,1.75,3.5,1.65,3.58C1.56,3.65,1.59,3.7,1.5,3.77
	C1.4,3.85,1.38,3.82,1.28,3.9c-0.1,0.07-0.11,0.06-0.16,0.17c-0.06,0.11,0,0.11-0.02,0.23C1.09,4.41,1.03,4.41,1.01,4.53
	C1,4.65,1.04,4.65,1.02,4.77C1.01,4.89,1.01,4.89,0.99,5.01C0.98,5.13,0.97,5.13,0.96,5.25c-0.01,0.12,0,0.12-0.01,0.24
	C0.93,5.61,0.91,5.6,0.9,5.72C0.89,5.84,0.93,5.85,0.92,5.97C0.91,6.09,0.87,6.08,0.86,6.2C0.84,6.32,0.85,6.32,0.83,6.44
	c-0.01,0.12,0.02,0.12,0,0.24C0.82,6.8,0.82,6.8,0.81,6.92C0.8,7.04,0.75,7.04,0.74,7.16C0.73,7.28,0.73,7.28,0.72,7.4
	C0.7,7.52,0.7,7.52,0.69,7.64C0.68,7.76,0.68,7.76,0.67,7.88C0.65,8,0.65,7.99,0.63,8.11C0.62,8.23,0.66,8.24,0.64,8.36
	C0.63,8.48,0.62,8.48,0.61,8.6C0.59,8.72,0.62,8.72,0.61,8.84C0.6,8.96,0.57,8.96,0.55,9.08C0.54,9.2,0.54,9.2,0.53,9.32
	c-0.01,0.12,0,0.12-0.01,0.24C0.5,9.68,0.48,9.67,0.47,9.79c-0.01,0.12,0.01,0.12,0,0.24c-0.01,0.12-0.03,0.12-0.04,0.24
	c-0.01,0.12-0.04,0.12-0.05,0.24c-0.01,0.12,0.05,0.13,0.04,0.25C0.4,10.88,0.37,10.88,0.36,11c-0.01,0.12,0.01,0.12,0,0.24
	c-0.01,0.12-0.02,0.12-0.04,0.24C0.3,11.6,0.3,11.6,0.29,11.72c-0.01,0.12-0.04,0.12-0.05,0.24c-0.01,0.12,0.02,0.12,0,0.24
	c-0.01,0.12-0.03,0.12-0.04,0.24c-0.01,0.12,0.03,0.12,0.01,0.24C0.2,12.8,0.2,12.8,0.19,12.92c-0.01,0.12-0.03,0.12-0.04,0.24
	c-0.01,0.12-0.05,0.12-0.07,0.24c-0.01,0.12,0,0.12-0.01,0.24c-0.01,0.12-0.01,0.12-0.02,0.24S0.01,14,0,14.12
	c0,0,0.03,0.01,0.03,0.01c0.12,0,0.12-0.01,0.24-0.01c0.12,0,0.12,0.01,0.24,0.01c0.12,0,0.12-0.03,0.24-0.03
	c0.12,0,0.12,0.04,0.24,0.04c0.12,0,0.12,0.01,0.24,0.01c0.12,0,0.12-0.01,0.24-0.01c0.12,0,0.12-0.02,0.24-0.02
	c0.12,0,0.12,0.03,0.24,0.03c0.12,0,0.12-0.03,0.24-0.03c0.12,0,0.12,0,0.24,0c0.12,0,0.12,0.01,0.24,0.01
	c0.12,0,0.12-0.04,0.24-0.04c0.12,0,0.12,0.06,0.24,0.06c0.12,0,0.12,0,0.24,0c0.12,0,0.12-0.01,0.24-0.01
	c0.12,0,0.12,0.01,0.24,0.01c0.12,0,0.12-0.02,0.24-0.02c0.12,0,0.12-0.03,0.24-0.03c0.12,0,0.12,0.04,0.24,0.04
	c0.12,0,0.12-0.04,0.24-0.04C5,14.1,5,14.09,5.12,14.09c0.12,0,0.18,0.14,0.27,0.05c0.08-0.08-0.03-0.14-0.03-0.26
	c0-0.12,0.01-0.12,0.01-0.23c0-0.12-0.02-0.12-0.02-0.23c0-0.12,0-0.12,0-0.23c0-0.12,0.03-0.12,0.03-0.23
	c0-0.12-0.01-0.12-0.01-0.23c0-0.12,0.02-0.12,0.02-0.23c0-0.12-0.01-0.12-0.01-0.23c0-0.12,0.01-0.12,0.01-0.23
	c0-0.12,0-0.12,0-0.23c0-0.12,0.01-0.12,0.01-0.23c0-0.12-0.02-0.12-0.02-0.23c0-0.12,0.03-0.12,0.03-0.23
	c0-0.12-0.06-0.12-0.06-0.23c0-0.12,0.03-0.12,0.03-0.23c0-0.12-0.01-0.12-0.01-0.24c0-0.12,0.02-0.12,0.02-0.23
	c0-0.12,0-0.12,0-0.24c0-0.12-0.03-0.12-0.03-0.24c0-0.12,0.02-0.11,0.04-0.23c0.04-0.07,0.08-0.12,0.13-0.18
	c0.05-0.06,0.1-0.12,0.16-0.17c0.06-0.06,0.09-0.14,0.15-0.19c0.06-0.05,0.12-0.11,0.19-0.15C6.1,8.7,6.19,8.68,6.26,8.65
	C6.33,8.62,6.42,8.61,6.5,8.59c0.08-0.02,0.16-0.03,0.23-0.05c0.08-0.01,0.15-0.08,0.23-0.08c0.08,0,0.16-0.01,0.24,0
	c0.08,0,0.16,0.04,0.24,0.06C7.52,8.53,7.6,8.58,7.67,8.6c0.08,0.02,0.17,0,0.25,0.03c0.07,0.03,0.12,0.11,0.19,0.16
	c0.07,0.04,0.16,0.05,0.22,0.1C8.4,8.93,8.46,8.99,8.51,9.05C8.57,9.1,8.59,9.2,8.64,9.26C8.69,9.32,8.75,9.37,8.8,9.44
	c0,0,0.02-0.01,0.02,0c0,0.12-0.03,0.12-0.03,0.23c0,0.12-0.01,0.12-0.01,0.23c0,0.12-0.01,0.12-0.01,0.23
	c0,0.12,0.07,0.12,0.07,0.23c0,0.12-0.05,0.12-0.05,0.23c0,0.12,0.05,0.12,0.05,0.23c0,0.12-0.05,0.12-0.05,0.23
	c0,0.12-0.01,0.12-0.01,0.23c0,0.12,0.02,0.12,0.02,0.23c0,0.12,0.01,0.12,0.01,0.23c0,0.12-0.01,0.12-0.01,0.23
	c0,0.12,0.02,0.12,0.02,0.23c0,0.12-0.01,0.12-0.01,0.23c0,0.12,0.02,0.12,0.02,0.23c0,0.12,0.02,0.12,0.02,0.23
	c0,0.12,0,0.12,0,0.24c0,0.12-0.06,0.12-0.06,0.23c0,0.12,0.04,0.12,0.04,0.24c0,0.12,0,0.12,0,0.24c0,0.12-0.11,0.16-0.02,0.24
	c0.09,0.08,0.13-0.02,0.25-0.02c0.12,0,0.12,0.04,0.24,0.04c0.12,0,0.12,0,0.24,0c0.12,0,0.12-0.01,0.24-0.01
	c0.12,0,0.12-0.03,0.24-0.03c0.12,0,0.12,0.03,0.24,0.03c0.12,0,0.12-0.06,0.24-0.06c0.12,0,0.12,0.02,0.24,0.02
	c0.12,0,0.12,0.05,0.24,0.05c0.12,0,0.12-0.06,0.24-0.06c0.12,0,0.12,0.07,0.24,0.07c0.12,0,0.12,0,0.24,0
	c0.12,0,0.12-0.05,0.24-0.05c0.12,0,0.12,0.05,0.24,0.05c0.12,0,0.12-0.04,0.24-0.04c0.12,0,0.12,0.03,0.24,0.03
	c0.12,0,0.12-0.04,0.24-0.04c0.12,0,0.12,0.02,0.24,0.02c0.12,0,0.12,0.02,0.24,0.02c0.12,0,0.12,0.01,0.24,0.01
	c0.12,0,0.12,0,0.24,0c0.12,0,0.12-0.01,0.24-0.01c0,0,0.03-0.03,0.03-0.03C14.16,14,14.11,14,14.1,13.88
	c-0.01-0.12,0.03-0.12,0.02-0.24c-0.01-0.12-0.05-0.12-0.06-0.24c-0.01-0.12-0.02-0.12-0.03-0.24c-0.01-0.12-0.03-0.12-0.04-0.24
	c-0.01-0.12,0.02-0.12,0.01-0.24c-0.01-0.12,0-0.12-0.01-0.24c-0.01-0.12,0-0.12-0.01-0.24c-0.01-0.12-0.01-0.12-0.02-0.24
	c-0.01-0.12-0.06-0.11-0.08-0.23c-0.01-0.12,0-0.12-0.02-0.24c-0.01-0.12,0.01-0.12,0-0.24c-0.01-0.12,0-0.12-0.01-0.24
	c-0.01-0.12,0-0.12-0.02-0.24c-0.01-0.12-0.06-0.11-0.08-0.23c-0.01-0.12,0.01-0.12,0-0.24c-0.01-0.12-0.01-0.12-0.02-0.24
	c-0.01-0.12-0.01-0.12-0.02-0.24c-0.01-0.12-0.02-0.12-0.03-0.24c-0.01-0.12-0.03-0.12-0.04-0.24c-0.01-0.12,0.03-0.12,0.01-0.24
	c-0.01-0.12-0.04-0.12-0.05-0.24c-0.01-0.12-0.03-0.12-0.05-0.24c-0.01-0.12-0.02-0.12-0.03-0.24c-0.01-0.12-0.03-0.12-0.04-0.24
	c-0.01-0.12,0.01-0.12,0-0.24c-0.01-0.12,0-0.12-0.01-0.24c-0.01-0.12,0.01-0.12,0-0.24c-0.01-0.12-0.01-0.12-0.03-0.24
	c-0.01-0.12-0.04-0.12-0.06-0.24c-0.01-0.12-0.02-0.12-0.03-0.24c-0.01-0.12,0-0.12-0.01-0.24c-0.01-0.12-0.02-0.12-0.04-0.24
	C13.3,6.1,13.29,6.1,13.28,5.98c-0.01-0.12-0.03-0.12-0.04-0.24c-0.01-0.12-0.01-0.12-0.02-0.24c-0.01-0.12,0.04-0.13,0.03-0.25
	c-0.01-0.12-0.04-0.12-0.05-0.24c-0.01-0.12-0.01-0.12-0.02-0.24c-0.01-0.12-0.06-0.12-0.08-0.24c-0.01-0.12,0.03-0.12,0.03-0.25
	C13.12,4.17,13.12,4.16,13.07,4.06z"/>
</svg>
