<?xml version="1.0" encoding="utf-8"?>
<!-- Generator: Adobe Illustrator 27.0.0, SVG Export Plug-In . SVG Version: 6.00 Build 0)  -->
<svg version="1.1" id="Livello_1" xmlns="http://www.w3.org/2000/svg" xmlns:xlink="http://www.w3.org/1999/xlink" x="0px" y="0px"
	 viewBox="0 0 11.34 17.01" style="enable-background:new 0 0 11.34 17.01;" xml:space="preserve">
<style type="text/css">
	.st0{fill:#007DBB;}
</style>
<path class="st0" d="M3.7,9.18c-0.07-0.03-0.14-0.06-0.2-0.1c-0.06-0.04-0.14-0.06-0.2-0.11c-0.06-0.05-0.12-0.1-0.17-0.16
	C3.07,8.75,3.06,8.67,3.02,8.6C2.97,8.54,2.93,8.48,2.89,8.41C2.85,8.33,2.88,8.27,2.96,8.22c0.05-0.04,0.13-0.06,0.22-0.08
	c0.07-0.01,0.15-0.03,0.24-0.03c0.08,0,0.16-0.01,0.24,0c0.09,0.01,0.16,0.05,0.23,0.08C3.94,8.2,4.03,8.2,4.11,8.23
	c0.07,0.03,0.14,0.06,0.21,0.1c0.07,0.04,0.11,0.1,0.18,0.15c0.06,0.05,0.12,0.09,0.17,0.15C4.71,8.69,4.76,8.75,4.8,8.82
	c0.04,0.06,0.08,0.13,0.11,0.2c0.03,0.07,0.07,0.14,0.09,0.22c0.03,0.09,0.01,0.13-0.04,0.15C4.93,9.41,4.87,9.45,4.79,9.44
	C4.72,9.44,4.65,9.4,4.57,9.39c-0.08-0.01-0.15,0-0.23-0.01C4.27,9.37,4.19,9.36,4.12,9.34c-0.07-0.02-0.13-0.08-0.21-0.1
	C3.84,9.22,3.75,9.25,3.68,9.22 M5.03,11.16c0.07-0.05,0.13-0.11,0.19-0.16c0.06-0.05,0.11-0.13,0.17-0.19
	c0.06-0.06,0.12-0.12,0.18-0.18c0.06-0.06,0.15-0.09,0.2-0.15c0.06-0.06,0.1-0.13,0.16-0.19c0.04-0.05,0.11-0.01,0.09,0.05
	C6,10.39,5.98,10.47,5.94,10.56c-0.03,0.07-0.05,0.15-0.08,0.23c-0.04,0.07-0.06,0.15-0.11,0.22c-0.05,0.07-0.12,0.11-0.18,0.15
	c-0.08,0.05-0.15,0.12-0.25,0.15c-0.1,0.03-0.2,0.03-0.29,0c-0.09-0.03-0.06-0.08,0.01-0.13 M5.36,9.44
	C5.41,9.38,5.45,9.32,5.5,9.27c0.05-0.05,0.1-0.12,0.16-0.16c0.06-0.04,0.13-0.08,0.2-0.11C5.93,8.98,6.01,9,6.08,8.98
	C6.15,8.96,6.22,8.94,6.3,8.93c0.07-0.01,0.15,0.01,0.22,0.01c0.12-0.01,0.21,0.07,0.17,0.21C6.66,9.24,6.62,9.3,6.56,9.35
	C6.5,9.41,6.45,9.48,6.43,9.55C6.4,9.63,6.38,9.7,6.38,9.78c0,0.07,0.03,0.15,0,0.22c-0.03,0.05-0.08,0.08-0.14,0.09
	c-0.08,0.01-0.11-0.07-0.16-0.13C6.03,9.9,5.97,9.84,5.9,9.8C5.82,9.75,5.72,9.76,5.63,9.78c-0.09,0.01-0.18,0.04-0.26,0
	c-0.06-0.04-0.09-0.1-0.09-0.16C5.28,9.55,5.32,9.49,5.36,9.44 M7.41,10.36c0.05,0,0.13-0.01,0.22-0.01c0.07,0,0.15-0.02,0.22-0.02
	c0.08,0.01,0.16,0.02,0.22,0.04c0.1,0.03,0.14,0.09,0.08,0.16c-0.05,0.06-0.1,0.1-0.15,0.13c-0.06,0.03-0.13,0.03-0.2,0.02
	c-0.07,0-0.13-0.01-0.2-0.03c-0.06-0.02-0.14-0.03-0.22-0.05c-0.07-0.02-0.14-0.03-0.22-0.05c-0.07-0.02-0.13-0.08-0.2-0.1
	c-0.08-0.03-0.16-0.02-0.22-0.05c-0.09-0.04-0.15-0.08-0.19-0.11c-0.08-0.09-0.01-0.07,0.12-0.06c0.07,0.01,0.15,0.01,0.24,0.03
	c0.08,0.02,0.17,0.03,0.24,0.05C7.27,10.35,7.36,10.36,7.41,10.36z M6.85,7.93C6.87,7.85,6.88,7.77,6.91,7.7
	c0.03-0.08,0.04-0.17,0.08-0.23c0.04-0.07,0.09-0.14,0.13-0.21C7.17,7.18,7.26,7.15,7.3,7.09c0.05-0.06,0.11-0.13,0.18-0.18
	c0.07-0.05,0.15-0.08,0.23-0.1c0.08-0.03,0.16-0.04,0.24-0.04C8.03,6.79,8.1,6.8,8.15,6.84c0.06,0.05,0.11,0.1,0.14,0.17
	c0.02,0.07,0,0.14-0.01,0.22c0,0.07,0.01,0.15-0.01,0.23C8.26,7.54,8.22,7.61,8.19,7.68C8.15,7.75,8.09,7.8,8.05,7.85
	C8,7.91,7.96,7.98,7.9,8.04C7.85,8.1,7.8,8.16,7.74,8.22C7.68,8.28,7.63,8.34,7.57,8.39C7.51,8.45,7.45,8.51,7.39,8.56
	C7.31,8.61,7.23,8.63,7.17,8.65c-0.09,0.03-0.18,0.06-0.24,0C6.88,8.61,6.87,8.52,6.85,8.41C6.84,8.35,6.81,8.27,6.81,8.17
	C6.82,8.1,6.84,8.02,6.85,7.93z M9.74,7.86C9.73,7.79,9.71,7.7,9.69,7.62C9.68,7.54,9.63,7.47,9.62,7.39
	C9.6,7.31,9.59,7.23,9.57,7.16C9.55,7.08,9.58,6.99,9.56,6.91C9.54,6.83,9.51,6.76,9.49,6.68C9.48,6.6,9.47,6.52,9.45,6.44
	C9.43,6.37,9.41,6.29,9.39,6.21C9.36,6.13,9.34,6.06,9.31,5.98C9.29,5.91,9.26,5.83,9.23,5.76C9.21,5.68,9.22,5.59,9.19,5.52
	C9.17,5.44,9.11,5.37,9.09,5.3C9.07,5.22,9.05,5.14,9.03,5.06C9,4.99,9.01,4.9,8.98,4.83C8.96,4.75,8.92,4.68,8.9,4.61
	C8.87,4.53,8.84,4.46,8.82,4.38C8.79,4.31,8.76,4.23,8.74,4.16C8.71,4.08,8.67,4.01,8.64,3.94C8.61,3.87,8.61,3.78,8.58,3.71
	c-0.03-0.07-0.1-0.13-0.13-0.2C8.42,3.43,8.42,3.35,8.39,3.28C8.36,3.2,8.31,3.14,8.28,3.06c-0.03-0.07-0.06-0.14-0.1-0.22
	C8.15,2.78,8.16,2.69,8.12,2.62C8.09,2.54,7.99,2.51,7.95,2.44C7.91,2.37,7.88,2.3,7.84,2.23C7.8,2.16,7.81,2.06,7.77,1.99
	c-0.04-0.07-0.09-0.13-0.13-0.2C7.6,1.73,7.55,1.67,7.5,1.6C7.46,1.54,7.4,1.48,7.35,1.42C7.2,1.47,7.19,1.47,7.07,1.57
	C7.04,1.65,7.04,1.74,7.02,1.82C7,1.9,6.95,1.97,6.94,2.05C6.92,2.13,6.9,2.21,6.89,2.28C6.88,2.36,6.92,2.45,6.91,2.53
	C6.9,2.61,6.83,2.68,6.82,2.76C6.81,2.84,6.87,2.93,6.86,3.01C6.85,3.09,6.84,3.17,6.83,3.25C6.83,3.33,6.77,3.4,6.77,3.48
	c0,0.08,0.05,0.16,0.05,0.24c0,0.08-0.06,0.16-0.07,0.24c0,0.08,0.05,0.16,0.05,0.24c0,0.08-0.04,0.16-0.04,0.24
	c0,0.08-0.01,0.16-0.01,0.24c0,0.08,0.03,0.16,0.03,0.24C6.7,4.94,6.63,4.98,6.55,4.99C6.48,5.01,6.4,5,6.32,5.02
	C6.25,5.03,6.17,5.03,6.09,5.05C6.02,5.07,5.94,5.06,5.86,5.08S5.72,5.13,5.64,5.16C5.57,5.18,5.5,5.21,5.42,5.23
	C5.35,5.26,5.28,5.3,5.21,5.32C5.14,5.35,5.07,5.38,5,5.41C4.93,5.44,4.87,5.5,4.79,5.53C4.72,5.56,4.64,5.55,4.57,5.58
	C4.5,5.62,4.45,5.68,4.38,5.72C4.31,5.76,4.21,5.74,4.14,5.77C4.08,5.81,4.02,5.9,3.96,5.94C3.9,5.88,3.87,5.78,3.82,5.72
	C3.77,5.66,3.7,5.62,3.65,5.55C3.6,5.49,3.55,5.43,3.5,5.37C3.46,5.3,3.38,5.26,3.33,5.2C3.28,5.14,3.28,5.04,3.24,4.97
	C3.19,4.91,3.11,4.86,3.07,4.8C3.02,4.73,3,4.65,2.95,4.59c-0.04-0.07-0.08-0.14-0.13-0.2C2.78,4.32,2.74,4.25,2.7,4.19
	C2.65,4.12,2.58,4.08,2.53,4.01c-0.04-0.07-0.08-0.14-0.12-0.2C2.37,3.74,2.33,3.67,2.28,3.6C2.24,3.54,2.15,3.5,2.11,3.44
	C2.06,3.37,2.06,3.27,2.02,3.21C1.97,3.15,1.9,3.1,1.85,3.04C1.8,2.97,1.75,2.92,1.7,2.86C1.54,2.87,1.52,2.85,1.38,2.92
	C1.38,3,1.42,3.1,1.42,3.18c0,0.08-0.06,0.16-0.06,0.24c0,0.08,0.04,0.16,0.04,0.24c0,0.08-0.01,0.16-0.01,0.24
	c0,0.08,0,0.16,0,0.24c0,0.08,0.01,0.16,0.01,0.24c0,0.08-0.03,0.16-0.03,0.24c0,0.08,0.02,0.16,0.02,0.24
	c0,0.08,0.03,0.16,0.03,0.24c0,0.08-0.02,0.16-0.02,0.24c0,0.08,0.03,0.16,0.03,0.24c0,0.08,0,0.16,0,0.24
	c0,0.08-0.04,0.16-0.03,0.24C1.41,6.14,1.41,6.22,1.42,6.3c0.01,0.08,0.04,0.16,0.05,0.24C1.47,6.61,1.5,6.69,1.51,6.77
	c0.01,0.08,0.01,0.16,0.02,0.24C1.55,7.09,1.59,7.16,1.6,7.24c0.01,0.08-0.04,0.17-0.02,0.25c0.02,0.08,0.08,0.15,0.1,0.22
	c0.02,0.08,0.08,0.14,0.1,0.22c0.03,0.08,0.03,0.16,0.05,0.24c0.03,0.08,0.07,0.15,0.1,0.22c0.03,0.08,0.05,0.15,0.07,0.23
	C2.03,8.7,2.02,8.78,2.04,8.86c0.02,0.08,0.05,0.15,0.07,0.23c0.02,0.08,0.07,0.15,0.08,0.23C2.21,9.4,2.2,9.48,2.22,9.56
	C2.23,9.64,2.25,9.72,2.26,9.8c0.01,0.08,0.02,0.16,0.02,0.24c0.01,0.11,0.01,0.11,0.01,0.21c0,0.08,0,0.15,0.01,0.23
	c0,0.08-0.03,0.15-0.03,0.23c0,0.08,0.02,0.15,0.02,0.23c0,0.1,0.01,0.1,0.01,0.2c0,0.08-0.04,0.15-0.04,0.22
	c0,0.08,0.02,0.15,0.01,0.22c0,0.07-0.03,0.14-0.03,0.22c-0.01,0.09,0.03,0.09,0.02,0.17c0,0.09-0.07,0.16-0.1,0.23
	c-0.04,0.07-0.09,0.13-0.14,0.19c-0.05,0.06-0.08,0.15-0.14,0.2c-0.04,0.05-0.11,0.1-0.18,0.18c-0.05,0.06-0.09,0.13-0.15,0.2
	c-0.05,0.06-0.11,0.13-0.16,0.19c-0.05,0.07-0.14,0.1-0.19,0.17c-0.05,0.07-0.1,0.14-0.14,0.21c-0.06,0.08-0.07,0.16-0.09,0.22
	c0.02,0.11,0.02,0.06,0.14,0.16c0.05,0.04,0.1,0.09,0.17,0.14c0.05,0.04,0.1,0.11,0.16,0.16c0.06,0.04,0.14,0.05,0.21,0.09
	c0.06,0.04,0.12,0.08,0.19,0.12c0.06,0.04,0.13,0.07,0.2,0.11c0.06,0.03,0.13,0.07,0.2,0.1c0.07,0.03,0.13,0.08,0.21,0.11
	c0.07,0.03,0.14,0.06,0.22,0.09c0.07,0.03,0.14,0.08,0.21,0.1c0.07,0.02,0.15,0.05,0.23,0.07c0.07,0.02,0.16,0.02,0.23,0.04
	c0.07,0.02,0.14,0.08,0.22,0.1c0.08,0.02,0.16,0,0.24,0.02c0.08,0.02,0.15,0.07,0.22,0.08c0.08,0.02,0.16-0.02,0.24,0
	c0.08,0.01,0.14,0.08,0.22,0.09c0.08,0.01,0.16,0.02,0.23,0.03c0.08,0.01,0.16-0.01,0.24,0c0.08,0.01,0.15,0.05,0.23,0.06
	c0.08,0.01,0.16,0.02,0.23,0.03c0.08,0.01,0.16-0.01,0.24,0c0.08,0.01,0.16-0.01,0.24-0.01c0.08,0.01,0.15,0.07,0.23,0.07
	c0.08,0.01,0.16-0.03,0.24-0.03c0.08,0,0.16,0.05,0.23,0.05c0.08,0,0.16-0.02,0.24-0.01c0.08,0,0.16,0.05,0.23,0.05
	c0.08,0,0.16-0.02,0.24-0.02c0.08,0,0.16,0.01,0.24,0.01c0.08,0,0.16-0.06,0.24-0.06c0.08,0,0.16,0.04,0.24,0.04
	c0.08,0,0.16,0.02,0.24,0.02c0.08,0,0.16-0.01,0.24,0c0.07-0.02,0.15-0.05,0.23-0.07c0.07-0.02,0.15-0.05,0.22-0.08
	c0.07-0.03,0.13-0.1,0.2-0.13c0.07-0.03,0.16-0.02,0.23-0.06c0.07-0.04,0.13-0.09,0.2-0.13c0.07-0.04,0.12-0.1,0.19-0.14
	c0.07-0.04,0.14-0.09,0.2-0.13c0.08-0.05,0.16-0.05,0.22-0.09c0.12-0.08,0.16-0.02,0.22-0.12c-0.01-0.08-0.04-0.17-0.05-0.25
	c-0.01-0.08,0-0.16-0.01-0.24c-0.01-0.08-0.05-0.15-0.06-0.23c-0.01-0.08,0.04-0.16,0.03-0.24c-0.01-0.08-0.03-0.16-0.03-0.23
	c-0.01-0.08-0.04-0.16-0.04-0.23c-0.01-0.08,0.01-0.16,0.01-0.24c-0.01-0.08-0.06-0.15-0.06-0.23c-0.01-0.08,0.01-0.16,0.01-0.24
	c-0.01-0.08-0.04-0.16-0.04-0.23c-0.01-0.08,0.01-0.16,0.01-0.24c-0.01-0.08-0.02-0.16-0.03-0.23c-0.01-0.08,0.01-0.16,0-0.24
	c-0.01-0.08-0.02-0.16-0.03-0.24c-0.01-0.08-0.05-0.16-0.05-0.23c-0.01-0.08,0.04-0.16,0.03-0.24c-0.01-0.08-0.08-0.16-0.08-0.23
	c-0.01-0.09,0.04-0.17,0.04-0.24c-0.01-0.09-0.06-0.17-0.07-0.23c-0.01-0.15,0.01-0.12,0-0.24c0-0.1,0-0.1,0-0.21
	C9.94,9.57,9.96,9.49,9.95,9.4c-0.01-0.08,0-0.17-0.01-0.28C9.92,9,9.9,9,9.88,8.88C9.87,8.78,9.82,8.7,9.81,8.62
	c-0.01-0.09,0-0.18-0.01-0.27C9.79,8.27,9.75,8.19,9.74,8.09"/>
</svg>
