<?xml version="1.0" encoding="utf-8"?>
<!-- Generator: Adobe Illustrator 27.0.0, SVG Export Plug-In . SVG Version: 6.00 Build 0)  -->
<svg version="1.1" id="Livello_1" xmlns="http://www.w3.org/2000/svg" xmlns:xlink="http://www.w3.org/1999/xlink" x="0px" y="0px"
	 viewBox="0 0 14.17 14.17" style="enable-background:new 0 0 14.17 14.17;" xml:space="preserve">
<style type="text/css">
	.st0{fill:#878787;}
</style>
<g>
	<path class="st0" d="M14.1,3.98c-0.07-0.1-0.09-0.07-0.21-0.11c-0.12-0.03-0.12,0-0.24-0.03c-0.12-0.03-0.11-0.04-0.23-0.07
		c-0.12-0.03-0.16,0.04-0.24-0.05c-0.08-0.09-0.01-0.12-0.02-0.24c-0.01-0.12-0.03-0.12-0.04-0.24C13.12,3.12,13.11,3.12,13.1,3
		c-0.01-0.12,0-0.12-0.01-0.24c-0.01-0.12,0.02-0.12,0.01-0.24c-0.01-0.12-0.06-0.12-0.07-0.23c-0.01-0.12,0.03-0.12,0.02-0.24
		c-0.01-0.12-0.02-0.12-0.03-0.24C13.01,1.68,13.01,1.68,13,1.57c-0.01-0.12-0.01-0.12-0.02-0.24c-0.01-0.12-0.04-0.12-0.05-0.24
		c-0.01-0.12,0.1-0.16,0.01-0.25c-0.08-0.09-0.12-0.01-0.24-0.02c-0.12-0.02-0.12,0-0.24-0.02c-0.12-0.02-0.12-0.04-0.24-0.05
		c-0.12-0.02-0.12-0.01-0.24-0.03c-0.12-0.02-0.11-0.06-0.23-0.07c-0.12-0.02-0.12,0.01-0.24,0c-0.12-0.02-0.12-0.04-0.24-0.06
		c-0.12-0.02-0.13,0.03-0.25,0.02c-0.12-0.02-0.12-0.04-0.24-0.06c-0.12-0.02-0.12,0.01-0.24-0.01c-0.12-0.02-0.11-0.08-0.23-0.09
		c-0.12-0.02-0.13,0.04-0.25,0.02C9.94,0.45,9.94,0.41,9.82,0.39C9.7,0.38,9.71,0.36,9.59,0.34C9.47,0.33,9.47,0.33,9.35,0.31
		C9.23,0.3,9.22,0.32,9.1,0.3C8.98,0.28,8.99,0.26,8.87,0.25C8.75,0.23,8.74,0.29,8.62,0.28C8.5,0.26,8.5,0.25,8.38,0.23
		C8.26,0.21,8.26,0.22,8.14,0.21C8.02,0.19,8.02,0.17,7.9,0.15C7.78,0.14,7.78,0.14,7.66,0.12C7.54,0.1,7.55,0.06,7.43,0.05
		C7.3,0.03,7.3,0.03,7.18,0.02S7.06-0.01,6.94,0.01C6.82,0.03,6.82,0.03,6.71,0.08C6.61,0.14,6.64,0.2,6.53,0.25
		c-0.11,0.05-0.13,0-0.24,0.06c-0.11,0.05-0.1,0.06-0.21,0.12C5.98,0.48,5.98,0.48,5.87,0.53C5.77,0.59,5.76,0.57,5.65,0.62
		c-0.11,0.05-0.09,0.09-0.2,0.14C5.35,0.82,5.34,0.8,5.23,0.85C5.13,0.91,5.14,0.94,5.04,1C4.93,1.05,4.93,1.04,4.82,1.1
		C4.71,1.15,4.71,1.14,4.6,1.2C4.5,1.25,4.48,1.21,4.37,1.26c-0.11,0.05-0.1,0.06-0.21,0.11C4.05,1.43,4.06,1.46,3.95,1.5
		c-0.11,0.04-0.12,0-0.24,0.04c-0.12,0.03-0.1,0.08-0.22,0.12c-0.12,0.03-0.13,0-0.24,0.03C3.13,1.72,3.12,1.7,3.01,1.73
		C2.89,1.76,2.9,1.81,2.78,1.84C2.67,1.87,2.65,1.83,2.54,1.86c-0.12,0.03-0.1,0.08-0.22,0.11C2.2,2.01,2.2,2,2.08,2.04
		C1.96,2.07,1.96,2.05,1.84,2.08C1.72,2.12,1.72,2.09,1.6,2.13C1.48,2.16,1.48,2.17,1.36,2.2C1.25,2.23,1.22,2.19,1.13,2.28
		C1.05,2.36,1.1,2.39,1.06,2.5C1.02,2.61,1.05,2.62,1.02,2.73c-0.04,0.11-0.09,0.09-0.12,0.2C0.86,3.04,0.85,3.04,0.81,3.15
		C0.77,3.26,0.79,3.27,0.75,3.38C0.71,3.49,0.74,3.5,0.71,3.61C0.67,3.72,0.69,3.73,0.65,3.84c-0.04,0.11-0.07,0.1-0.11,0.21
		C0.5,4.16,0.53,4.17,0.5,4.28c-0.04,0.11-0.08,0.1-0.11,0.21C0.35,4.6,0.34,4.6,0.3,4.71C0.26,4.82,0.32,4.84,0.28,4.95
		C0.24,5.06,0.25,5.06,0.21,5.18C0.18,5.29,0.17,5.28,0.13,5.4c-0.04,0.11-0.1,0.1-0.12,0.21C-0.01,5.73,0,5.73,0,5.85
		c0,0.12,0,0.12,0,0.24c0,0.12,0.06,0.12,0.06,0.24c0,0.12,0,0.12,0,0.24c0,0.12,0,0.12,0,0.24c0,0.12-0.04,0.12-0.04,0.24
		c0,0.12,0.03,0.12,0.03,0.24c0,0.12-0.03,0.12-0.03,0.24C0.02,7.66,0,7.66,0,7.78C0,7.9,0.01,7.9,0.01,8.02
		c0,0.12,0.01,0.12,0.01,0.24c0,0.12,0.02,0.12,0.02,0.24c0,0.12,0.02,0.12,0.02,0.24c0,0.12-0.05,0.12-0.05,0.24
		c0,0.12-0.01,0.12,0.03,0.24c0.04,0.1,0.05,0.1,0.12,0.18c0.07,0.08,0.1,0.06,0.17,0.14C0.41,9.62,0.4,9.63,0.48,9.72
		C0.55,9.8,0.54,9.8,0.62,9.89c0.07,0.08,0.09,0.07,0.16,0.16s0.06,0.09,0.1,0.19c0.04,0.11,0.06,0.11,0.06,0.22
		c0,0.12-0.02,0.12-0.02,0.23c0,0.11,0.01,0.11,0.01,0.23c0,0.11-0.02,0.11-0.02,0.23c0,0.12,0.03,0.12,0.03,0.23
		c0,0.11-0.01,0.11-0.01,0.23c0,0.12,0,0.12,0,0.23c0,0.12-0.06,0.12-0.06,0.23c0,0.12,0.05,0.12,0.05,0.23
		c0,0.12,0.02,0.12,0.02,0.23c0,0.12-0.05,0.12-0.05,0.23c0,0.12-0.09,0.17-0.01,0.25c0.09,0.08,0.13-0.05,0.25-0.05
		c0.12,0,0.12,0,0.23,0c0.12,0,0.12,0,0.23,0c0.12,0,0.12,0,0.24-0.01c0.12,0,0.12,0.02,0.24,0.02c0.12,0,0.12-0.01,0.24-0.01
		c0.12,0,0.12,0,0.24-0.01c0.12,0,0.12,0,0.24-0.01c0.12,0,0.12-0.04,0.23-0.04c0.12,0,0.12-0.01,0.24-0.01c0.12,0,0.12,0,0.24,0.02
		c0.12,0.02,0.12,0.02,0.23,0.07c0.11,0.05,0.08,0.1,0.19,0.15c0.11,0.05,0.11,0.05,0.22,0.09c0.11,0.05,0.12,0.01,0.23,0.06
		c0.11,0.05,0.1,0.06,0.21,0.11c0.11,0.05,0.1,0.07,0.21,0.12c0.11,0.05,0.12,0.02,0.23,0.06c0.11,0.05,0.12,0.03,0.23,0.08
		c0.11,0.05,0.11,0.05,0.22,0.1c0.11,0.05,0.12,0.04,0.22,0.08c0.11,0.05,0.1,0.08,0.2,0.13C6,14.04,6,14.03,6.11,14.08
		c0.11,0.05,0.1,0.06,0.22,0.08c0.12,0.02,0.11,0.02,0.23,0c0.12-0.01,0.12,0.01,0.24-0.01c0.12-0.01,0.12,0,0.24-0.01
		c0.12-0.01,0.12-0.02,0.24-0.04c0.12-0.01,0.11-0.05,0.23-0.06c0.12-0.01,0.12-0.01,0.24-0.02c0.12-0.01,0.12-0.03,0.23-0.04
		c0.12-0.01,0.12,0.03,0.24,0.02C8.34,14,8.34,14,8.46,13.99c0.12-0.01,0.12-0.02,0.24-0.03c0.12-0.01,0.12-0.05,0.23-0.06
		c0.12-0.01,0.12,0.03,0.24,0.02c0.12-0.01,0.12-0.05,0.23-0.06c0.12-0.01,0.12-0.02,0.24-0.03c0.12-0.01,0.12,0.04,0.24,0.03
		c0.12-0.01,0.12-0.03,0.24-0.04c0.12-0.01,0.12-0.04,0.24-0.05c0.12-0.01,0.13,0.06,0.25,0.01c0.11-0.04,0.09-0.09,0.18-0.16
		c0.1-0.07,0.09-0.07,0.19-0.14c0.1-0.07,0.11-0.05,0.2-0.12c0.1-0.07,0.08-0.1,0.17-0.17c0.1-0.07,0.14-0.01,0.23-0.08
		c0.1-0.07,0.09-0.08,0.19-0.15c0.1-0.07,0.08-0.09,0.18-0.16c0.1-0.07,0.11-0.05,0.2-0.12c0.1-0.07,0.08-0.09,0.18-0.16
		c0.1-0.07,0.12-0.04,0.22-0.1s0.11-0.06,0.16-0.17c0.06-0.11,0.02-0.11,0.03-0.24c0.01-0.12,0.02-0.12,0.03-0.25
		c0.01-0.12-0.03-0.13-0.03-0.25c0.01-0.12,0.05-0.12,0.06-0.25c0.01-0.12,0.02-0.12,0.03-0.25c0.01-0.12,0.02-0.12,0.03-0.25
		c0.01-0.12,0-0.13,0.01-0.25c0.01-0.12-0.05-0.13-0.04-0.25c0.01-0.13,0.05-0.12,0.06-0.25c0.01-0.13-0.06-0.14-0.02-0.26
		c0.04-0.12,0.09-0.09,0.16-0.2c0.07-0.1,0.04-0.12,0.11-0.22c0.07-0.1,0.12-0.07,0.19-0.18c0.07-0.1,0.05-0.12,0.12-0.22
		c0.07-0.1,0.04-0.12,0.11-0.23c0.07-0.1,0.11-0.07,0.18-0.18c0.07-0.1,0.03-0.13,0.1-0.23c0.07-0.1,0.09-0.09,0.16-0.2
		s0.11-0.09,0.15-0.21c0.04-0.12,0.01-0.13,0-0.25c0-0.12-0.02-0.12-0.02-0.25c0-0.12,0.04-0.12,0.03-0.25
		c0-0.12-0.03-0.12-0.03-0.25c0-0.12-0.01-0.12-0.01-0.25c0-0.12,0.04-0.12,0.04-0.25c0-0.12,0-0.12,0-0.25
		c0-0.12-0.04-0.12-0.04-0.25c0-0.12,0.01-0.12,0.01-0.25c0-0.12,0.02-0.12,0.02-0.25c0-0.12-0.03-0.12-0.04-0.25
		c0-0.12,0.01-0.12,0.01-0.25c0-0.12-0.02-0.12-0.02-0.25c0-0.12,0.03-0.12,0.03-0.25c0-0.12-0.03-0.12-0.01-0.25
		C14.15,4.09,14.17,4.08,14.1,3.98z"/>
</g>
</svg>
