<?xml version="1.0" encoding="UTF-8" standalone="no"?>
<!-- Created with Inkscape (http://www.inkscape.org/) -->

<svg
   version="1.1"
   id="svg2"
   width="18.8976"
   height="18.8976"
   viewBox="0 0 18.8976 18.8976"
   sodipodi:docname="ARTG004-AltayDawnOfCivilization-Icon-Stone.ai"
   xmlns:inkscape="http://www.inkscape.org/namespaces/inkscape"
   xmlns:sodipodi="http://sodipodi.sourceforge.net/DTD/sodipodi-0.dtd"
   xmlns="http://www.w3.org/2000/svg"
   xmlns:svg="http://www.w3.org/2000/svg">
  <defs
     id="defs6">
    <clipPath
       clipPathUnits="userSpaceOnUse"
       id="clipPath16">
      <path
         d="M 0,14.173 H 14.173 V 0 H 0 Z"
         id="path14" />
    </clipPath>
  </defs>
  <sodipodi:namedview
     id="namedview4"
     pagecolor="#ffffff"
     bordercolor="#000000"
     borderopacity="0.25"
     inkscape:showpageshadow="2"
     inkscape:pageopacity="0.0"
     inkscape:pagecheckerboard="0"
     inkscape:deskcolor="#d1d1d1" />
  <g
     id="g8"
     inkscape:groupmode="layer"
     inkscape:label="ARTG004-AltayDawnOfCivilization-Icon-Stone"
     transform="matrix(1.3333333,0,0,-1.3333333,0,18.8976)">
    <g
       id="g10">
      <g
         id="g12"
         clip-path="url(#clipPath16)">
        <g
           id="g18"
           transform="translate(14.0952,10.1936)">
          <path
             d="M 0,0 C -0.072,0.096 -0.09,0.074 -0.206,0.106 -0.321,0.137 -0.33,0.105 -0.446,0.137 -0.561,0.169 -0.559,0.178 -0.675,0.21 -0.791,0.242 -0.836,0.17 -0.913,0.263 -0.99,0.354 -0.92,0.386 -0.931,0.504 c -0.01,0.12 -0.026,0.118 -0.036,0.238 -0.011,0.119 -0.021,0.118 -0.032,0.237 -0.01,0.119 0.003,0.12 -0.008,0.24 -0.01,0.119 0.025,0.122 0.014,0.242 -0.01,0.119 -0.056,0.115 -0.066,0.234 -0.011,0.12 0.026,0.123 0.015,0.242 -0.01,0.12 -0.022,0.119 -0.032,0.239 -0.011,0.119 -0.013,0.119 -0.023,0.238 -0.011,0.12 -0.01,0.12 -0.02,0.24 -0.011,0.12 -0.043,0.117 -0.054,0.237 -0.01,0.12 0.097,0.158 0.014,0.245 C -1.242,3.224 -1.282,3.143 -1.401,3.16 -1.521,3.176 -1.523,3.159 -1.643,3.176 -1.763,3.193 -1.76,3.212 -1.88,3.228 -2,3.245 -2.001,3.237 -2.121,3.254 -2.24,3.271 -2.235,3.31 -2.354,3.327 -2.474,3.343 -2.478,3.312 -2.598,3.329 -2.718,3.346 -2.714,3.373 -2.834,3.39 -2.954,3.406 -2.961,3.357 -3.08,3.373 -3.2,3.39 -3.197,3.416 -3.316,3.432 -3.436,3.449 -3.44,3.423 -3.56,3.439 -3.68,3.456 -3.671,3.516 -3.791,3.532 -3.911,3.549 -3.919,3.495 -4.038,3.512 -4.158,3.529 -4.152,3.571 -4.272,3.587 -4.392,3.604 -4.39,3.62 -4.509,3.636 -4.629,3.653 -4.63,3.648 -4.75,3.665 -4.869,3.682 -4.872,3.664 -4.992,3.681 -5.111,3.698 -5.109,3.715 -5.229,3.732 -5.349,3.749 -5.357,3.687 -5.477,3.704 c -0.12,0.017 -0.119,0.028 -0.238,0.045 -0.12,0.017 -0.122,0.006 -0.242,0.023 -0.12,0.016 -0.117,0.037 -0.238,0.054 -0.12,0.017 -0.12,0.016 -0.24,0.032 C -6.555,3.875 -6.549,3.915 -6.67,3.932 -6.79,3.949 -6.791,3.946 -6.911,3.963 -7.032,3.979 -7.035,3.988 -7.155,3.969 -7.273,3.95 -7.277,3.949 -7.384,3.896 -7.49,3.843 -7.459,3.781 -7.565,3.728 -7.671,3.675 -7.696,3.725 -7.802,3.672 -7.909,3.618 -7.905,3.61 -8.012,3.557 -8.118,3.503 -8.117,3.5 -8.223,3.447 -8.33,3.394 -8.338,3.41 -8.444,3.356 -8.551,3.303 -8.534,3.268 -8.641,3.215 -8.747,3.161 -8.757,3.18 -8.863,3.127 -8.97,3.073 -8.952,3.037 -9.059,2.983 -9.165,2.93 -9.167,2.935 -9.274,2.882 -9.381,2.828 -9.385,2.837 -9.492,2.783 -9.599,2.73 -9.619,2.771 -9.726,2.717 -9.834,2.663 -9.831,2.658 -9.938,2.604 -10.046,2.55 -10.031,2.519 -10.143,2.476 -10.256,2.432 -10.267,2.472 -10.384,2.44 -10.502,2.408 -10.488,2.357 -10.605,2.325 -10.723,2.293 -10.732,2.328 -10.849,2.296 -10.967,2.264 -10.972,2.282 -11.089,2.25 -11.206,2.218 -11.194,2.171 -11.311,2.139 -11.429,2.107 -11.44,2.15 -11.558,2.118 -11.675,2.086 -11.662,2.038 -11.78,2.005 -11.898,1.973 -11.898,1.975 -12.016,1.943 -12.133,1.911 -12.138,1.928 -12.256,1.896 -12.373,1.864 -12.379,1.886 -12.497,1.854 -12.615,1.821 -12.613,1.813 -12.731,1.78 -12.849,1.748 -12.872,1.786 -12.962,1.702 -13.047,1.623 -12.998,1.593 -13.035,1.481 -13.071,1.37 -13.043,1.361 -13.08,1.25 -13.116,1.139 -13.167,1.156 -13.203,1.046 -13.24,0.935 -13.249,0.938 -13.286,0.827 -13.323,0.716 -13.309,0.711 -13.345,0.6 -13.382,0.489 -13.353,0.479 -13.389,0.368 -13.426,0.257 -13.407,0.251 -13.443,0.14 c -0.037,-0.111 -0.075,-0.099 -0.111,-0.21 -0.037,-0.112 -0.009,-0.121 -0.046,-0.232 -0.036,-0.111 -0.076,-0.098 -0.112,-0.21 -0.037,-0.111 -0.046,-0.107 -0.083,-0.218 -0.037,-0.112 0.015,-0.129 -0.022,-0.24 -0.036,-0.112 -0.029,-0.114 -0.066,-0.226 -0.037,-0.112 -0.045,-0.109 -0.082,-0.221 -0.037,-0.112 -0.1,-0.096 -0.118,-0.213 -0.019,-0.119 -0.01,-0.123 -0.01,-0.244 0,-0.12 0.004,-0.12 0.004,-0.24 0,-0.121 0.059,-0.121 0.059,-0.241 0,-0.12 -0.001,-0.12 -0.001,-0.24 0,-0.12 -0.005,-0.12 -0.005,-0.24 0,-0.12 -0.041,-0.12 -0.041,-0.241 0,-0.12 0.034,-0.12 0.034,-0.24 0,-0.12 -0.034,-0.12 -0.034,-0.241 0,-0.12 -0.013,-0.12 -0.013,-0.24 0,-0.121 0.006,-0.121 0.006,-0.241 0,-0.121 0.014,-0.121 0.014,-0.242 0,-0.12 0.021,-0.12 0.021,-0.24 0,-0.121 0.02,-0.121 0.02,-0.242 0,-0.121 -0.053,-0.121 -0.053,-0.242 0,-0.121 -0.005,-0.122 0.035,-0.236 0.036,-0.104 0.048,-0.096 0.12,-0.18 0.071,-0.083 0.1,-0.058 0.172,-0.141 0.072,-0.084 0.063,-0.092 0.135,-0.176 0.072,-0.084 0.069,-0.086 0.141,-0.17 0.073,-0.084 0.086,-0.073 0.159,-0.157 0.072,-0.084 0.064,-0.089 0.102,-0.194 0.039,-0.107 0.056,-0.106 0.056,-0.221 0,-0.115 -0.024,-0.115 -0.024,-0.23 0,-0.115 0.012,-0.115 0.012,-0.229 0,-0.115 -0.016,-0.115 -0.016,-0.23 0,-0.115 0.028,-0.115 0.028,-0.23 0,-0.115 -0.012,-0.115 -0.012,-0.23 0,-0.115 -0.001,-0.115 -0.001,-0.231 0,-0.115 -0.055,-0.115 -0.055,-0.23 0,-0.115 0.046,-0.115 0.046,-0.23 0,-0.116 0.022,-0.116 0.022,-0.231 0,-0.115 -0.047,-0.115 -0.047,-0.231 0,-0.116 -0.088,-0.171 -0.005,-0.25 0.085,-0.082 0.135,0.051 0.252,0.054 0.118,0.004 0.118,10e-4 0.235,0.004 0.117,0.004 0.117,-0.003 0.235,0 0.117,0.003 0.117,0.002 0.235,0.006 0.118,0.003 0.118,-0.024 0.236,-0.02 0.118,0.003 0.117,0.008 0.235,0.011 0.118,0.003 0.118,0.003 0.236,0.006 0.117,0.004 0.117,0.003 0.235,0.006 0.118,0.003 0.117,0.039 0.234,0.042 0.119,0.004 0.118,0.008 0.237,0.011 0.118,0.004 0.121,-0.001 0.237,-0.024 0.117,-0.023 0.12,-0.023 0.229,-0.072 0.108,-0.048 0.084,-0.103 0.193,-0.151 0.109,-0.049 0.11,-0.046 0.22,-0.094 0.108,-0.049 0.124,-0.015 0.233,-0.063 0.108,-0.049 0.102,-0.065 0.21,-0.113 0.11,-0.049 0.1,-0.071 0.209,-0.119 0.109,-0.049 0.124,-0.016 0.233,-0.064 0.109,-0.049 0.116,-0.033 0.226,-0.082 0.108,-0.049 0.107,-0.052 0.216,-0.101 0.109,-0.049 0.115,-0.036 0.224,-0.085 0.109,-0.048 0.095,-0.08 0.205,-0.129 0.11,-0.049 0.112,-0.045 0.222,-0.094 0.109,-0.049 0.103,-0.058 0.221,-0.078 0.118,-0.019 0.115,-0.016 0.233,-0.004 0.118,0.011 0.12,-0.006 0.238,0.005 0.119,0.012 0.12,0.002 0.238,0.014 0.118,0.012 0.117,0.024 0.236,0.036 0.118,0.011 0.114,0.046 0.233,0.058 0.118,0.012 0.118,0.013 0.237,0.024 0.118,0.012 0.116,0.028 0.234,0.039 0.118,0.012 0.123,-0.031 0.241,-0.019 0.118,0.012 0.118,0.009 0.237,0.021 0.118,0.011 0.117,0.021 0.235,0.033 0.119,0.012 0.115,0.047 0.234,0.059 0.118,0.011 0.122,-0.031 0.241,-0.019 0.118,0.012 0.115,0.048 0.233,0.06 0.119,0.011 0.118,0.019 0.237,0.031 0.118,0.011 0.123,-0.039 0.242,-0.027 0.119,0.011 0.117,0.027 0.236,0.039 0.119,0.012 0.116,0.036 0.235,0.048 0.119,0.012 0.133,-0.056 0.246,-0.014 0.111,0.041 0.085,0.091 0.182,0.159 0.098,0.067 0.095,0.071 0.192,0.139 0.098,0.067 0.108,0.052 0.205,0.12 0.097,0.068 0.077,0.097 0.174,0.165 0.098,0.068 0.137,0.01 0.235,0.078 0.097,0.068 0.089,0.079 0.187,0.147 0.097,0.068 0.081,0.091 0.178,0.158 0.097,0.068 0.107,0.054 0.205,0.122 0.097,0.068 0.084,0.087 0.182,0.155 0.098,0.068 0.12,0.036 0.218,0.105 0.098,0.068 0.107,0.061 0.164,0.166 0.061,0.109 0.024,0.115 0.032,0.239 0.009,0.125 0.021,0.124 0.029,0.248 0.009,0.125 -0.033,0.128 -0.025,0.253 0.008,0.124 0.05,0.122 0.058,0.246 0.009,0.125 0.019,0.124 0.027,0.249 0.008,0.125 0.023,0.124 0.031,0.249 0.008,0.125 10e-4,0.125 0.01,0.25 0.008,0.125 -0.053,0.129 -0.045,0.254 0.009,0.125 0.053,0.122 0.062,0.247 0.008,0.125 -0.061,0.141 -0.021,0.26 0.04,0.118 0.095,0.095 0.163,0.198 0.07,0.104 0.044,0.121 0.113,0.224 0.069,0.104 0.117,0.072 0.186,0.176 0.069,0.103 0.05,0.116 0.119,0.219 0.069,0.103 0.04,0.123 0.109,0.226 0.069,0.104 0.112,0.075 0.181,0.179 0.069,0.104 0.035,0.127 0.104,0.231 0.07,0.104 0.089,0.091 0.158,0.195 0.07,0.104 0.112,0.087 0.148,0.207 0.035,0.118 0.005,0.126 0.004,0.249 -0.001,0.123 -0.022,0.123 -0.023,0.246 -0.001,0.123 0.036,0.124 0.035,0.247 -0.001,0.123 -0.033,0.122 -0.034,0.246 -10e-4,0.122 -0.012,0.122 -0.013,0.245 -10e-4,0.123 0.037,0.123 0.036,0.246 -0.001,0.123 -0.004,0.123 -0.005,0.246 -0.001,0.123 -0.039,0.123 -0.04,0.245 -0.001,0.124 0.015,0.124 0.014,0.247 -0.001,0.123 0.022,0.123 0.021,0.246 -0.001,0.124 -0.034,0.123 -0.035,0.247 -0.001,0.123 0.013,0.123 0.012,0.247 -0.001,0.123 -0.016,0.123 -0.017,0.246 -0.001,0.123 0.03,0.124 0.029,0.247 C 0.044,-0.358 0.017,-0.359 0.034,-0.237 0.051,-0.115 0.074,-0.099 0,0"
             style="fill:#878787;fill-opacity:1;fill-rule:nonzero;stroke:none"
             id="path20" />
        </g>
      </g>
    </g>
  </g>
</svg>
