<?xml version="1.0" encoding="utf-8"?>
<!-- Generator: Adobe Illustrator 27.0.0, SVG Export Plug-In . SVG Version: 6.00 Build 0)  -->
<svg version="1.1" xmlns="http://www.w3.org/2000/svg" xmlns:xlink="http://www.w3.org/1999/xlink" x="0px" y="0px"
	 viewBox="0 0 14.17 14.17" style="enable-background:new 0 0 14.17 14.17;" xml:space="preserve">
<style type="text/css">
	.st0{fill:#9D9D9C;}
	.st1{fill:#7D4400;}
</style>
<g id="Livello_1">
</g>
<g id="Livello_5">
	<g>
		<path class="st0" d="M4.26,6.34c-0.1-0.05-0.11-0.05-0.21-0.1c-0.11-0.05-0.1-0.06-0.21-0.12c-0.11-0.05-0.1-0.06-0.21-0.11
			c-0.1-0.05-0.11-0.05-0.21-0.1c-0.11-0.05-0.09-0.08-0.2-0.13C3.11,5.72,3.1,5.76,2.99,5.7c-0.1-0.05-0.11-0.04-0.22-0.09
			c-0.1-0.05-0.09-0.07-0.2-0.13c-0.1-0.05-0.09-0.09-0.19-0.14C2.28,5.29,2.27,5.3,2.17,5.25C2.06,5.2,2.04,5.23,1.94,5.18
			c-0.11-0.05-0.1-0.06-0.21-0.11c-0.11-0.05-0.08-0.1-0.19-0.16C1.44,4.85,1.44,4.85,1.34,4.8C1.23,4.74,1.2,4.8,1.1,4.75
			C0.99,4.69,1.01,4.66,0.9,4.61C0.8,4.55,0.79,4.56,0.69,4.51c-0.11-0.05-0.09-0.08-0.2-0.13C0.38,4.32,0.36,4.37,0.25,4.31
			C0.15,4.26,0.15,4.11,0.04,4.17c-0.1,0.06,0,0.13,0,0.25c0,0.12,0.03,0.12,0.03,0.24c0,0.12-0.04,0.12-0.04,0.24
			c0,0.12,0.02,0.12,0.02,0.24c0,0.12-0.02,0.12-0.02,0.24c0,0.12,0.01,0.12,0.01,0.24c0,0.12,0,0.12,0,0.24
			c0,0.12-0.02,0.12-0.02,0.24c0,0.12,0.06,0.12,0.06,0.24c0,0.12-0.05,0.12-0.05,0.24c0,0.12-0.01,0.12-0.01,0.24
			c0,0.12,0.01,0.12,0.01,0.24c0,0.12-0.01,0.12-0.01,0.24c0,0.12,0.05,0.12,0.05,0.24c0,0.12-0.03,0.12-0.03,0.24
			c0,0.12-0.01,0.12-0.01,0.24c0,0.12,0.01,0.12,0.01,0.24c0,0.12,0.03,0.12,0.03,0.24c0,0.12-0.03,0.12-0.03,0.24
			c0,0.12,0.02,0.12,0.02,0.24c0,0.12-0.04,0.12-0.04,0.24c0,0.12,0.06,0.12,0.06,0.24c0,0.12-0.03,0.12-0.03,0.24
			c0,0.12,0.03,0.12,0.03,0.24c0,0.12-0.03,0.12-0.03,0.24c0,0.12,0.03,0.12,0.03,0.24c0,0.12-0.03,0.12-0.03,0.24
			c0,0.12-0.03,0.12,0.03,0.22c0.06,0.1,0.09,0.05,0.2,0.11c0.11,0.05,0.09,0.09,0.19,0.15c0.11,0.05,0.12,0.03,0.22,0.09
			c0.11,0.05,0.11,0.05,0.21,0.1c0.11,0.05,0.11,0.04,0.22,0.1c0.11,0.05,0.09,0.08,0.2,0.13c0.11,0.05,0.1,0.07,0.2,0.12
			c0.11,0.05,0.12,0.03,0.22,0.09c0.11,0.05,0.11,0.05,0.21,0.11c0.11,0.05,0.12,0.03,0.22,0.08c0.11,0.05,0.09,0.09,0.19,0.14
			c0.11,0.05,0.12,0.03,0.22,0.08c0.11,0.05,0.11,0.05,0.21,0.11C2.9,12.23,2.9,12.24,3,12.3c0.11,0.05,0.12,0.03,0.22,0.08
			c0.11,0.05,0.1,0.06,0.21,0.12c0.11,0.05,0.09,0.09,0.19,0.14c0.11,0.05,0.12,0.02,0.23,0.07c0.11,0.05,0.11,0.04,0.22,0.1
			c0.11,0.05,0.08,0.11,0.18,0.16c0.11,0.05,0.12,0.02,0.23,0.07c0.11,0.05,0.1,0.07,0.2,0.13c0.11,0.05,0.11,0.04,0.22,0.09
			c0.11,0.05,0.11,0.04,0.22,0.09c0.11,0.05,0.1,0.07,0.2,0.12c0.11,0.05,0.11,0.04,0.22,0.1c0.11,0.05,0.09,0.08,0.2,0.13
			c0.11,0.05,0.1,0.06,0.21,0.11c0.11,0.05,0.13,0.01,0.23,0.07c0.11,0.05,0.08,0.11,0.19,0.16s0.13,0.17,0.24,0.11
			c0.1-0.06,0-0.14,0-0.26c0-0.12-0.04-0.12-0.04-0.23c0-0.12,0.01-0.12,0.01-0.23c0-0.12,0.01-0.12,0.01-0.23
			c0-0.12-0.02-0.12-0.02-0.23c0-0.12,0-0.12,0-0.23c0-0.12,0-0.12,0-0.23c0-0.12,0.05-0.12,0.05-0.23c0-0.12-0.01-0.12-0.01-0.23
			c0-0.12-0.05-0.12-0.05-0.23c0-0.12-0.01-0.12-0.01-0.23c0-0.12,0.06-0.12,0.06-0.23c0-0.12-0.04-0.12-0.04-0.23
			c0-0.12-0.03-0.12-0.03-0.23c0-0.12,0.04-0.12,0.04-0.23c0-0.12-0.01-0.12-0.01-0.23s0.03-0.12,0.03-0.23
			c0-0.08-0.04-0.16-0.05-0.24c0-0.08,0.03-0.16,0.02-0.24C6.58,9.63,6.55,9.55,6.54,9.47C6.53,9.39,6.51,9.32,6.49,9.24
			C6.47,9.16,6.47,9.08,6.45,9.01C6.42,8.93,6.38,8.86,6.35,8.79C6.33,8.71,6.31,8.64,6.28,8.56c-0.03-0.07-0.06-0.14-0.1-0.22
			C6.15,8.27,6.11,8.21,6.07,8.14C6.04,8.07,6.03,7.98,5.99,7.91c-0.04-0.07-0.1-0.12-0.15-0.19C5.8,7.66,5.77,7.58,5.72,7.52
			C5.67,7.46,5.59,7.43,5.53,7.37c-0.05-0.06-0.1-0.12-0.15-0.18C5.33,7.13,5.27,7.08,5.21,7.02C5.15,6.97,5.13,6.88,5.07,6.83
			C5.01,6.78,4.9,6.78,4.84,6.73C4.78,6.69,4.74,6.6,4.67,6.56c-0.07-0.04-0.13-0.1-0.19-0.14C4.41,6.38,4.33,6.37,4.26,6.34z"/>
		<path class="st1" d="M13.56,3.33c0-0.12-0.1-0.04-0.21-0.1c-0.1-0.05-0.1-0.06-0.2-0.12c-0.1-0.05-0.1-0.06-0.21-0.11
			c-0.1-0.05-0.11-0.05-0.21-0.1c-0.1-0.05-0.09-0.08-0.2-0.13c-0.1-0.05-0.12-0.02-0.23-0.07c-0.1-0.05-0.11-0.04-0.22-0.09
			c-0.1-0.05-0.09-0.07-0.2-0.13c-0.1-0.05-0.09-0.09-0.19-0.14c-0.1-0.05-0.11-0.04-0.22-0.09c-0.1-0.05-0.12-0.02-0.23-0.07
			c-0.1-0.05-0.1-0.06-0.21-0.11c-0.1-0.05-0.08-0.1-0.18-0.16c-0.1-0.05-0.1-0.05-0.21-0.11c-0.1-0.05-0.13,0-0.24-0.05
			c-0.1-0.05-0.09-0.09-0.19-0.14c-0.1-0.05-0.11-0.04-0.21-0.1c-0.1-0.05-0.09-0.08-0.2-0.13C9.72,1.34,9.7,1.39,9.59,1.33
			C9.49,1.28,9.51,1.24,9.4,1.19c-0.1-0.05-0.11-0.05-0.21-0.1c-0.1-0.05-0.12-0.02-0.22-0.08c-0.1-0.05-0.09-0.09-0.19-0.14
			c-0.1-0.05-0.11-0.04-0.22-0.09c-0.1-0.05-0.1-0.07-0.2-0.13c-0.1-0.05-0.11-0.04-0.22-0.1c-0.1-0.05-0.1-0.05-0.21-0.11
			c-0.1-0.05-0.09-0.07-0.2-0.13c-0.11-0.05-0.13,0-0.24-0.06c-0.11-0.05-0.08-0.1-0.19-0.15C7.2,0.06,7.21,0,7.09,0
			C6.97,0,6.98,0.06,6.87,0.12c-0.1,0.05-0.11,0.04-0.21,0.1c-0.1,0.05-0.08,0.1-0.19,0.15c-0.1,0.05-0.12,0.03-0.22,0.08
			c-0.1,0.05-0.11,0.04-0.21,0.1c-0.1,0.05-0.1,0.06-0.2,0.11c-0.1,0.05-0.09,0.08-0.2,0.13c-0.1,0.05-0.12,0.03-0.22,0.08
			c-0.1,0.05-0.1,0.07-0.2,0.12c-0.1,0.05-0.12,0.02-0.23,0.07C4.88,1.12,4.91,1.17,4.8,1.22C4.7,1.28,4.69,1.25,4.58,1.3
			c-0.1,0.05-0.09,0.08-0.2,0.13c-0.1,0.05-0.12,0.03-0.22,0.08c-0.1,0.05-0.09,0.08-0.2,0.13C3.86,1.7,3.85,1.67,3.75,1.73
			c-0.1,0.05-0.09,0.08-0.19,0.14c-0.1,0.05-0.11,0.05-0.21,0.1c-0.1,0.05-0.12,0.01-0.23,0.07c-0.1,0.05-0.09,0.07-0.2,0.13
			c-0.1,0.05-0.1,0.06-0.21,0.11c-0.1,0.05-0.1,0.06-0.2,0.12C2.4,2.44,2.39,2.42,2.28,2.47c-0.1,0.05-0.11,0.04-0.22,0.09
			c-0.1,0.05-0.09,0.07-0.2,0.13c-0.1,0.05-0.1,0.05-0.21,0.11c-0.1,0.05-0.09,0.08-0.2,0.13C1.36,2.98,1.34,2.95,1.23,3
			c-0.11,0.05-0.09,0.08-0.2,0.13C0.93,3.19,0.93,3.19,0.83,3.24C0.72,3.3,0.62,3.22,0.61,3.33c0,0.12,0.11,0.02,0.22,0.08
			c0.1,0.05,0.1,0.06,0.2,0.12c0.1,0.05,0.09,0.09,0.19,0.14c0.1,0.05,0.12,0.02,0.23,0.07c0.1,0.05,0.11,0.04,0.21,0.1
			C1.77,3.89,1.74,3.95,1.84,4c0.1,0.05,0.12,0.02,0.23,0.07c0.1,0.05,0.09,0.07,0.2,0.13c0.1,0.05,0.11,0.04,0.22,0.09
			C2.59,4.34,2.6,4.32,2.7,4.38c0.1,0.05,0.1,0.07,0.2,0.12c0.1,0.05,0.11,0.04,0.21,0.1c0.1,0.05,0.09,0.07,0.2,0.13
			c0.1,0.05,0.1,0.06,0.21,0.11c0.1,0.05,0.13,0.01,0.23,0.06C3.86,4.95,3.83,5,3.93,5.06c0.1,0.05,0.1,0.06,0.21,0.11
			c0.1,0.05,0.11,0.04,0.21,0.1c0.1,0.05,0.12,0.02,0.23,0.07c0.1,0.05,0.1,0.07,0.2,0.12c0.11,0.05,0.1,0.06,0.21,0.11
			C5.1,5.62,5.1,5.61,5.21,5.66c0.07,0.04,0.15,0.07,0.22,0.1C5.5,5.8,5.58,5.83,5.66,5.86c0.08,0.03,0.14,0.11,0.22,0.13
			c0.08,0.02,0.16,0.04,0.24,0.06c0.08,0.02,0.17-0.01,0.25,0C6.44,6.06,6.52,6.06,6.6,6.07c0.08,0.01,0.16,0.08,0.24,0.09
			c0.08,0,0.17-0.03,0.25-0.03c0.08,0,0.16-0.04,0.24-0.04c0.08,0,0.17,0.03,0.25,0.02C7.66,6.1,7.74,6.07,7.82,6.06
			C7.9,6.04,7.98,6.05,8.06,6.03c0.08-0.02,0.15-0.08,0.23-0.1C8.37,5.9,8.46,5.92,8.53,5.89c0.08-0.03,0.15-0.07,0.22-0.1
			C8.83,5.76,8.9,5.71,8.98,5.68c0.1-0.05,0.11-0.04,0.22-0.09c0.1-0.05,0.09-0.07,0.2-0.13C9.49,5.4,9.5,5.41,9.6,5.36
			C9.71,5.3,9.7,5.3,9.81,5.25c0.1-0.05,0.1-0.06,0.21-0.11c0.1-0.05,0.12-0.02,0.23-0.07c0.1-0.05,0.09-0.07,0.2-0.13
			c0.1-0.05,0.12-0.03,0.22-0.09c0.1-0.05,0.08-0.1,0.19-0.15c0.1-0.05,0.11-0.05,0.21-0.1c0.1-0.05,0.1-0.06,0.21-0.11
			c0.1-0.05,0.13-0.01,0.23-0.06c0.1-0.05,0.08-0.11,0.18-0.16c0.1-0.05,0.12-0.01,0.23-0.07c0.1-0.05,0.11-0.04,0.22-0.09
			c0.1-0.05,0.11-0.05,0.21-0.1c0.1-0.05,0.08-0.09,0.19-0.15c0.1-0.05,0.1-0.06,0.21-0.11c0.1-0.05,0.1-0.07,0.2-0.12
			c0.1-0.05,0.11-0.04,0.22-0.09c0.11-0.05,0.1-0.06,0.22-0.09C13.49,3.42,13.56,3.45,13.56,3.33z"/>
		<path d="M9.92,6.34c-0.07,0.04-0.14,0.08-0.2,0.12C9.65,6.49,9.58,6.53,9.51,6.57C9.45,6.61,9.38,6.66,9.32,6.7
			C9.25,6.75,9.19,6.8,9.13,6.85C9.07,6.9,9,6.94,8.94,6.99C8.88,7.04,8.85,7.13,8.8,7.19C8.74,7.24,8.7,7.31,8.65,7.37
			C8.6,7.43,8.53,7.48,8.48,7.54C8.44,7.6,8.36,7.65,8.32,7.71C8.27,7.78,8.24,7.85,8.2,7.92C8.16,7.99,8.16,8.08,8.12,8.15
			C8.08,8.22,8.04,8.28,8.01,8.35c-0.03,0.07-0.12,0.12-0.14,0.2C7.83,8.62,7.81,8.7,7.78,8.77C7.76,8.85,7.79,8.94,7.77,9.02
			C7.75,9.09,7.7,9.16,7.68,9.24C7.66,9.32,7.66,9.4,7.64,9.47C7.63,9.55,7.6,9.63,7.59,9.71C7.58,9.78,7.62,9.87,7.62,9.95
			c0,0.08-0.05,0.16-0.05,0.24c0,0.12,0.01,0.12,0.01,0.23c0,0.12,0.03,0.12,0.03,0.23c0,0.12-0.04,0.12-0.04,0.23
			c0,0.12,0.02,0.12,0.02,0.23c0,0.12-0.02,0.12-0.02,0.23c0,0.12,0.01,0.12,0.01,0.23c0,0.12,0,0.12,0,0.23
			c0,0.12-0.02,0.12-0.02,0.23c0,0.12,0.06,0.12,0.06,0.23c0,0.12-0.05,0.12-0.05,0.23c0,0.12-0.01,0.12-0.01,0.23
			c0,0.12,0.01,0.12,0.01,0.23c0,0.12-0.01,0.12-0.01,0.23c0,0.12,0.05,0.12,0.05,0.23c0,0.12-0.03,0.12-0.03,0.23
			c0,0.12-0.01,0.12-0.01,0.23c0,0.12-0.09,0.18,0.01,0.24c0.1,0.06,0.1-0.08,0.21-0.13c0.11-0.05,0.12-0.03,0.22-0.08
			c0.11-0.05,0.1-0.07,0.2-0.12c0.11-0.05,0.12-0.02,0.23-0.07c0.11-0.05,0.08-0.11,0.18-0.16c0.11-0.05,0.12-0.03,0.22-0.08
			c0.11-0.05,0.09-0.08,0.2-0.13c0.11-0.05,0.12-0.03,0.22-0.08c0.11-0.05,0.09-0.08,0.2-0.13c0.11-0.05,0.12-0.03,0.22-0.08
			c0.11-0.05,0.09-0.08,0.2-0.14c0.11-0.05,0.11-0.05,0.21-0.1c0.11-0.05,0.12-0.02,0.23-0.07c0.11-0.05,0.09-0.07,0.2-0.13
			c0.11-0.05,0.1-0.06,0.21-0.11c0.11-0.05,0.1-0.06,0.21-0.12c0.11-0.05,0.12-0.03,0.22-0.08c0.11-0.05,0.11-0.04,0.22-0.09
			c0.11-0.05,0.09-0.07,0.2-0.13c0.11-0.05,0.1-0.05,0.21-0.11c0.11-0.05,0.09-0.08,0.2-0.13c0.11-0.05,0.12-0.02,0.23-0.07
			c0.11-0.05,0.09-0.08,0.2-0.13c0.11-0.05,0.11-0.05,0.21-0.11c0.11-0.05,0.11-0.05,0.22-0.1c0.11-0.05,0.09-0.08,0.2-0.13
			c0.11-0.05,0.11-0.04,0.22-0.1c0.11-0.05,0.12-0.02,0.23-0.07c0.11-0.05,0.09-0.09,0.2-0.14c0.11-0.05,0.1-0.07,0.21-0.12
			s0.19,0.04,0.25-0.06c0.06-0.1-0.04-0.13-0.04-0.25c0-0.12,0.02-0.12,0.02-0.24c0-0.12-0.02-0.12-0.02-0.24
			c0-0.12-0.02-0.12-0.02-0.24c0-0.12,0.02-0.12,0.02-0.24c0-0.12-0.01-0.12-0.01-0.24c0-0.12,0.02-0.12,0.02-0.24
			c0-0.12,0.01-0.12,0.01-0.24c0-0.12-0.05-0.12-0.05-0.24c0-0.12,0.06-0.12,0.06-0.24c0-0.12,0-0.12,0-0.24
			c0-0.12-0.01-0.12-0.01-0.24c0-0.12-0.04-0.12-0.04-0.24c0-0.12,0.01-0.12,0.01-0.24c0-0.12,0.01-0.12,0.01-0.24
			c0-0.12-0.02-0.12-0.02-0.24c0-0.12,0-0.12,0-0.24c0-0.12,0-0.12,0-0.24c0-0.12,0.05-0.12,0.05-0.24c0-0.12-0.01-0.12-0.01-0.24
			c0-0.12-0.05-0.12-0.05-0.24c0-0.12-0.01-0.12-0.01-0.24c0-0.12,0.06-0.12,0.06-0.24c0-0.12-0.04-0.12-0.04-0.24
			c0-0.12-0.03-0.12-0.03-0.24c0-0.12,0.04-0.12,0.04-0.24c0-0.12-0.01-0.12-0.01-0.24c0-0.12,0.12-0.19,0.02-0.25
			c-0.1-0.06-0.1,0.09-0.2,0.14c-0.11,0.05-0.12,0.01-0.23,0.07c-0.11,0.05-0.1,0.06-0.21,0.12c-0.1,0.05-0.1,0.06-0.21,0.11
			c-0.11,0.05-0.11,0.04-0.22,0.09c-0.11,0.05-0.09,0.07-0.2,0.13c-0.1,0.05-0.11,0.04-0.21,0.1c-0.1,0.05-0.1,0.06-0.21,0.11
			c-0.1,0.05-0.1,0.06-0.21,0.11c-0.11,0.05-0.12,0.02-0.23,0.07c-0.11,0.05-0.09,0.07-0.2,0.13c-0.11,0.05-0.12,0.03-0.22,0.09
			c-0.11,0.05-0.08,0.1-0.19,0.15c-0.11,0.05-0.11,0.05-0.21,0.1c-0.11,0.05-0.1,0.06-0.21,0.11c-0.1,0.05-0.13,0.01-0.23,0.06
			c-0.11,0.05-0.08,0.11-0.18,0.16c-0.11,0.05-0.13,0.01-0.23,0.07c-0.11,0.05-0.11,0.04-0.22,0.09C10.01,6.26,10.03,6.28,9.92,6.34
			z"/>
	</g>
</g>
</svg>
