<?xml version="1.0" encoding="utf-8"?>
<!-- Generator: Adobe Illustrator 27.0.0, SVG Export Plug-In . SVG Version: 6.00 Build 0)  -->
<svg version="1.1" id="Livello_1" xmlns="http://www.w3.org/2000/svg" xmlns:xlink="http://www.w3.org/1999/xlink" x="0px" y="0px"
	 viewBox="0 0 14.17 14.17" style="enable-background:new 0 0 14.17 14.17;" xml:space="preserve">
<style type="text/css">
	.st0{fill:#7D4400;}
</style>
<g id="Livello_3_00000103952591721334546530000000764967630965702330_">
	<path class="st0" d="M14.14,11.87c0.1-0.05-0.05-0.11-0.15-0.22c-0.05-0.05-0.11-0.09-0.17-0.16c-0.05-0.05-0.1-0.11-0.16-0.17
		c-0.05-0.05-0.1-0.12-0.15-0.18c-0.05-0.05-0.15-0.07-0.2-0.13c-0.05-0.06-0.06-0.15-0.11-0.21c-0.05-0.06-0.14-0.08-0.2-0.13
		c-0.05-0.06-0.1-0.12-0.15-0.18c-0.05-0.06-0.1-0.12-0.15-0.18c-0.05-0.06-0.12-0.1-0.17-0.16c-0.05-0.06-0.09-0.13-0.14-0.19
		c-0.05-0.06-0.1-0.12-0.15-0.18c-0.05-0.06-0.1-0.13-0.14-0.18C12.04,9.53,12,9.46,11.96,9.41c-0.08-0.12-0.12-0.19-0.08-0.2
		c0.13-0.03,0.14-0.01,0.27-0.04c0.13-0.03,0.12-0.06,0.26-0.09c0.13-0.03,0.13-0.02,0.26-0.05C12.8,9,12.83,9.07,12.95,9
		c0.1-0.07-0.06-0.11-0.17-0.22c-0.05-0.05-0.13-0.09-0.19-0.15c-0.05-0.05-0.1-0.12-0.17-0.18c-0.05-0.06-0.14-0.09-0.2-0.15
		c-0.06-0.06-0.11-0.12-0.16-0.18C12,8.04,11.97,7.96,11.91,7.9c-0.06-0.06-0.15-0.09-0.2-0.15c-0.06-0.06-0.09-0.14-0.15-0.2
		c-0.06-0.06-0.13-0.1-0.19-0.16c-0.06-0.06-0.11-0.13-0.16-0.18c-0.06-0.06-0.14-0.1-0.19-0.16c-0.06-0.07-0.09-0.15-0.14-0.21
		c-0.06-0.07-0.12-0.13-0.16-0.19c-0.09-0.12-0.11-0.2-0.06-0.21c0.1-0.02,0.1-0.05,0.2-0.07c0.11-0.02,0.11,0.02,0.22-0.01
		c0.11-0.02,0.1-0.06,0.2-0.08c0.11-0.02,0.14,0.06,0.23,0c0.1-0.07-0.08-0.09-0.18-0.2c-0.05-0.05-0.11-0.11-0.17-0.18
		c-0.05-0.06-0.1-0.12-0.15-0.19c-0.05-0.06-0.1-0.13-0.15-0.19c-0.05-0.06-0.11-0.12-0.16-0.18c-0.05-0.06-0.11-0.12-0.16-0.18
		c-0.05-0.06-0.09-0.13-0.15-0.2c-0.05-0.06-0.13-0.1-0.18-0.17c-0.05-0.06-0.09-0.14-0.14-0.2C10.02,4.52,9.96,4.46,9.91,4.4
		C9.85,4.33,9.82,4.26,9.77,4.19c-0.05-0.07-0.14-0.1-0.19-0.16C9.53,3.95,9.49,3.88,9.46,3.82C9.38,3.69,9.36,3.6,9.4,3.59
		c0.12-0.04,0.12-0.02,0.24-0.06C9.76,3.5,9.81,3.57,9.86,3.45C9.9,3.34,9.79,3.38,9.71,3.29C9.64,3.2,9.64,3.2,9.57,3.11
		C9.49,3.01,9.52,3,9.44,2.9C9.37,2.81,9.37,2.81,9.3,2.72C9.23,2.62,9.21,2.64,9.13,2.55C9.06,2.46,9.05,2.46,8.98,2.37
		c-0.07-0.09-0.06-0.1-0.14-0.19c-0.07-0.09-0.06-0.1-0.13-0.2C8.64,1.9,8.61,1.91,8.54,1.82c-0.07-0.09-0.05-0.11-0.12-0.2
		c-0.07-0.09-0.06-0.11-0.13-0.2c-0.07-0.09-0.13-0.05-0.2-0.14c-0.07-0.09-0.03-0.13-0.1-0.22C7.91,0.97,7.9,0.98,7.83,0.89
		C7.75,0.8,7.76,0.79,7.69,0.7C7.61,0.61,7.6,0.62,7.52,0.53c-0.07-0.09-0.07-0.1-0.14-0.19c-0.07-0.09-0.06-0.1-0.14-0.19
		S7.19,0,7.07,0C6.96,0,7.01,0.08,6.94,0.17c-0.07,0.09-0.06,0.1-0.13,0.2C6.73,0.45,6.7,0.43,6.63,0.52
		c-0.07,0.09-0.05,0.11-0.12,0.2C6.43,0.81,6.41,0.8,6.34,0.89C6.26,0.98,6.27,0.98,6.19,1.07c-0.07,0.09-0.07,0.1-0.14,0.19
		c-0.07,0.09-0.1,0.07-0.18,0.16C5.8,1.51,5.8,1.51,5.73,1.6c-0.07,0.09-0.07,0.1-0.14,0.19c-0.07,0.09-0.06,0.1-0.14,0.19
		C5.38,2.07,5.37,2.06,5.3,2.16C5.22,2.25,5.22,2.25,5.15,2.34C5.07,2.43,5.11,2.45,5.03,2.55C4.96,2.64,4.92,2.61,4.85,2.7
		C4.78,2.79,4.81,2.81,4.73,2.91C4.66,3,4.63,2.97,4.56,3.07C4.48,3.16,4.48,3.16,4.41,3.25c-0.07,0.09-0.19,0.1-0.15,0.21
		C4.3,3.58,4.4,3.49,4.52,3.52c0.12,0.04,0.12,0.02,0.24,0.06c0.04,0.01,0,0.1-0.08,0.22C4.64,3.86,4.63,3.95,4.57,4.02
		c-0.04,0.06-0.13,0.1-0.18,0.17C4.34,4.25,4.3,4.32,4.25,4.39C4.2,4.45,4.13,4.5,4.08,4.56c-0.05,0.06-0.1,0.12-0.16,0.19
		C3.87,4.81,3.85,4.91,3.8,4.97c-0.05,0.06-0.14,0.09-0.2,0.15c-0.05,0.06-0.1,0.13-0.15,0.2C3.4,5.38,3.34,5.43,3.29,5.49
		C3.23,5.56,3.18,5.62,3.13,5.68c-0.06,0.07-0.1,0.13-0.15,0.19c-0.06,0.07-0.1,0.15-0.14,0.2c-0.1,0.11-0.26,0.1-0.17,0.17
		c0.09,0.06,0.1,0.04,0.2,0.06c0.11,0.02,0.11,0.01,0.21,0.04c0.11,0.02,0.11-0.02,0.22,0c0.11,0.02,0.11,0.02,0.21,0.04
		c0.04,0.01,0.01,0.13-0.08,0.25C3.4,6.69,3.33,6.74,3.27,6.82c-0.05,0.06-0.09,0.13-0.15,0.2C3.07,7.07,2.99,7.11,2.93,7.17
		C2.88,7.23,2.82,7.3,2.77,7.36C2.71,7.42,2.69,7.51,2.63,7.57C2.57,7.63,2.5,7.68,2.45,7.74C2.39,7.8,2.33,7.85,2.27,7.91
		C2.21,7.97,2.15,8.02,2.09,8.08C2.03,8.14,2,8.22,1.94,8.28C1.88,8.34,1.82,8.4,1.77,8.46c-0.06,0.06-0.14,0.1-0.2,0.15
		c-0.07,0.07-0.1,0.15-0.15,0.2C1.31,8.92,1.15,8.86,1.24,8.94c0.08,0.07,0.09,0.03,0.19,0.05c0.1,0.03,0.1,0.06,0.2,0.08
		c0.1,0.03,0.1,0.04,0.21,0.06c0.1,0.03,0.12-0.03,0.22,0s0.1,0.05,0.2,0.08c0.04,0.01-0.02,0.07-0.1,0.18
		C2.13,9.45,2.11,9.53,2.06,9.6C2.02,9.66,1.97,9.72,1.91,9.78C1.87,9.84,1.8,9.89,1.75,9.95c-0.05,0.06-0.09,0.12-0.14,0.18
		c-0.05,0.06-0.12,0.1-0.18,0.15c-0.05,0.06-0.11,0.11-0.16,0.17c-0.05,0.06-0.1,0.12-0.15,0.17c-0.05,0.06-0.09,0.13-0.14,0.19
		c-0.05,0.06-0.12,0.1-0.17,0.16c-0.05,0.06-0.08,0.14-0.14,0.19c-0.06,0.06-0.11,0.12-0.16,0.17c-0.06,0.06-0.14,0.09-0.19,0.14
		c-0.06,0.06-0.08,0.16-0.12,0.21c-0.1,0.1-0.28,0.08-0.17,0.12c0.11,0.05,0.11,0.01,0.23,0.02c0.12,0.01,0.12,0.02,0.23,0.03
		c0.12,0.01,0.12-0.01,0.24,0c0.12,0.01,0.12,0.01,0.24,0.02c0.12,0.01,0.12,0.02,0.23,0.03c0.12,0.01,0.12,0.01,0.24,0.02
		c0.12,0.01,0.11,0.07,0.23,0.08c0.12,0.01,0.12,0,0.24,0.01c0.12,0.01,0.12-0.01,0.24,0c0.12,0.01,0.12,0,0.24,0.01
		c0.12,0.01,0.12,0.02,0.24,0.03c0.12,0.01,0.12,0.03,0.23,0.04c0.12,0.01,0.12,0,0.24,0.01c0.12,0.01,0.12,0.03,0.23,0.04
		c0.12,0.01,0.12-0.05,0.24-0.04c0.12,0.01,0.11,0.04,0.23,0.06c0.12,0.01,0.12,0.02,0.23,0.03c0.12,0.01,0.12-0.01,0.24,0
		c0.12,0.01,0.12,0.03,0.23,0.04c0.12,0.01,0.12,0.02,0.24,0.03c0.12,0.01,0.12,0,0.24,0.01c0.12,0.01,0.12,0.04,0.23,0.05
		c0.12,0.01,0.19-0.11,0.26-0.02c0.07,0.1-0.06,0.14-0.08,0.26c-0.02,0.13,0,0.13-0.02,0.25c-0.02,0.13-0.05,0.12-0.07,0.25
		c-0.02,0.13,0,0.13-0.02,0.25c-0.02,0.13-0.01,0.13-0.03,0.25c-0.02,0.13-0.04,0.12-0.06,0.25c-0.02,0.13-0.11,0.18-0.04,0.28
		c0.07,0.09,0.14,0,0.26,0c0.12,0,0.12,0.01,0.24,0.01c0.12,0,0.12-0.03,0.24-0.03c0.12,0,0.12-0.03,0.24-0.03c0.12,0,0.12,0,0.24,0
		c0.12,0,0.12,0.04,0.24,0.04c0.12,0,0.12,0.02,0.24,0.02c0.12,0,0.12,0.01,0.24,0.01c0.12,0,0.12-0.03,0.24-0.03
		c0.12,0,0.12-0.02,0.24-0.02c0.12,0,0.12-0.01,0.24-0.01c0.12,0,0.12,0.01,0.24,0.01c0.12,0,0.12,0,0.24,0
		c0.12,0,0.12,0.02,0.24,0.02c0.12,0,0.12,0.01,0.24,0.01s0.16,0.09,0.24,0c0.08-0.1-0.01-0.13-0.03-0.25
		c-0.02-0.13,0-0.13-0.02-0.25c-0.02-0.13-0.08-0.12-0.1-0.24c-0.02-0.13-0.01-0.13-0.03-0.25c-0.02-0.13,0-0.13-0.02-0.25
		c-0.02-0.13-0.04-0.12-0.06-0.25c-0.02-0.13-0.07-0.15,0-0.25c0.07-0.1,0.11,0.01,0.23,0c0.12-0.01,0.12-0.01,0.24-0.02
		c0.12-0.01,0.12-0.03,0.23-0.04c0.12-0.01,0.11-0.05,0.23-0.06c0.12-0.01,0.12,0.04,0.24,0.03c0.12-0.01,0.11-0.07,0.23-0.08
		c0.12-0.01,0.12,0.03,0.24,0.02c0.12-0.01,0.12-0.02,0.23-0.04c0.12-0.01,0.12,0,0.24-0.01c0.12-0.01,0.12-0.01,0.24-0.02
		c0.12-0.01,0.12-0.01,0.24-0.02c0.12-0.01,0.12-0.02,0.23-0.03c0.12-0.01,0.12-0.02,0.23-0.03c0.12-0.01,0.12,0,0.24-0.01
		c0.12-0.01,0.12-0.03,0.23-0.04c0.12-0.01,0.12,0.01,0.24,0c0.12-0.01,0.12,0,0.24-0.01c0.12-0.01,0.12-0.01,0.24-0.02
		c0.12-0.01,0.12,0,0.24-0.01c0.12-0.01,0.12-0.01,0.24-0.02c0.12-0.01,0.12-0.01,0.24-0.03c0.12-0.01,0.12-0.06,0.23-0.05
		C14.02,11.88,14.03,11.92,14.14,11.87z"/>
</g>
</svg>
